<?xml version="1.0" standalone="no"?>
<!DOCTYPE svg PUBLIC "-//W3C//DTD SVG 20010904//EN"
 "http://www.w3.org/TR/2001/REC-SVG-20010904/DTD/svg10.dtd">
<svg version="1.0" xmlns="http://www.w3.org/2000/svg"
 width="512.000000pt" height="512.000000pt" viewBox="0 0 512.000000 512.000000"
 preserveAspectRatio="xMidYMid meet">

<g transform="translate(0.000000,512.000000) scale(0.100000,-0.100000)"
fill="#000000" stroke="none">
<path d="M2353 4855 c-109 -30 -185 -81 -250 -168 -69 -94 -84 -161 -84 -355
1 -184 7 -216 62 -322 43 -83 110 -158 177 -197 23 -14 42 -26 42 -28 0 -2
-19 -14 -43 -28 -62 -36 -124 -108 -160 -185 l-32 -67 -3 -597 c-1 -351 -6
-598 -12 -598 -5 0 -11 4 -15 9 -3 5 -18 12 -33 15 l-27 6 0 443 c0 486 1 474
-62 508 -39 21 -997 21 -1036 0 -63 -34 -62 -22 -62 -508 l0 -443 -27 -5 c-33
-8 -76 -50 -84 -82 -11 -44 4 -97 36 -126 l30 -27 360 0 360 0 0 -122 c0 -139
17 -190 73 -230 18 -12 34 -23 36 -24 2 -2 -10 -19 -27 -38 -67 -77 -136 -421
-149 -741 -5 -139 -4 -165 11 -193 24 -46 71 -72 129 -72 42 0 50 -3 55 -22
14 -56 85 -178 131 -226 290 -302 780 -210 937 176 l23 57 53 7 c69 8 871 10
931 2 45 -6 47 -8 62 -55 36 -108 153 -243 262 -302 66 -35 190 -67 262 -67
156 1 290 57 402 169 71 72 101 119 147 234 9 21 18 27 43 27 47 0 94 34 113
80 19 47 20 108 5 214 -15 112 -170 625 -231 768 -96 223 -236 433 -420 632
-54 57 -98 113 -98 124 0 18 2 18 48 -4 48 -23 109 -29 270 -25 56 1 67 5 93
30 l29 29 0 211 0 211 -29 32 -29 33 -121 3 c-145 4 -207 -10 -269 -64 -24
-20 -45 -35 -47 -33 -1 2 -6 30 -10 62 l-7 57 31 0 c20 0 42 10 63 29 32 29
33 31 36 126 3 61 -1 107 -8 126 -24 58 -29 59 -321 59 -251 0 -268 -1 -292
-20 -24 -19 -40 -20 -314 -20 l-288 0 -93 93 c-58 58 -102 112 -116 143 -31
65 -76 120 -136 165 l-50 37 43 25 c62 37 124 108 160 185 29 62 31 75 35 208
l4 143 143 3 c136 3 145 4 169 27 51 48 43 125 -16 161 -29 18 -51 20 -180 20
l-146 0 -31 66 c-88 187 -310 292 -508 239z m259 -92 c92 -42 172 -136 207
-245 7 -21 13 -39 14 -40 1 -1 81 -4 177 -7 172 -6 175 -6 178 -28 l3 -23
-551 0 -552 0 7 47 c22 147 112 257 253 310 56 20 205 12 264 -14z m228 -550
c0 -71 -3 -138 -6 -150 -8 -29 -38 -30 -81 -4 -32 20 -43 18 -43 -5 0 -16 51
-44 80 -44 26 0 25 -8 -8 -51 -72 -96 -151 -133 -277 -133 -106 0 -167 18
-239 70 -57 42 -60 39 81 90 57 21 103 41 103 44 0 3 -15 12 -32 21 -71 34
-97 118 -58 186 27 49 66 73 119 73 30 0 41 4 41 15 0 13 24 15 160 15 l160 0
0 -127z m-275 -489 c17 -8 121 -105 233 -217 l202 -202 -143 -143 -143 -142
-210 212 c-213 216 -234 244 -234 314 0 62 51 148 104 176 53 29 131 29 191 2z
m1653 -511 c3 -92 3 -93 -21 -93 -23 0 -25 4 -29 65 -3 36 -13 76 -22 90 -23
34 -21 37 27 33 l42 -3 3 -92z m-154 36 c26 -20 26 -22 26 -149 0 -128 0 -129
-27 -150 -26 -20 -37 -21 -171 -18 -162 3 -172 8 -172 78 0 20 -5 41 -12 48
-9 9 -117 12 -422 12 l-411 0 100 100 100 100 481 0 c472 0 482 0 508 -21z
m-2176 -31 c17 -17 17 -849 0 -866 -16 -16 -949 -17 -979 -2 -18 10 -19 26
-19 433 0 316 3 426 12 435 17 17 969 17 986 0z m1766 -269 c15 -45 236 -1410
236 -1455 0 -11 -23 -37 -54 -61 -30 -23 -76 -68 -101 -100 l-47 -59 -24 20
c-12 12 -74 42 -136 68 -62 26 -112 52 -111 57 2 6 -30 241 -71 524 -79 549
-82 561 -148 624 -55 52 -111 73 -205 73 l-83 0 0 180 0 180 364 0 364 0 16
-51z m786 -204 l0 -205 -35 0 c-85 0 -167 63 -191 148 -39 133 56 251 209 261
16 1 17 -15 17 -204z m154 189 c13 -13 16 -45 16 -193 0 -194 -2 -201 -57
-201 l-33 0 0 198 c0 109 3 202 7 205 12 13 51 7 67 -9z m-481 -68 c3 -8 9
-47 12 -87 4 -41 17 -136 30 -211 l22 -137 97 -102 c233 -245 384 -498 487
-813 22 -66 39 -123 39 -129 0 -5 -18 7 -41 27 -189 171 -464 225 -711 139
-43 -14 -80 -25 -82 -22 -5 6 -206 1281 -206 1307 0 22 3 22 153 22 83 0 159
5 167 10 20 13 27 12 33 -4z m-1042 -308 c19 -6 46 -20 60 -31 60 -43 65 -64
139 -583 39 -268 70 -492 70 -496 0 -5 -80 -7 -177 -6 l-178 3 -41 325 c-22
179 -46 335 -53 347 -26 49 -49 53 -349 53 -272 0 -280 1 -322 23 -30 16 -51
37 -67 67 -21 39 -23 57 -23 177 l0 133 454 0 c320 0 463 -3 487 -12z m-1059
-323 c9 -21 8 -28 -7 -45 -18 -20 -30 -20 -610 -20 -580 0 -592 0 -610 20 -15
17 -16 24 -7 45 l12 25 605 0 605 0 12 -25z m98 -50 c10 -13 9 -15 -8 -15 -15
0 -20 5 -16 15 4 8 7 15 9 15 1 0 8 -7 15 -15z m702 -502 c17 -15 18 -42 18
-455 0 -425 -1 -439 -20 -458 -11 -11 -33 -20 -50 -20 -30 0 -30 0 -30 58 -1
140 -56 282 -152 386 -103 113 -225 173 -375 183 -318 23 -584 -212 -601 -529
l-5 -98 -33 0 c-24 0 -38 7 -54 27 -20 25 -21 35 -15 143 9 165 32 346 61 488
39 191 57 228 129 273 28 18 61 19 569 19 488 0 541 -2 558 -17z m1603 -178
c217 -45 397 -209 476 -432 14 -39 23 -95 26 -169 5 -104 4 -113 -16 -133 -40
-40 -48 -29 -53 72 -13 235 -156 425 -384 509 -49 18 -80 22 -179 22 -99 0
-130 -4 -179 -22 -228 -84 -371 -274 -384 -509 -5 -101 -13 -112 -53 -72 -20
20 -21 29 -17 133 5 99 9 122 42 201 66 164 165 274 311 346 133 66 268 84
410 54z m-1480 -169 c-7 -17 -15 -38 -18 -46 -3 -8 -6 16 -6 54 -1 68 -1 68
18 45 16 -20 17 -27 6 -53z m538 -33 c158 -64 176 -80 157 -138 -6 -19 -20
-40 -30 -45 -11 -6 -136 -10 -309 -10 -258 0 -291 2 -306 17 -22 22 -17 85 15
171 l23 62 156 0 156 0 138 -57z m-1208 -262 c51 -23 121 -102 135 -150 25
-89 7 -169 -52 -236 -54 -61 -105 -84 -186 -85 -112 0 -206 68 -237 174 -19
62 -19 80 0 142 18 62 71 125 127 152 56 27 157 29 213 3z m2151 -16 c30 -19
60 -49 79 -79 27 -44 30 -58 30 -131 0 -73 -3 -87 -30 -131 -19 -30 -49 -60
-79 -79 -44 -27 -58 -30 -131 -30 -73 0 -87 3 -131 30 -68 43 -107 108 -112
190 -7 110 38 193 130 239 46 24 63 27 124 24 58 -3 80 -9 120 -33z m-838 -52
c-5 -32 -8 -95 -6 -140 l4 -83 -339 0 -339 0 6 23 c3 12 6 75 6 140 l0 117
338 0 339 0 -9 -57z"/>
<path d="M2697 4292 c-19 -21 -22 -83 -7 -113 11 -20 54 -26 79 -10 7 5 15 29
18 54 4 36 1 49 -16 66 -26 26 -53 27 -74 3z"/>
<path d="M3847 3228 c-48 -29 -82 -94 -73 -146 16 -100 131 -161 216 -114 51
28 80 75 80 132 0 116 -122 186 -223 128z"/>
</g>
</svg>
