<svg width="554.801" height="74.2" viewBox="0 0 554.801 74.2" xmlns="http://www.w3.org/2000/svg">
    <g id="svgGroup" stroke-linecap="round" fill-rule="evenodd" font-size="9pt" stroke="#000"
        stroke-width="0.25mm" fill="#000" style="stroke:#000;stroke-width:0.25mm;fill:#000">
        <path
            d="M 41.8 45.7 L 41.1 46 A 30.015 30.015 0 0 0 36.574 44.035 A 38.758 38.758 0 0 0 32.55 42.9 A 68.618 68.618 0 0 0 23.718 41.511 A 76.134 76.134 0 0 0 22.4 41.4 Q 21.4 47.1 20.5 53 Q 19.6 58.9 19.6 65.1 Q 19.6 66.4 19.65 67.8 Q 19.7 69.2 19.8 70.6 A 11.283 11.283 0 0 1 16.078 73.126 A 10.692 10.692 0 0 1 12 73.9 A 8.342 8.342 0 0 1 6.85 72.105 A 11.811 11.811 0 0 1 5.5 70.9 A 8.743 8.743 0 0 1 3.677 67.961 Q 2.668 65.378 2.604 61.522 A 31.783 31.783 0 0 1 2.6 61 Q 2.6 55.4 3.9 50 Q 5.2 44.6 6.85 39.05 Q 8.5 33.5 9.65 27.55 A 48.041 48.041 0 0 0 10.5 18.958 Q 10.522 17.009 10.4 15 Q 7.7 15.4 5.1 16.4 A 19.632 19.632 0 0 0 1.572 18.2 A 23.719 23.719 0 0 0 0 19.3 A 59.196 59.196 0 0 1 0.13 15.246 Q 0.262 13.332 0.527 11.703 A 24.752 24.752 0 0 1 1.1 9.05 A 10.542 10.542 0 0 1 2.387 6.124 A 8.505 8.505 0 0 1 5.4 3.3 A 11.46 11.46 0 0 1 7.958 2.278 Q 10.527 1.565 14.222 1.505 A 42.351 42.351 0 0 1 14.9 1.5 A 54.923 54.923 0 0 1 18.485 1.624 Q 20.392 1.749 22.5 2 Q 26.7 2.5 31.15 3 A 80.791 80.791 0 0 0 36.537 3.43 A 68.191 68.191 0 0 0 39.6 3.5 A 34.812 34.812 0 0 0 43.273 3.315 A 25.693 25.693 0 0 0 46.6 2.75 A 10.871 10.871 0 0 0 48.888 1.934 A 7.809 7.809 0 0 0 51.4 0 Q 53.4 1.3 54.45 3.55 Q 55.5 5.8 55.5 8.4 Q 55.5 11.1 54.25 13.65 A 10.129 10.129 0 0 1 51.029 17.423 A 12.3 12.3 0 0 1 50.4 17.85 A 9.795 9.795 0 0 1 47.611 19.034 Q 45.831 19.5 43.6 19.5 A 32.197 32.197 0 0 1 38.699 19.105 A 43.733 43.733 0 0 1 34 18.1 Q 28.8 16.7 23.3 15.7 Q 23.8 17.9 24.05 20.1 Q 24.3 22.3 24.3 24.6 Q 24.3 27.1 24.1 29.55 A 70.579 70.579 0 0 1 23.597 33.952 A 78.139 78.139 0 0 1 23.5 34.6 A 22.909 22.909 0 0 1 25.51 33.676 Q 26.562 33.249 27.774 32.857 A 41.267 41.267 0 0 1 28.6 32.6 Q 31.6 31.7 34.75 31.1 A 37.597 37.597 0 0 1 37.382 30.69 Q 38.692 30.536 39.866 30.507 A 21.708 21.708 0 0 1 40.4 30.5 A 14.454 14.454 0 0 1 41.724 30.557 Q 42.525 30.631 43.2 30.8 Q 44.106 32.703 44.191 35.345 A 17.258 17.258 0 0 1 44.2 35.9 A 20.971 20.971 0 0 1 43.117 42.44 A 26.712 26.712 0 0 1 41.8 45.7 Z M 352.8 45.7 L 352.1 46 A 30.015 30.015 0 0 0 347.574 44.035 A 38.758 38.758 0 0 0 343.55 42.9 A 68.618 68.618 0 0 0 334.718 41.511 A 76.134 76.134 0 0 0 333.4 41.4 Q 332.4 47.1 331.5 53 Q 330.6 58.9 330.6 65.1 Q 330.6 66.4 330.65 67.8 Q 330.7 69.2 330.8 70.6 A 11.283 11.283 0 0 1 327.078 73.126 A 10.692 10.692 0 0 1 323 73.9 A 8.342 8.342 0 0 1 317.85 72.105 A 11.811 11.811 0 0 1 316.5 70.9 A 8.743 8.743 0 0 1 314.677 67.961 Q 313.668 65.378 313.604 61.522 A 31.783 31.783 0 0 1 313.6 61 Q 313.6 55.4 314.9 50 Q 316.2 44.6 317.85 39.05 Q 319.5 33.5 320.65 27.55 A 48.041 48.041 0 0 0 321.5 18.958 Q 321.522 17.009 321.4 15 Q 318.7 15.4 316.1 16.4 A 19.632 19.632 0 0 0 312.572 18.2 A 23.719 23.719 0 0 0 311 19.3 A 59.196 59.196 0 0 1 311.13 15.246 Q 311.262 13.332 311.527 11.703 A 24.752 24.752 0 0 1 312.1 9.05 A 10.542 10.542 0 0 1 313.387 6.124 A 8.505 8.505 0 0 1 316.4 3.3 A 11.46 11.46 0 0 1 318.958 2.278 Q 321.527 1.565 325.222 1.505 A 42.351 42.351 0 0 1 325.9 1.5 A 54.923 54.923 0 0 1 329.485 1.624 Q 331.392 1.749 333.5 2 Q 337.7 2.5 342.15 3 A 80.791 80.791 0 0 0 347.537 3.43 A 68.191 68.191 0 0 0 350.6 3.5 A 34.812 34.812 0 0 0 354.273 3.315 A 25.693 25.693 0 0 0 357.6 2.75 A 10.871 10.871 0 0 0 359.888 1.934 A 7.809 7.809 0 0 0 362.4 0 Q 364.4 1.3 365.45 3.55 Q 366.5 5.8 366.5 8.4 Q 366.5 11.1 365.25 13.65 A 10.129 10.129 0 0 1 362.029 17.423 A 12.3 12.3 0 0 1 361.4 17.85 A 9.795 9.795 0 0 1 358.611 19.034 Q 356.831 19.5 354.6 19.5 A 32.197 32.197 0 0 1 349.699 19.105 A 43.733 43.733 0 0 1 345 18.1 Q 339.8 16.7 334.3 15.7 Q 334.8 17.9 335.05 20.1 Q 335.3 22.3 335.3 24.6 Q 335.3 27.1 335.1 29.55 A 70.579 70.579 0 0 1 334.597 33.952 A 78.139 78.139 0 0 1 334.5 34.6 A 22.909 22.909 0 0 1 336.51 33.676 Q 337.562 33.249 338.774 32.857 A 41.267 41.267 0 0 1 339.6 32.6 Q 342.6 31.7 345.75 31.1 A 37.597 37.597 0 0 1 348.382 30.69 Q 349.692 30.536 350.866 30.507 A 21.708 21.708 0 0 1 351.4 30.5 A 14.454 14.454 0 0 1 352.724 30.557 Q 353.525 30.631 354.2 30.8 Q 355.106 32.703 355.191 35.345 A 17.258 17.258 0 0 1 355.2 35.9 A 20.971 20.971 0 0 1 354.117 42.44 A 26.712 26.712 0 0 1 352.8 45.7 Z M 204.1 9 L 204.1 8.4 A 16.821 16.821 0 0 1 206.671 6.019 A 13.621 13.621 0 0 1 209.15 4.55 A 14.936 14.936 0 0 1 211.673 3.653 A 11.129 11.129 0 0 1 214.4 3.3 Q 217.7 3.3 220 5.35 A 6.653 6.653 0 0 1 222.064 8.945 A 10.162 10.162 0 0 1 222.3 11.2 A 18.358 18.358 0 0 1 222.245 12.539 Q 222.103 14.453 221.6 17.4 A 405.567 405.567 0 0 1 220.93 21.208 Q 220.463 23.797 219.9 26.75 A 8831.115 8831.115 0 0 0 217.916 37.203 A 9592.897 9592.897 0 0 0 217.85 37.55 A 228.249 228.249 0 0 0 216.522 45.27 A 195.514 195.514 0 0 0 216.1 48.15 A 86.979 86.979 0 0 0 215.674 51.748 Q 215.4 54.588 215.4 56.9 A 24.352 24.352 0 0 0 215.464 58.715 Q 215.532 59.632 215.676 60.406 A 9.679 9.679 0 0 0 216.05 61.85 A 4.123 4.123 0 0 0 216.425 62.654 Q 216.698 63.095 217.057 63.35 A 1.922 1.922 0 0 0 218.2 63.7 A 3.576 3.576 0 0 0 219.488 63.45 Q 219.935 63.278 220.389 62.989 A 6.195 6.195 0 0 0 220.45 62.95 Q 221.46 62.292 221.891 61.44 A 2.973 2.973 0 0 0 222 61.2 L 222.7 61.7 Q 222.7 65 220.6 67.75 Q 218.5 70.5 215.3 72.2 A 14.292 14.292 0 0 1 210.597 73.766 A 13.382 13.382 0 0 1 208.7 73.9 A 10.78 10.78 0 0 1 206.253 73.638 Q 204.232 73.167 202.85 71.85 Q 200.7 69.8 199.8 66.6 Q 198.9 63.4 198.8 60 A 40.244 40.244 0 0 1 196.572 64.449 Q 194.29 68.338 191.55 70.55 Q 187.4 73.9 183.3 73.9 A 10.287 10.287 0 0 1 177.697 72.218 A 13.38 13.38 0 0 1 176.55 71.4 A 14.528 14.528 0 0 1 173.621 68.21 Q 172.586 66.704 171.752 64.813 A 26.171 26.171 0 0 1 171.45 64.1 A 24.814 24.814 0 0 1 170.05 59.161 Q 169.621 56.779 169.526 54.053 A 45.055 45.055 0 0 1 169.5 52.5 Q 169.5 45.5 171.5 40 A 34.07 34.07 0 0 1 173.978 34.622 A 27.157 27.157 0 0 1 176.75 30.65 A 26.388 26.388 0 0 1 180.373 27.081 A 21.031 21.031 0 0 1 183.85 24.8 A 18.72 18.72 0 0 1 187.545 23.332 A 14.591 14.591 0 0 1 191.4 22.8 Q 195.5 22.8 198.7 25.35 Q 201.485 27.569 202.755 31.947 A 21.928 21.928 0 0 1 203.1 33.3 A 279.345 279.345 0 0 0 204.265 26.345 A 240.105 240.105 0 0 0 204.65 23.75 A 72.321 72.321 0 0 0 205.094 19.97 Q 205.249 18.244 205.287 16.705 A 40.135 40.135 0 0 0 205.3 15.7 A 28.197 28.197 0 0 0 205.215 13.433 Q 204.981 10.542 204.1 9 Z M 304.2 54.5 L 304.9 55 A 21.004 21.004 0 0 1 304.517 59.112 A 15.067 15.067 0 0 1 302.75 63.85 Q 300.6 67.5 297.1 69.8 Q 293.6 72.1 289.45 73.15 Q 285.3 74.2 281.2 74.2 Q 275.041 74.2 270.661 72.1 A 17.098 17.098 0 0 1 269.1 71.25 Q 264.3 68.3 261.9 63.45 Q 259.5 58.6 259.5 53 Q 259.5 47.7 261.55 42.35 Q 263.6 37 267.55 32.6 A 30.173 30.173 0 0 1 276.799 25.67 A 34.389 34.389 0 0 1 277.15 25.5 Q 282.8 22.8 289.9 22.8 A 31.155 31.155 0 0 1 294.474 23.112 Q 299.839 23.911 302.75 26.75 A 13.106 13.106 0 0 1 306.157 32.099 A 13.452 13.452 0 0 1 306.8 36.3 Q 306.8 41.1 304.25 45.15 Q 301.7 49.2 297.5 51.65 Q 293.3 54.1 288.3 54.1 A 18.237 18.237 0 0 1 283.841 53.53 A 20.915 20.915 0 0 1 283 53.3 Q 280.3 52.5 277.7 50.8 A 21.494 21.494 0 0 0 278.226 54.182 Q 278.659 55.949 279.394 57.323 A 9.053 9.053 0 0 0 281.3 59.8 Q 284.4 62.6 288.7 62.6 Q 291.7 62.6 294.7 61.45 Q 297.7 60.3 300.25 58.45 Q 302.8 56.6 304.2 54.5 Z M 441.7 54.5 L 442.4 55 A 21.004 21.004 0 0 1 442.017 59.112 A 15.067 15.067 0 0 1 440.25 63.85 Q 438.1 67.5 434.6 69.8 Q 431.1 72.1 426.95 73.15 Q 422.8 74.2 418.7 74.2 Q 412.541 74.2 408.161 72.1 A 17.098 17.098 0 0 1 406.6 71.25 Q 401.8 68.3 399.4 63.45 Q 397 58.6 397 53 Q 397 47.7 399.05 42.35 Q 401.1 37 405.05 32.6 A 30.173 30.173 0 0 1 414.299 25.67 A 34.389 34.389 0 0 1 414.65 25.5 Q 420.3 22.8 427.4 22.8 A 31.155 31.155 0 0 1 431.974 23.112 Q 437.339 23.911 440.25 26.75 A 13.106 13.106 0 0 1 443.657 32.099 A 13.452 13.452 0 0 1 444.3 36.3 Q 444.3 41.1 441.75 45.15 Q 439.2 49.2 435 51.65 Q 430.8 54.1 425.8 54.1 A 18.237 18.237 0 0 1 421.341 53.53 A 20.915 20.915 0 0 1 420.5 53.3 Q 417.8 52.5 415.2 50.8 A 21.494 21.494 0 0 0 415.726 54.182 Q 416.159 55.949 416.894 57.323 A 9.053 9.053 0 0 0 418.8 59.8 Q 421.9 62.6 426.2 62.6 Q 429.2 62.6 432.2 61.45 Q 435.2 60.3 437.75 58.45 Q 440.3 56.6 441.7 54.5 Z M 493.8 54.5 L 494.5 55 A 21.004 21.004 0 0 1 494.117 59.112 A 15.067 15.067 0 0 1 492.35 63.85 Q 490.2 67.5 486.7 69.8 Q 483.2 72.1 479.05 73.15 Q 474.9 74.2 470.8 74.2 Q 464.641 74.2 460.261 72.1 A 17.098 17.098 0 0 1 458.7 71.25 Q 453.9 68.3 451.5 63.45 Q 449.1 58.6 449.1 53 Q 449.1 47.7 451.15 42.35 Q 453.2 37 457.15 32.6 A 30.173 30.173 0 0 1 466.399 25.67 A 34.389 34.389 0 0 1 466.75 25.5 Q 472.4 22.8 479.5 22.8 A 31.155 31.155 0 0 1 484.074 23.112 Q 489.439 23.911 492.35 26.75 A 13.106 13.106 0 0 1 495.757 32.099 A 13.452 13.452 0 0 1 496.4 36.3 Q 496.4 41.1 493.85 45.15 Q 491.3 49.2 487.1 51.65 Q 482.9 54.1 477.9 54.1 A 18.237 18.237 0 0 1 473.441 53.53 A 20.915 20.915 0 0 1 472.6 53.3 Q 469.9 52.5 467.3 50.8 A 21.494 21.494 0 0 0 467.826 54.182 Q 468.259 55.949 468.994 57.323 A 9.053 9.053 0 0 0 470.9 59.8 Q 474 62.6 478.3 62.6 Q 481.3 62.6 484.3 61.45 Q 487.3 60.3 489.85 58.45 Q 492.4 56.6 493.8 54.5 Z M 499.3 35.1 L 499.1 34.4 A 28.8 28.8 0 0 1 501.678 31.673 A 24.216 24.216 0 0 1 503.3 30.3 Q 505.5 28.6 507.9 27.5 A 1428.927 1428.927 0 0 0 508.819 22.796 Q 509.178 20.939 509.499 19.252 A 775.725 775.725 0 0 0 510.1 16.05 Q 510.96 11.419 510.998 10.389 A 2.386 2.386 0 0 0 511 10.3 A 2.189 2.189 0 0 1 511.622 8.794 Q 512.242 8.113 513.481 7.572 A 10.098 10.098 0 0 1 513.65 7.5 A 14.351 14.351 0 0 1 517.505 6.518 A 18.039 18.039 0 0 1 519.6 6.4 Q 522.5 6.4 525.05 7.5 A 6.208 6.208 0 0 1 527.346 9.152 A 6.245 6.245 0 0 1 528.5 11.2 A 1.75 1.75 0 0 0 528.236 11.578 Q 527.677 12.582 526.8 15.65 A 111.625 111.625 0 0 0 525.961 18.77 Q 525.25 21.563 524.5 25 Q 526.4 25.1 528.4 25.2 Q 530.4 25.3 532.5 25.5 Q 532.7 26.1 532.8 26.8 A 9.907 9.907 0 0 1 532.886 27.714 A 11.931 11.931 0 0 1 532.9 28.3 Q 532.9 29.8 532.45 31.55 Q 532 33.3 531.4 34.7 A 138.035 138.035 0 0 1 528.517 34.43 A 113.463 113.463 0 0 1 526.9 34.25 A 60.149 60.149 0 0 0 522.863 33.903 A 55.169 55.169 0 0 0 522.8 33.9 Q 522 38.2 521.35 42.5 Q 520.7 46.8 520.35 50.3 Q 520.062 53.185 520.011 55.051 A 27.665 27.665 0 0 0 520 55.8 A 17.873 17.873 0 0 0 520.085 57.615 Q 520.278 59.495 520.907 60.587 A 3.309 3.309 0 0 0 521.55 61.4 Q 523.1 62.8 525.3 62.8 Q 527.3 62.8 528.9 62 A 7.803 7.803 0 0 0 529.934 61.386 Q 530.458 61.014 530.83 60.591 A 3.967 3.967 0 0 0 531.2 60.1 L 532.2 60.4 Q 531.6 64.5 529 67.55 Q 526.4 70.6 522.8 72.25 Q 519.2 73.9 515.6 73.9 Q 512.4 73.9 509.55 72.45 A 10.61 10.61 0 0 1 505.653 69.015 A 13.379 13.379 0 0 1 504.95 67.9 A 12.568 12.568 0 0 1 503.694 64.62 Q 503.2 62.55 503.2 60 A 35.59 35.59 0 0 1 503.249 58.219 Q 503.353 56.156 503.678 53.385 A 114.773 114.773 0 0 1 503.7 53.2 Q 504.2 49 505.05 44 Q 505.9 39 506.8 34 Q 504.8 34.1 502.95 34.4 Q 501.1 34.7 499.3 35.1 Z M 373.3 10.6 L 373.2 10.3 Q 374.3 7.1 377.1 5.3 A 11.271 11.271 0 0 1 380.671 3.764 A 10.323 10.323 0 0 1 383 3.5 A 8.588 8.588 0 0 1 388.64 5.602 A 11.377 11.377 0 0 1 389.25 6.15 A 7.702 7.702 0 0 1 391.031 8.889 Q 392 11.319 392 15 Q 392 17.527 391.531 20.786 A 67.183 67.183 0 0 1 391.2 22.85 A 253.129 253.129 0 0 1 390.083 28.772 A 307.649 307.649 0 0 1 389.3 32.55 Q 388.2 37.7 387.05 42.7 Q 385.9 47.7 385.1 51.9 Q 384.577 54.645 384.396 56.749 A 24.051 24.051 0 0 0 384.3 58.8 Q 384.3 61.6 385.1 62.65 Q 385.9 63.7 386.9 63.7 Q 388 63.7 389 62.85 Q 390 62 390.3 61.3 L 391.1 61.5 A 11.832 11.832 0 0 1 390.088 66.072 A 11.317 11.317 0 0 1 389.05 67.9 Q 387.1 70.7 384.15 72.3 Q 381.2 73.9 378 73.9 A 10.993 10.993 0 0 1 373.109 72.733 A 12.946 12.946 0 0 1 372.75 72.55 A 9.295 9.295 0 0 1 369.752 69.991 A 12.468 12.468 0 0 1 368.6 68.2 A 12.406 12.406 0 0 1 367.506 65.25 Q 367.166 63.835 367.055 62.177 A 24.978 24.978 0 0 1 367 60.5 A 37.726 37.726 0 0 1 367.19 56.848 Q 367.363 55.071 367.695 53.094 A 72.042 72.042 0 0 1 368.15 50.65 A 358.454 358.454 0 0 1 370.044 41.922 A 406.1 406.1 0 0 1 370.75 38.9 A 266.56 266.56 0 0 0 373.161 27.726 A 243.428 243.428 0 0 0 373.3 27 Q 374.308 21.683 374.308 17.459 A 34.168 34.168 0 0 0 374.3 16.7 Q 374.3 13.334 373.687 11.5 A 5.335 5.335 0 0 0 373.3 10.6 Z M 77.4 74.2 Q 69.9 74.2 65 71.2 Q 60.1 68.2 57.75 63.25 Q 55.4 58.3 55.4 52.7 A 30.298 30.298 0 0 1 57.1 42.804 A 34.448 34.448 0 0 1 57.35 42.1 Q 59.3 36.8 63.05 32.45 Q 66.8 28.1 72.2 25.45 A 25.682 25.682 0 0 1 79.977 23.113 A 33.047 33.047 0 0 1 84.6 22.8 A 30.357 30.357 0 0 1 89.852 23.229 Q 93.919 23.944 96.95 25.85 Q 101.8 28.9 104.15 33.9 Q 106.5 38.9 106.5 44.6 A 30.152 30.152 0 0 1 104.993 53.902 A 34.536 34.536 0 0 1 104.6 55.05 Q 102.7 60.3 98.95 64.65 Q 95.2 69 89.8 71.6 A 26.027 26.027 0 0 1 82.074 73.886 A 33.632 33.632 0 0 1 77.4 74.2 Z M 134.1 74.2 Q 126.6 74.2 121.7 71.2 Q 116.8 68.2 114.45 63.25 Q 112.1 58.3 112.1 52.7 A 30.298 30.298 0 0 1 113.8 42.804 A 34.448 34.448 0 0 1 114.05 42.1 Q 116 36.8 119.75 32.45 Q 123.5 28.1 128.9 25.45 A 25.682 25.682 0 0 1 136.677 23.113 A 33.047 33.047 0 0 1 141.3 22.8 A 30.357 30.357 0 0 1 146.552 23.229 Q 150.619 23.944 153.65 25.85 Q 158.5 28.9 160.85 33.9 Q 163.2 38.9 163.2 44.6 A 30.152 30.152 0 0 1 161.693 53.902 A 34.536 34.536 0 0 1 161.3 55.05 Q 159.4 60.3 155.65 64.65 Q 151.9 69 146.5 71.6 A 26.027 26.027 0 0 1 138.774 73.886 A 33.632 33.632 0 0 1 134.1 74.2 Z M 229.2 36.4 L 228.5 36 A 14.768 14.768 0 0 1 229.378 32.181 A 12.291 12.291 0 0 1 231.05 29.15 Q 233.2 26.3 236.35 24.7 A 15.197 15.197 0 0 1 239.683 23.452 A 12.457 12.457 0 0 1 242.6 23.1 Q 246.4 23.1 249.2 25.55 Q 251.414 27.487 251.877 31.33 A 18.144 18.144 0 0 1 252 33.5 A 25.76 25.76 0 0 1 251.591 37.982 A 31.672 31.672 0 0 1 251.05 40.45 Q 250.1 44.1 248.85 47.7 Q 247.6 51.3 246.65 54.4 Q 245.7 57.5 245.7 59.7 A 7.604 7.604 0 0 0 245.753 60.632 Q 245.899 61.813 246.45 62.4 Q 247.2 63.2 248.1 63.2 Q 249 63.2 249.85 62.65 A 4.623 4.623 0 0 0 250.487 62.159 Q 250.833 61.838 251.055 61.475 A 2.822 2.822 0 0 0 251.1 61.4 L 251.8 61.6 A 11.818 11.818 0 0 1 251.254 65.251 A 10.264 10.264 0 0 1 249.85 68.05 Q 247.9 70.8 245 72.35 A 12.83 12.83 0 0 1 240.442 73.815 A 12.195 12.195 0 0 1 239 73.9 A 10.207 10.207 0 0 1 232.244 71.361 A 13.046 13.046 0 0 1 232 71.15 A 8.336 8.336 0 0 1 229.724 67.7 Q 229.222 66.326 229.026 64.621 A 20.33 20.33 0 0 1 228.9 62.3 A 22.839 22.839 0 0 1 229.37 57.601 A 20.094 20.094 0 0 1 229.85 55.75 Q 230.8 52.7 232.05 49.8 A 84.191 84.191 0 0 0 233.756 45.534 A 74.436 74.436 0 0 0 234.25 44.15 A 17.036 17.036 0 0 0 235.151 39.926 A 15.487 15.487 0 0 0 235.2 38.7 Q 235.2 36.649 234.616 35.583 A 2.663 2.663 0 0 0 234.4 35.25 A 3.163 3.163 0 0 0 233.843 34.674 A 2.122 2.122 0 0 0 232.5 34.2 Q 231.236 34.2 230.027 35.417 A 8.414 8.414 0 0 0 229.2 36.4 Z M 80.1 65.7 A 4.745 4.745 0 0 0 83.548 64.222 A 7.809 7.809 0 0 0 84.6 62.9 A 16.623 16.623 0 0 0 86.047 60.044 Q 86.618 58.608 87.037 56.91 A 31.037 31.037 0 0 0 87.3 55.75 Q 88.2 51.4 88.2 46.9 A 38.195 38.195 0 0 0 87.846 41.613 A 33.103 33.103 0 0 0 87.45 39.35 Q 86.843 36.476 85.744 34.454 A 11.697 11.697 0 0 0 85.2 33.55 A 5.784 5.784 0 0 0 84.091 32.292 A 4.241 4.241 0 0 0 81.3 31.3 A 4.586 4.586 0 0 0 78.211 32.506 Q 77.577 33.059 77.011 33.865 A 10.008 10.008 0 0 0 76.85 34.1 A 16.448 16.448 0 0 0 75.325 37.055 Q 74.578 38.916 74.1 41.2 Q 73.2 45.5 73.2 50.1 A 38.195 38.195 0 0 0 73.555 55.387 A 33.103 33.103 0 0 0 73.95 57.65 Q 74.557 60.524 75.656 62.546 A 11.697 11.697 0 0 0 76.2 63.45 A 5.784 5.784 0 0 0 77.31 64.708 A 4.241 4.241 0 0 0 80.1 65.7 Z M 136.8 65.7 A 4.745 4.745 0 0 0 140.248 64.222 A 7.809 7.809 0 0 0 141.3 62.9 A 16.623 16.623 0 0 0 142.747 60.044 Q 143.318 58.608 143.737 56.91 A 31.037 31.037 0 0 0 144 55.75 Q 144.9 51.4 144.9 46.9 A 38.195 38.195 0 0 0 144.546 41.613 A 33.103 33.103 0 0 0 144.15 39.35 Q 143.543 36.476 142.444 34.454 A 11.697 11.697 0 0 0 141.9 33.55 A 5.784 5.784 0 0 0 140.791 32.292 A 4.241 4.241 0 0 0 138 31.3 A 4.586 4.586 0 0 0 134.911 32.506 Q 134.277 33.059 133.711 33.865 A 10.008 10.008 0 0 0 133.55 34.1 A 16.448 16.448 0 0 0 132.025 37.055 Q 131.278 38.916 130.8 41.2 Q 129.9 45.5 129.9 50.1 A 38.195 38.195 0 0 0 130.255 55.387 A 33.103 33.103 0 0 0 130.65 57.65 Q 131.257 60.524 132.356 62.546 A 11.697 11.697 0 0 0 132.9 63.45 A 5.784 5.784 0 0 0 134.01 64.708 A 4.241 4.241 0 0 0 136.8 65.7 Z M 201.4 42.8 L 202 39.7 A 24.267 24.267 0 0 0 201.028 37.693 Q 199.851 35.54 198.55 34.45 A 8.563 8.563 0 0 0 197.38 33.616 Q 196.156 32.9 195 32.9 A 4.793 4.793 0 0 0 192.429 33.676 Q 191.709 34.126 191.017 34.835 A 11.11 11.11 0 0 0 190.3 35.65 Q 188.238 38.228 186.922 42.125 A 30.692 30.692 0 0 0 186.75 42.65 A 29.382 29.382 0 0 0 185.4 51.582 A 32.401 32.401 0 0 0 185.4 51.6 A 25.319 25.319 0 0 0 185.527 54.222 Q 185.806 56.897 186.7 58.65 Q 188 61.2 190 61.2 A 3.666 3.666 0 0 0 191.771 60.694 Q 193.65 59.658 195.8 56.5 A 27.745 27.745 0 0 0 197.906 52.761 Q 199.795 48.77 201.351 42.984 A 91.713 91.713 0 0 0 201.4 42.8 Z M 540.399 73.575 A 10.605 10.605 0 0 0 543.8 74.1 Q 548.4 74.1 551.6 71.05 A 12.356 12.356 0 0 0 551.809 70.846 A 9.748 9.748 0 0 0 554.8 63.7 A 10.312 10.312 0 0 0 554.796 63.405 A 8.433 8.433 0 0 0 552.05 57.3 A 9.211 9.211 0 0 0 548.72 55.262 A 10.642 10.642 0 0 0 545.2 54.7 A 13.836 13.836 0 0 0 545.128 54.7 A 10.701 10.701 0 0 0 537.45 57.75 A 12.265 12.265 0 0 0 537.256 57.942 A 9.828 9.828 0 0 0 534.3 65.1 A 10.541 10.541 0 0 0 534.303 65.336 A 8.509 8.509 0 0 0 537 71.5 A 8.977 8.977 0 0 0 540.399 73.575 Z M 242.936 19.58 A 10.675 10.675 0 0 0 246 20 Q 250.3 20 253.3 17.15 A 11.604 11.604 0 0 0 253.507 16.948 A 9.07 9.07 0 0 0 256.3 10.3 A 10.616 10.616 0 0 0 256.299 10.127 A 8.308 8.308 0 0 0 253.75 4.1 A 8.409 8.409 0 0 0 250.31 2.043 A 10.446 10.446 0 0 0 247.2 1.6 Q 242.9 1.6 239.9 4.5 A 11.922 11.922 0 0 0 239.716 4.682 A 9.229 9.229 0 0 0 236.9 11.4 A 10.571 10.571 0 0 0 236.903 11.63 A 8.134 8.134 0 0 0 239.45 17.55 A 8.447 8.447 0 0 0 242.936 19.58 Z M 283.5 47.2 A 9.037 9.037 0 0 0 285.817 46.918 A 6.698 6.698 0 0 0 288.7 45.35 Q 290.7 43.5 291.7 41 A 16.95 16.95 0 0 0 292.3 39.245 Q 292.547 38.355 292.641 37.556 A 8.13 8.13 0 0 0 292.7 36.6 A 6.72 6.72 0 0 0 292.451 34.731 A 5.358 5.358 0 0 0 291.4 32.75 A 4.251 4.251 0 0 0 288.563 31.246 A 6.124 6.124 0 0 0 287.8 31.2 Q 286.323 31.2 284.611 32.075 A 12.214 12.214 0 0 0 283.85 32.5 Q 281.7 33.8 280 36.95 A 14.768 14.768 0 0 0 278.933 39.53 Q 278.12 42.113 277.8 45.7 A 19.362 19.362 0 0 0 280.01 46.584 Q 281.161 46.96 282.205 47.106 A 9.321 9.321 0 0 0 283.5 47.2 Z M 421 47.2 A 9.037 9.037 0 0 0 423.317 46.918 A 6.698 6.698 0 0 0 426.2 45.35 Q 428.2 43.5 429.2 41 A 16.95 16.95 0 0 0 429.8 39.245 Q 430.047 38.355 430.141 37.556 A 8.13 8.13 0 0 0 430.2 36.6 A 6.72 6.72 0 0 0 429.951 34.731 A 5.358 5.358 0 0 0 428.9 32.75 A 4.251 4.251 0 0 0 426.063 31.246 A 6.124 6.124 0 0 0 425.3 31.2 Q 423.823 31.2 422.111 32.075 A 12.214 12.214 0 0 0 421.35 32.5 Q 419.2 33.8 417.5 36.95 A 14.768 14.768 0 0 0 416.433 39.53 Q 415.62 42.113 415.3 45.7 A 19.362 19.362 0 0 0 417.51 46.584 Q 418.661 46.96 419.705 47.106 A 9.321 9.321 0 0 0 421 47.2 Z M 473.1 47.2 A 9.037 9.037 0 0 0 475.417 46.918 A 6.698 6.698 0 0 0 478.3 45.35 Q 480.3 43.5 481.3 41 A 16.95 16.95 0 0 0 481.9 39.245 Q 482.147 38.355 482.241 37.556 A 8.13 8.13 0 0 0 482.3 36.6 A 6.72 6.72 0 0 0 482.051 34.731 A 5.358 5.358 0 0 0 481 32.75 A 4.251 4.251 0 0 0 478.163 31.246 A 6.124 6.124 0 0 0 477.4 31.2 Q 475.923 31.2 474.211 32.075 A 12.214 12.214 0 0 0 473.45 32.5 Q 471.3 33.8 469.6 36.95 A 14.768 14.768 0 0 0 468.533 39.53 Q 467.72 42.113 467.4 45.7 A 19.362 19.362 0 0 0 469.61 46.584 Q 470.761 46.96 471.805 47.106 A 9.321 9.321 0 0 0 473.1 47.2 Z"
            vector-effect="non-scaling-stroke" />
    </g>
</svg>