<svg xmlns="http://www.w3.org/2000/svg" xmlns:xlink="http://www.w3.org/1999/xlink" xmlns:lucid="lucid" width="1705" height="1023.5"><g transform="translate(4543.99996233213 260.5)" lucid:page-tab-id="0_0"><path d="M-3740-77a6 6 0 0 1 6-6h188a6 6 0 0 1 6 6v208a6 6 0 0 1-6 6h-188a6 6 0 0 1-6-6z" fill="#fff"/><path d="M-3740-77a6 6 0 0 1 6-6h188a6 6 0 0 1 6 6v208a6 6 0 0 1-6 6h-188a6 6 0 0 1-6-6zM-3740-43h200M-3680-43v180" stroke="#3a414a" stroke-width="2" fill="none"/><use xlink:href="#a" transform="matrix(1,0,0,1,-3730,-83) translate(49.29012345679013 24.444444444444443)"/><use xlink:href="#b" transform="matrix(1,0,0,1,-3735,-40.5) translate(10.185185185185187 20.444444444444443)"/><use xlink:href="#c" transform="matrix(1,0,0,1,-3675,-40.5) translate(0 20.444444444444443)"/><use xlink:href="#a" transform="matrix(1,0,0,1,-3675,-3.5) translate(0 20.444444444444443)"/><use xlink:href="#d" transform="matrix(1,0,0,1,-3675,33.5) translate(0 20.444444444444443)"/><use xlink:href="#e" transform="matrix(1,0,0,1,-3675,70.5) translate(0 20.444444444444443)"/><use xlink:href="#f" transform="matrix(1,0,0,1,-3735,107.5) translate(13.524999999999999 17.1)"/><use xlink:href="#g" transform="matrix(1,0,0,1,-3675,107.5) translate(0 17.1)"/><path d="M-3440 26a6 6 0 0 1 6-6h228a6 6 0 0 1 6 6v361a6 6 0 0 1-6 6h-228a6 6 0 0 1-6-6z" fill="#fff"/><path d="M-3440 26a6 6 0 0 1 6-6h228a6 6 0 0 1 6 6v361a6 6 0 0 1-6 6h-228a6 6 0 0 1-6-6zM-3440 60h240M-3380 60v333" stroke="#3a414a" stroke-width="2" fill="none"/><use xlink:href="#h" transform="matrix(1,0,0,1,-3430,20) translate(76.11111111111113 24.444444444444443)"/><use xlink:href="#i" transform="matrix(1,0,0,1,-3435,62.5) translate(10.18518518518519 20.444444444444443)"/><use xlink:href="#j" transform="matrix(1,0,0,1,-3375,62.5) translate(0 20.444444444444443)"/><use xlink:href="#k" transform="matrix(1,0,0,1,-3375,99.5) translate(0 20.444444444444443)"/><use xlink:href="#l" transform="matrix(1,0,0,1,-3375,136.5) translate(0 20.444444444444443)"/><use xlink:href="#m" transform="matrix(1,0,0,1,-3375,173.5) translate(0 20.444444444444443)"/><use xlink:href="#n" transform="matrix(1,0,0,1,-3375,210.5) translate(0 20.444444444444443)"/><use xlink:href="#o" transform="matrix(1,0,0,1,-3435,247.5) translate(10.83333333333334 20.444444444444443)"/><use xlink:href="#p" transform="matrix(1,0,0,1,-3375,247.5) translate(0 20.444444444444443)"/><use xlink:href="#o" transform="matrix(1,0,0,1,-3435,284.5) translate(10.83333333333334 20.444444444444443)"/><use xlink:href="#q" transform="matrix(1,0,0,1,-3375,284.5) translate(0 20.444444444444443)"/><use xlink:href="#o" transform="matrix(1,0,0,1,-3435,321.5) translate(10.83333333333334 20.444444444444443)"/><use xlink:href="#r" transform="matrix(1,0,0,1,-3375,321.5) translate(0 20.444444444444443)"/><use xlink:href="#s" transform="matrix(1,0,0,1,-3435,358.5) translate(13.525000000000004 19.599999999999998)"/><use xlink:href="#t" transform="matrix(1,0,0,1,-3375,358.5) translate(0 20.488888888888887)"/><path d="M-3780 412a6 6 0 0 1 6-6h228a6 6 0 0 1 6 6v324a6 6 0 0 1-6 6h-228a6 6 0 0 1-6-6z" fill="#fff"/><path d="M-3780 412a6 6 0 0 1 6-6h228a6 6 0 0 1 6 6v324a6 6 0 0 1-6 6h-228a6 6 0 0 1-6-6zM-3780 446h240M-3697 446v296" stroke="#3a414a" stroke-width="2" fill="none"/><use xlink:href="#u" transform="matrix(1,0,0,1,-3770,406) translate(50.18518518518519 24.444444444444443)"/><use xlink:href="#b" transform="matrix(1,0,0,1,-3775,448.5) translate(21.685185185185187 20.444444444444443)"/><use xlink:href="#c" transform="matrix(1,0,0,1,-3692,448.5) translate(0 20.444444444444443)"/><use xlink:href="#v" transform="matrix(1,0,0,1,-3692,485.5) translate(0 20.444444444444443)"/><use xlink:href="#w" transform="matrix(1,0,0,1,-3692,522.5) translate(0 20.444444444444443)"/><use xlink:href="#x" transform="matrix(1,0,0,1,-3692,559.5) translate(0 20.444444444444443)"/><use xlink:href="#y" transform="matrix(1,0,0,1,-3692,596.5) translate(0 20.444444444444443)"/><use xlink:href="#z" transform="matrix(1,0,0,1,-3692,633.5) translate(0 20.444444444444443)"/><use xlink:href="#f" transform="matrix(1,0,0,1,-3775,670.5) translate(25.025 19.6)"/><use xlink:href="#A" transform="matrix(1,0,0,1,-3692,670.5) translate(0 20.488888888888887)"/><use xlink:href="#f" transform="matrix(1,0,0,1,-3775,707.5) translate(25.025 19.6)"/><use xlink:href="#B" transform="matrix(1,0,0,1,-3692,707.5) translate(0 20.488888888888887)"/><path d="M-3440 440.73a6 6 0 0 1 6-6h208a6 6 0 0 1 6 6v250a6 6 0 0 1-6 6h-208a6 6 0 0 1-6-6z" fill="#fff"/><path d="M-3440 440.73a6 6 0 0 1 6-6h208a6 6 0 0 1 6 6v250a6 6 0 0 1-6 6h-208a6 6 0 0 1-6-6zM-3440 474.73h220M-3380 474.73v222" stroke="#3a414a" stroke-width="2" fill="none"/><use xlink:href="#C" transform="matrix(1,0,0,1,-3430,434.73004366861574) translate(72.87037037037038 24.444444444444443)"/><use xlink:href="#b" transform="matrix(1,0,0,1,-3435,477.23004366861574) translate(10.185185185185187 20.444444444444443)"/><use xlink:href="#c" transform="matrix(1,0,0,1,-3375,477.23004366861574) translate(0 20.444444444444443)"/><use xlink:href="#v" transform="matrix(1,0,0,1,-3375,514.2300436686157) translate(0 20.444444444444443)"/><use xlink:href="#D" transform="matrix(1,0,0,1,-3375,551.2300436686157) translate(0 20.444444444444443)"/><use xlink:href="#w" transform="matrix(1,0,0,1,-3375,588.2300436686157) translate(0 20.444444444444443)"/><use xlink:href="#E" transform="matrix(1,0,0,1,-3375,625.2300436686157) translate(0 20.444444444444443)"/><use xlink:href="#F" transform="matrix(1,0,0,1,-3435,662.2300436686157) translate(10.833333333333336 20.444444444444443)"/><use xlink:href="#G" transform="matrix(1,0,0,1,-3375,662.2300436686157) translate(0 20.444444444444443)"/><path d="M-3519 464.5h23a6 6 0 0 1 6 6v201.73a6 6 0 0 0 6 6h24.18" stroke="#3a414a" stroke-width="2" fill="none"/><path d="M-3519 474.5v-20M-3539 464.5h20" stroke="#3a414a" stroke-width="2" fill="#fff"/><path d="M-3441.45 688.23l-20-10 20-10" stroke="#3a414a" stroke-width="2" fill="#fff" fill-opacity="0"/><path d="M-3441.45 678.23h-20" stroke="#3a414a" stroke-width="2" fill="#fff"/><path d="M-4140-114a6 6 0 0 1 6-6h288a6 6 0 0 1 6 6v102a6 6 0 0 1-6 6h-288a6 6 0 0 1-6-6z" fill="#fff"/><path d="M-4140-114a6 6 0 0 1 6-6h288a6 6 0 0 1 6 6v102a6 6 0 0 1-6 6h-288a6 6 0 0 1-6-6zM-4140-80h300M-4056-80v74" stroke="#3a414a" stroke-width="2" fill="none"/><use xlink:href="#H" transform="matrix(1,0,0,1,-4130,-120) translate(104.93827160493828 24.444444444444443)"/><use xlink:href="#I" transform="matrix(1,0,0,1,-4135,-77.5) translate(4.932098765432102 20.444444444444443)"/><use xlink:href="#J" transform="matrix(1,0,0,1,-4051.000076234568,-77.5) translate(0 20.444444444444443)"/><use xlink:href="#K" transform="matrix(1,0,0,1,-4051.000076234568,-40.5) translate(0 20.444444444444443)"/><path d="M-3179 337.5h14a6 6 0 0 0 6-6V-154a6 6 0 0 0-6-6h-1010a6 6 0 0 0-6 6v91.5a1 1 0 0 0 1 1" stroke="#3a414a" stroke-width="2" fill="none"/><path d="M-3179 347.5v-20M-3199 337.5h20M-4151-71.5v20M-4141-61.5h-20M-4161-61.5c0 5.52-4.48 10-10 10s-10-4.48-10-10 4.48-10 10-10 10 4.48 10 10" stroke="#3a414a" stroke-width="2" fill="#fff"/><path d="M-3060 240a6 6 0 0 1 6-6h188a6 6 0 0 1 6 6v139a6 6 0 0 1-6 6h-188a6 6 0 0 1-6-6z" fill="#fff"/><path d="M-3060 240a6 6 0 0 1 6-6h188a6 6 0 0 1 6 6v139a6 6 0 0 1-6 6h-188a6 6 0 0 1-6-6zM-3060 274h200M-2985.1 274v111" stroke="#3a414a" stroke-width="2" fill="none"/><use xlink:href="#L" transform="matrix(1,0,0,1,-3050,234) translate(16.018518518518547 24.444444444444443)"/><use xlink:href="#M" transform="matrix(1,0,0,1,-3055,276.5) translate(0.4320987654321016 20.444444444444443)"/><use xlink:href="#N" transform="matrix(1,0,0,1,-2980.0962480006338,276.5) translate(0 20.444444444444443)"/><use xlink:href="#M" transform="matrix(1,0,0,1,-3055,313.5) translate(0.4320987654321016 20.444444444444443)"/><use xlink:href="#O" transform="matrix(1,0,0,1,-2980.0962480006338,313.5) translate(0 20.444444444444443)"/><use xlink:href="#P" transform="matrix(1,0,0,1,-2980.0962480006338,350.5) translate(0 20.444444444444443)"/><path d="M-3180.18 78.5h44.18a6 6 0 0 1 6 6v202a6 6 0 0 0 6 6h44.18" stroke="#3a414a" stroke-width="2" fill="none"/><path d="M-3198.55 68.5l20 10-20 10" stroke="#3a414a" stroke-width="2" fill="#fff" fill-opacity="0"/><path d="M-3198.55 78.5h20" stroke="#3a414a" stroke-width="2" fill="#fff"/><path d="M-3061.45 302.5l-20-10 20-10" stroke="#3a414a" stroke-width="2" fill="#fff" fill-opacity="0"/><path d="M-3061.45 292.5h-20" stroke="#3a414a" stroke-width="2" fill="#fff"/><path d="M-3200.18 493.23h54.18a6 6 0 0 0 6-6V335.5a6 6 0 0 1 6-6h54.18" stroke="#3a414a" stroke-width="2" fill="none"/><path d="M-3218.55 483.23l20 10-20 10" stroke="#3a414a" stroke-width="2" fill="#fff" fill-opacity="0"/><path d="M-3218.55 493.23h20" stroke="#3a414a" stroke-width="2" fill="#fff"/><path d="M-3061.45 339.5l-20-10 20-10" stroke="#3a414a" stroke-width="2" fill="#fff" fill-opacity="0"/><path d="M-3061.45 329.5h-20" stroke="#3a414a" stroke-width="2" fill="#fff"/><path d="M-3519-24.5h193a6 6 0 0 1 6 6V-1" stroke="#3a414a" stroke-width="2" fill="none"/><path d="M-3519-14.5v-20M-3539-24.5h20M-3310-1h-20M-3320 19V-1" stroke="#3a414a" stroke-width="2" fill="#fff"/><path d="M-4160 111a6 6 0 0 1 6-6h208a6 6 0 0 1 6 6v213a6 6 0 0 1-6 6h-208a6 6 0 0 1-6-6z" fill="#fff"/><path d="M-4160 111a6 6 0 0 1 6-6h208a6 6 0 0 1 6 6v213a6 6 0 0 1-6 6h-208a6 6 0 0 1-6-6zM-4160 145h220M-4100 145v185" stroke="#3a414a" stroke-width="2" fill="none"/><use xlink:href="#Q" transform="matrix(1,0,0,1,-4150,105) translate(71.0493827160494 24.444444444444443)"/><use xlink:href="#R" transform="matrix(1,0,0,1,-4155,147.5) translate(10.185185185185187 20.444444444444443)"/><use xlink:href="#S" transform="matrix(1,0,0,1,-4095,147.5) translate(0 20.444444444444443)"/><use xlink:href="#T" transform="matrix(1,0,0,1,-4095,184.5) translate(0 20.444444444444443)"/><use xlink:href="#U" transform="matrix(1,0,0,1,-4095,221.5) translate(0 20.444444444444443)"/><use xlink:href="#V" transform="matrix(1,0,0,1,-4095,258.5) translate(0 20.444444444444443)"/><use xlink:href="#W" transform="matrix(1,0,0,1,-4095,295.5) translate(0 20.444444444444443)"/><path d="M-4460 186a6 6 0 0 1 6-6h188a6 6 0 0 1 6 6v102a6 6 0 0 1-6 6h-188a6 6 0 0 1-6-6z" fill="#fff"/><path d="M-4460 186a6 6 0 0 1 6-6h188a6 6 0 0 1 6 6v102a6 6 0 0 1-6 6h-188a6 6 0 0 1-6-6zM-4460 220h200M-4400 220v74" stroke="#3a414a" stroke-width="2" fill="none"/><use xlink:href="#X" transform="matrix(1,0,0,1,-4450,180) translate(44.969135802469125 24.444444444444443)"/><use xlink:href="#R" transform="matrix(1,0,0,1,-4455,222.5) translate(10.185185185185187 20.444444444444443)"/><use xlink:href="#S" transform="matrix(1,0,0,1,-4395,222.5) translate(0 20.444444444444443)"/><use xlink:href="#Y" transform="matrix(1,0,0,1,-4455,259.5) translate(10.833333333333336 20.444444444444443)"/><use xlink:href="#Z" transform="matrix(1,0,0,1,-4395,259.5) translate(0 20.444444444444443)"/><path d="M-4220 275.7h4a6 6 0 0 0 6-6V169.54a6 6 0 0 1 6-6h23" stroke="#3a414a" stroke-width="2" fill="none"/><path d="M-4258.55 265.7l20 10-20 10" stroke="#3a414a" stroke-width="2" fill="#fff" fill-opacity="0"/><path d="M-4258.55 275.7h20M-4218.55 275.7c0 5.5-4.48 10-10 10-5.53 0-10-4.5-10-10 0-5.53 4.47-10 10-10 5.52 0 10 4.47 10 10M-4181 153.55v20M-4161 163.55h-20" stroke="#3a414a" stroke-width="2" fill="#fff"/><path d="M-3919 163.55h223a6 6 0 0 1 6 6V294.5a6 6 0 0 0 6 6h223" stroke="#3a414a" stroke-width="2" fill="none"/><path d="M-3919 173.55v-20M-3939 163.55h20M-3461 290.5v20M-3441 300.5h-20" stroke="#3a414a" stroke-width="2" fill="#fff"/><path d="M-4181 163.55h-14a6 6 0 0 1-6-6V76a6 6 0 0 1 6-6h390a6 6 0 0 0 6-6V-60.5a1 1 0 0 0-1-1" stroke="#3a414a" stroke-width="2" fill="none"/><path d="M-4181 153.55v20M-4161 163.55h-20M-3829-51.5v-20M-3839-61.5h20M-3799-61.5c0 5.52-4.48 10-10 10s-10-4.48-10-10 4.48-10 10-10 10 4.48 10 10" stroke="#3a414a" stroke-width="2" fill="#fff"/><path d="M-3120-234a6 6 0 0 1 6-6h208a6 6 0 0 1 6 6v176a6 6 0 0 1-6 6h-208a6 6 0 0 1-6-6z" fill="#fff"/><path d="M-3120-234a6 6 0 0 1 6-6h208a6 6 0 0 1 6 6v176a6 6 0 0 1-6 6h-208a6 6 0 0 1-6-6zM-3120-200h220M-3060-200v148" stroke="#3a414a" fill="none"/><use xlink:href="#aa" transform="matrix(1,0,0,1,-3110,-240) translate(62.40740740740741 24.444444444444443)"/><use xlink:href="#b" transform="matrix(1,0,0,1,-3115,-197.5) translate(10.185185185185187 20.444444444444443)"/><use xlink:href="#c" transform="matrix(1,0,0,1,-3055,-197.5) translate(0 20.444444444444443)"/><use xlink:href="#ab" transform="matrix(1,0,0,1,-3055,-160.5) translate(0 20.444444444444443)"/><use xlink:href="#ac" transform="matrix(1,0,0,1,-3055,-123.5) translate(0 20.444444444444443)"/><use xlink:href="#F" transform="matrix(1,0,0,1,-3115,-86.5) translate(10.833333333333336 20.444444444444443)"/><use xlink:href="#N" transform="matrix(1,0,0,1,-3055,-86.5) translate(0 20.444444444444443)"/><path d="M-3660 386.18V169.55a6 6 0 0 0-6-6h-253" stroke="#3a414a" stroke-width="2" fill="none"/><path d="M-3670 404.55l10-20 10 20" stroke="#3a414a" stroke-width="2" fill="#fff" fill-opacity="0"/><path d="M-3660 404.55v-20M-3919 173.55v-20M-3939 163.55h20" stroke="#3a414a" stroke-width="2" fill="#fff"/><path d="M-3461 78.5h-14a6 6 0 0 1-6-6V-56.4a6 6 0 0 1 6-6h335.1" stroke="#3a414a" fill="none"/><path d="M-3461 68.5v20M-3441 78.5h-20" stroke="#3a414a" fill="#fff"/><path d="M-3120.72-52.4l-20-10 20-10" stroke="#3a414a" fill="#fff" fill-opacity="0"/><path d="M-3120.72-62.4h-20" stroke="#3a414a" fill="#fff"/><path d="M-3801 686.5h-14a6 6 0 0 1-6-6v-699a6 6 0 0 1 6-6h54" stroke="#3a414a" stroke-width="2" fill="none"/><path d="M-3801 676.5v20M-3781 686.5h-20M-3761-34.5v20M-3741-24.5h-20" stroke="#3a414a" stroke-width="2" fill="#fff"/><path d="M-4500-125a6 6 0 0 1 6-6h228a6 6 0 0 1 6 6V14a6 6 0 0 1-6 6h-228a6 6 0 0 1-6-6z" fill="#fff"/><path d="M-4500-125a6 6 0 0 1 6-6h228a6 6 0 0 1 6 6V14a6 6 0 0 1-6 6h-228a6 6 0 0 1-6-6zM-4500-91h240M-4440-91V20" stroke="#3a414a" stroke-width="2" fill="none"/><use xlink:href="#ad" transform="matrix(1,0,0,1,-4490,-131) translate(27.993827160493822 24.444444444444443)"/><use xlink:href="#ae" transform="matrix(1,0,0,1,-4495,-88.5) translate(-7.067901234567898 20.444444444444443)"/><use xlink:href="#Z" transform="matrix(1,0,0,1,-4435,-88.5) translate(0 20.444444444444443)"/><use xlink:href="#ae" transform="matrix(1,0,0,1,-4495,-51.5) translate(-7.067901234567898 20.444444444444443)"/><use xlink:href="#af" transform="matrix(1,0,0,1,-4435,-51.5) translate(0 20.444444444444443)"/><use xlink:href="#ag" transform="matrix(1,0,0,1,-4435,-14.5) translate(0 20.444444444444443)"/><path d="M-4181 163h-354a6 6 0 0 1-6-6V-66.63a6 6 0 0 1 6-6h15.18" stroke="#3a414a" stroke-width="2" fill="none"/><path d="M-4181 153v20M-4161 163h-20" stroke="#3a414a" stroke-width="2" fill="#fff"/><path d="M-4501.45-62.64l-20-10 20-10" stroke="#3a414a" stroke-width="2" fill="#fff" fill-opacity="0"/><path d="M-4501.45-72.64h-20" stroke="#3a414a" stroke-width="2" fill="#fff"/><path d="M-4239-35.33h13a6 6 0 0 1 6 6v.62a6 6 0 0 0 6 6h8a6 6 0 0 1 6 6V24a6 6 0 0 0 6 6h426a6 6 0 0 0 6-6v-93.42a6 6 0 0 0-6-6h-7a6 6 0 0 0-6 6v38.92a6 6 0 0 0 6 6h14" stroke="#3a414a" stroke-width="2" fill="none"/><path d="M-4239-25.33v-20M-4259-35.33h20M-3761-34.5v20M-3741-24.5h-20" stroke="#3a414a" stroke-width="2" fill="#fff"/><path d="M-3919 163h53a6 6 0 0 1 6 6v548.5a6 6 0 0 0 6 6h53.6" stroke="#3a414a" fill="none"/><path d="M-3919 173v-20M-3939 163h20" stroke="#3a414a" fill="#fff"/><path d="M-3781.22 733.5l-20-10 20-10" stroke="#3a414a" fill="#fff" fill-opacity="0"/><path d="M-3781.22 723.5h-20" stroke="#3a414a" fill="#fff"/><path d="M-4150 412a6 6 0 0 1 6-6h188a6 6 0 0 1 6 6v139a6 6 0 0 1-6 6h-188a6 6 0 0 1-6-6z" fill="#fff"/><path d="M-4150 412a6 6 0 0 1 6-6h188a6 6 0 0 1 6 6v139a6 6 0 0 1-6 6h-188a6 6 0 0 1-6-6zM-4150 446h200M-4090 446v111" stroke="#3a414a" fill="none"/><use xlink:href="#ah" transform="matrix(1,0,0,1,-4140,406) translate(35.7716049382716 24.444444444444443)"/><use xlink:href="#ae" transform="matrix(1,0,0,1,-4145,448.5) translate(-7.067901234567898 20.444444444444443)"/><use xlink:href="#Z" transform="matrix(1,0,0,1,-4085,448.5) translate(0 20.444444444444443)"/><use xlink:href="#Y" transform="matrix(1,0,0,1,-4145,485.5) translate(10.833333333333336 20.444444444444443)"/><use xlink:href="#ai" transform="matrix(1,0,0,1,-4085,485.5) translate(0 20.444444444444443)"/><use xlink:href="#aj" transform="matrix(1,0,0,1,-4085,522.5) translate(0 20.444444444444443)"/><path d="M-4181 163h-3a6 6 0 0 0-6 6v289.5a6 6 0 0 0 6 6h14.68" stroke="#3a414a" stroke-width="2" fill="none"/><path d="M-4181 153v20M-4161 163h-20" stroke="#3a414a" stroke-width="2" fill="#fff"/><path d="M-4150.95 474.5l-20-10 20-10" stroke="#3a414a" stroke-width="2" fill="#fff" fill-opacity="0"/><path d="M-4150.95 464.5h-20" stroke="#3a414a" stroke-width="2" fill="#fff"/><path d="M-3800 463.5V372a6 6 0 0 1 6-6h308.05a4.95 4.95 0 0 1 4.95 4.95 4.95 4.95 0 0 0 4.95 4.95h15.64" stroke="#3a414a" fill="none"/><path d="M-3800.45 453.46l-1.05 19.98M-3781 464.5l-19.97-1.05" stroke="#3a414a" fill="#fff"/><path d="M-3441.22 385.9l-20-10 20-10" stroke="#3a414a" fill="#fff" fill-opacity="0"/><path d="M-3441.22 375.9h-20" stroke="#3a414a" fill="#fff"/><defs><path fill="#3a414a" d="M205 0l-28-72H64L36 0H1l101-248h38L239 0h-34zm-38-99l-47-123c-12 45-31 82-46 123h93" id="ak"/><path fill="#3a414a" d="M85-194c31 0 48 13 60 33l-1-100h32l1 261h-30c-2-10 0-23-3-31C134-8 116 4 85 4 32 4 16-35 15-94c0-66 23-100 70-100zm9 24c-40 0-46 34-46 75 0 40 6 74 45 74 42 0 51-32 51-76 0-42-9-74-50-73" id="al"/><path fill="#3a414a" d="M114-163C36-179 61-72 57 0H25l-1-190h30c1 12-1 29 2 39 6-27 23-49 58-41v29" id="am"/><path fill="#3a414a" d="M100-194c63 0 86 42 84 106H49c0 40 14 67 53 68 26 1 43-12 49-29l28 8c-11 28-37 45-77 45C44 4 14-33 15-96c1-61 26-98 85-98zm52 81c6-60-76-77-97-28-3 7-6 17-6 28h103" id="an"/><path fill="#3a414a" d="M135-143c-3-34-86-38-87 0 15 53 115 12 119 90S17 21 10-45l28-5c4 36 97 45 98 0-10-56-113-15-118-90-4-57 82-63 122-42 12 7 21 19 24 35" id="ao"/><g id="a"><use transform="matrix(0.061728395061728385,0,0,0.061728395061728385,0,0)" xlink:href="#ak"/><use transform="matrix(0.061728395061728385,0,0,0.061728395061728385,14.814814814814813,0)" xlink:href="#al"/><use transform="matrix(0.061728395061728385,0,0,0.061728395061728385,27.16049382716049,0)" xlink:href="#al"/><use transform="matrix(0.061728395061728385,0,0,0.061728395061728385,39.50617283950616,0)" xlink:href="#am"/><use transform="matrix(0.061728395061728385,0,0,0.061728395061728385,46.85185185185184,0)" xlink:href="#an"/><use transform="matrix(0.061728395061728385,0,0,0.061728395061728385,59.19753086419752,0)" xlink:href="#ao"/><use transform="matrix(0.061728395061728385,0,0,0.061728395061728385,70.30864197530863,0)" xlink:href="#ao"/></g><path fill="#3a414a" d="M30-248c87 1 191-15 191 75 0 78-77 80-158 76V0H30v-248zm33 125c57 0 124 11 124-50 0-59-68-47-124-48v98" id="ap"/><path fill="#3a414a" d="M194 0L95-120 63-95V0H30v-248h33v124l119-124h40L117-140 236 0h-42" id="aq"/><g id="b"><use transform="matrix(0.061728395061728385,0,0,0.061728395061728385,0,0)" xlink:href="#ap"/><use transform="matrix(0.061728395061728385,0,0,0.061728395061728385,14.814814814814813,0)" xlink:href="#aq"/></g><path fill="#3a414a" d="M33 0v-248h34V0H33" id="ar"/><path fill="#3a414a" d="M30-248c118-7 216 8 213 122C240-48 200 0 122 0H30v-248zM63-27c89 8 146-16 146-99s-60-101-146-95v194" id="as"/><g id="c"><use transform="matrix(0.061728395061728385,0,0,0.061728395061728385,0,0)" xlink:href="#ar"/><use transform="matrix(0.061728395061728385,0,0,0.061728395061728385,6.1728395061728385,0)" xlink:href="#as"/></g><path fill="#3a414a" d="M30 0v-248h33v221h125V0H30" id="at"/><path fill="#3a414a" d="M141-36C126-15 110 5 73 4 37 3 15-17 15-53c-1-64 63-63 125-63 3-35-9-54-41-54-24 1-41 7-42 31l-33-3c5-37 33-52 76-52 45 0 72 20 72 64v82c-1 20 7 32 28 27v20c-31 9-61-2-59-35zM48-53c0 20 12 33 32 33 41-3 63-29 60-74-43 2-92-5-92 41" id="au"/><path fill="#3a414a" d="M59-47c-2 24 18 29 38 22v24C64 9 27 4 27-40v-127H5v-23h24l9-43h21v43h35v23H59v120" id="av"/><path fill="#3a414a" d="M24-231v-30h32v30H24zM24 0v-190h32V0H24" id="aw"/><path fill="#3a414a" d="M84 4C-5 8 30-112 23-190h32v120c0 31 7 50 39 49 72-2 45-101 50-169h31l1 190h-30c-1-10 1-25-2-33-11 22-28 36-60 37" id="ax"/><g id="d"><use transform="matrix(0.061728395061728385,0,0,0.061728395061728385,0,0)" xlink:href="#at"/><use transform="matrix(0.061728395061728385,0,0,0.061728395061728385,12.345679012345677,0)" xlink:href="#au"/><use transform="matrix(0.061728395061728385,0,0,0.061728395061728385,24.691358024691354,0)" xlink:href="#av"/><use transform="matrix(0.061728395061728385,0,0,0.061728395061728385,30.864197530864192,0)" xlink:href="#aw"/><use transform="matrix(0.061728395061728385,0,0,0.061728395061728385,35.74074074074073,0)" xlink:href="#av"/><use transform="matrix(0.061728395061728385,0,0,0.061728395061728385,41.91358024691357,0)" xlink:href="#ax"/><use transform="matrix(0.061728395061728385,0,0,0.061728395061728385,54.259259259259245,0)" xlink:href="#al"/><use transform="matrix(0.061728395061728385,0,0,0.061728395061728385,66.60493827160492,0)" xlink:href="#an"/></g><path fill="#3a414a" d="M100-194c62-1 85 37 85 99 1 63-27 99-86 99S16-35 15-95c0-66 28-99 85-99zM99-20c44 1 53-31 53-75 0-43-8-75-51-75s-53 32-53 75 10 74 51 75" id="ay"/><path fill="#3a414a" d="M177-190C167-65 218 103 67 71c-23-6-38-20-44-43l32-5c15 47 100 32 89-28v-30C133-14 115 1 83 1 29 1 15-40 15-95c0-56 16-97 71-98 29-1 48 16 59 35 1-10 0-23 2-32h30zM94-22c36 0 50-32 50-73 0-42-14-75-50-75-39 0-46 34-46 75s6 73 46 73" id="az"/><g id="e"><use transform="matrix(0.061728395061728385,0,0,0.061728395061728385,0,0)" xlink:href="#at"/><use transform="matrix(0.061728395061728385,0,0,0.061728395061728385,12.345679012345677,0)" xlink:href="#ay"/><use transform="matrix(0.061728395061728385,0,0,0.061728395061728385,24.691358024691354,0)" xlink:href="#az"/><use transform="matrix(0.061728395061728385,0,0,0.061728395061728385,37.03703703703703,0)" xlink:href="#aw"/><use transform="matrix(0.061728395061728385,0,0,0.061728395061728385,41.913580246913575,0)" xlink:href="#av"/><use transform="matrix(0.061728395061728385,0,0,0.061728395061728385,48.08641975308642,0)" xlink:href="#ax"/><use transform="matrix(0.061728395061728385,0,0,0.061728395061728385,60.432098765432094,0)" xlink:href="#al"/><use transform="matrix(0.061728395061728385,0,0,0.061728395061728385,72.77777777777777,0)" xlink:href="#an"/></g><path d="M63-220v92h138v28H63V0H30v-248h175v28H63" id="aA"/><path d="M194 0L95-120 63-95V0H30v-248h33v124l119-124h40L117-140 236 0h-42" id="aB"/><g id="f"><use transform="matrix(0.05,0,0,0.05,0,0)" xlink:href="#aA"/><use transform="matrix(0.05,0,0,0.05,10.950000000000001,0)" xlink:href="#aB"/></g><path d="M140-251c81 0 123 46 123 126C263-46 219 4 140 4 59 4 17-45 17-125s42-126 123-126zm0 227c63 0 89-41 89-101s-29-99-89-99c-61 0-89 39-89 99S79-25 140-24" id="aC"/><path d="M206 0h-36l-40-164L89 0H53L-1-190h32L70-26l43-164h34l41 164 42-164h31" id="aD"/><path d="M100-194c63 0 86 42 84 106H49c0 40 14 67 53 68 26 1 43-12 49-29l28 8c-11 28-37 45-77 45C44 4 14-33 15-96c1-61 26-98 85-98zm52 81c6-60-76-77-97-28-3 7-6 17-6 28h103" id="aE"/><path d="M117-194c89-4 53 116 60 194h-32v-121c0-31-8-49-39-48C34-167 62-67 57 0H25l-1-190h30c1 10-1 24 2 32 11-22 29-35 61-36" id="aF"/><path d="M114-163C36-179 61-72 57 0H25l-1-190h30c1 12-1 29 2 39 6-27 23-49 58-41v29" id="aG"/><g id="g"><use transform="matrix(0.05,0,0,0.05,0,0)" xlink:href="#aC"/><use transform="matrix(0.05,0,0,0.05,14,0)" xlink:href="#aD"/><use transform="matrix(0.05,0,0,0.05,26.950000000000003,0)" xlink:href="#aE"/><use transform="matrix(0.05,0,0,0.05,36.95,0)" xlink:href="#aF"/><use transform="matrix(0.05,0,0,0.05,46.95,0)" xlink:href="#aE"/><use transform="matrix(0.05,0,0,0.05,56.95,0)" xlink:href="#aG"/></g><path fill="#3a414a" d="M140-251c81 0 123 46 123 126C263-46 219 4 140 4 59 4 17-45 17-125s42-126 123-126zm0 227c63 0 89-41 89-101s-29-99-89-99c-61 0-89 39-89 99S79-25 140-24" id="aH"/><g id="h"><use transform="matrix(0.06172839506172837,0,0,0.06172839506172837,0,0)" xlink:href="#aH"/><use transform="matrix(0.06172839506172837,0,0,0.06172839506172837,17.283950617283942,0)" xlink:href="#am"/><use transform="matrix(0.06172839506172837,0,0,0.06172839506172837,24.62962962962962,0)" xlink:href="#al"/><use transform="matrix(0.06172839506172837,0,0,0.06172839506172837,36.97530864197529,0)" xlink:href="#an"/><use transform="matrix(0.06172839506172837,0,0,0.06172839506172837,49.32098765432096,0)" xlink:href="#am"/><use transform="matrix(0.06172839506172837,0,0,0.06172839506172837,56.666666666666636,0)" xlink:href="#ao"/></g><g id="i"><use transform="matrix(0.06172839506172837,0,0,0.06172839506172837,0,0)" xlink:href="#ap"/><use transform="matrix(0.06172839506172837,0,0,0.06172839506172837,14.81481481481481,0)" xlink:href="#aq"/></g><g id="j"><use transform="matrix(0.06172839506172837,0,0,0.06172839506172837,0,0)" xlink:href="#ar"/><use transform="matrix(0.06172839506172837,0,0,0.06172839506172837,6.172839506172837,0)" xlink:href="#as"/></g><path fill="#3a414a" d="M185-189c-5-48-123-54-124 2 14 75 158 14 163 119 3 78-121 87-175 55-17-10-28-26-33-46l33-7c5 56 141 63 141-1 0-78-155-14-162-118-5-82 145-84 179-34 5 7 8 16 11 25" id="aI"/><g id="k"><use transform="matrix(0.06172839506172837,0,0,0.06172839506172837,0,0)" xlink:href="#aI"/><use transform="matrix(0.06172839506172837,0,0,0.06172839506172837,14.81481481481481,0)" xlink:href="#av"/><use transform="matrix(0.06172839506172837,0,0,0.06172839506172837,20.987654320987644,0)" xlink:href="#au"/><use transform="matrix(0.06172839506172837,0,0,0.06172839506172837,33.333333333333314,0)" xlink:href="#av"/><use transform="matrix(0.06172839506172837,0,0,0.06172839506172837,39.50617283950615,0)" xlink:href="#ax"/><use transform="matrix(0.06172839506172837,0,0,0.06172839506172837,51.85185185185182,0)" xlink:href="#ao"/></g><path fill="#3a414a" d="M212-179c-10-28-35-45-73-45-59 0-87 40-87 99 0 60 29 101 89 101 43 0 62-24 78-52l27 14C228-24 195 4 139 4 59 4 22-46 18-125c-6-104 99-153 187-111 19 9 31 26 39 46" id="aJ"/><path fill="#3a414a" d="M-5 72V49h209v23H-5" id="aK"/><g id="l"><use transform="matrix(0.06172839506172837,0,0,0.06172839506172837,0,0)" xlink:href="#aJ"/><use transform="matrix(0.06172839506172837,0,0,0.06172839506172837,15.987654320987648,0)" xlink:href="#am"/><use transform="matrix(0.06172839506172837,0,0,0.06172839506172837,23.333333333333325,0)" xlink:href="#an"/><use transform="matrix(0.06172839506172837,0,0,0.06172839506172837,35.679012345679,0)" xlink:href="#au"/><use transform="matrix(0.06172839506172837,0,0,0.06172839506172837,48.02469135802467,0)" xlink:href="#av"/><use transform="matrix(0.06172839506172837,0,0,0.06172839506172837,54.1975308641975,0)" xlink:href="#an"/><use transform="matrix(0.06172839506172837,0,0,0.06172839506172837,66.54320987654317,0)" xlink:href="#al"/><use transform="matrix(0.06172839506172837,0,0,0.06172839506172837,78.88888888888884,0)" xlink:href="#aK"/><use transform="matrix(0.06172839506172837,0,0,0.06172839506172837,91.23456790123451,0)" xlink:href="#au"/><use transform="matrix(0.06172839506172837,0,0,0.06172839506172837,103.58024691358018,0)" xlink:href="#av"/></g><path fill="#3a414a" d="M127-220V0H93v-220H8v-28h204v28h-85" id="aL"/><path fill="#3a414a" d="M24 0v-261h32V0H24" id="aM"/><path fill="#3a414a" d="M210-169c-67 3-38 105-44 169h-31v-121c0-29-5-50-35-48C34-165 62-65 56 0H25l-1-190h30c1 10-1 24 2 32 10-44 99-50 107 0 11-21 27-35 58-36 85-2 47 119 55 194h-31v-121c0-29-5-49-35-48" id="aN"/><g id="m"><use transform="matrix(0.06172839506172837,0,0,0.06172839506172837,0,0)" xlink:href="#aL"/><use transform="matrix(0.06172839506172837,0,0,0.06172839506172837,11.04938271604938,0)" xlink:href="#ay"/><use transform="matrix(0.06172839506172837,0,0,0.06172839506172837,23.395061728395053,0)" xlink:href="#av"/><use transform="matrix(0.06172839506172837,0,0,0.06172839506172837,29.56790123456789,0)" xlink:href="#au"/><use transform="matrix(0.06172839506172837,0,0,0.06172839506172837,41.91358024691357,0)" xlink:href="#aM"/><use transform="matrix(0.06172839506172837,0,0,0.06172839506172837,46.79012345679011,0)" xlink:href="#aK"/><use transform="matrix(0.06172839506172837,0,0,0.06172839506172837,59.13580246913578,0)" xlink:href="#au"/><use transform="matrix(0.06172839506172837,0,0,0.06172839506172837,71.48148148148145,0)" xlink:href="#aN"/><use transform="matrix(0.06172839506172837,0,0,0.06172839506172837,89.93827160493824,0)" xlink:href="#av"/></g><path fill="#3a414a" d="M108 0H70L1-190h34L89-25l56-165h34" id="aO"/><g id="n"><use transform="matrix(0.06172839506172837,0,0,0.06172839506172837,0,0)" xlink:href="#as"/><use transform="matrix(0.06172839506172837,0,0,0.06172839506172837,15.987654320987648,0)" xlink:href="#an"/><use transform="matrix(0.06172839506172837,0,0,0.06172839506172837,28.33333333333332,0)" xlink:href="#aM"/><use transform="matrix(0.06172839506172837,0,0,0.06172839506172837,33.20987654320986,0)" xlink:href="#aw"/><use transform="matrix(0.06172839506172837,0,0,0.06172839506172837,38.0864197530864,0)" xlink:href="#aO"/><use transform="matrix(0.06172839506172837,0,0,0.06172839506172837,49.19753086419751,0)" xlink:href="#an"/><use transform="matrix(0.06172839506172837,0,0,0.06172839506172837,61.54320987654319,0)" xlink:href="#am"/><use transform="matrix(0.06172839506172837,0,0,0.06172839506172837,68.88888888888886,0)" xlink:href="#an"/><use transform="matrix(0.06172839506172837,0,0,0.06172839506172837,81.23456790123453,0)" xlink:href="#al"/><use transform="matrix(0.06172839506172837,0,0,0.06172839506172837,93.5802469135802,0)" xlink:href="#aK"/><use transform="matrix(0.06172839506172837,0,0,0.06172839506172837,105.92592592592587,0)" xlink:href="#aL"/><use transform="matrix(0.06172839506172837,0,0,0.06172839506172837,118.64197530864192,0)" xlink:href="#aw"/><use transform="matrix(0.06172839506172837,0,0,0.06172839506172837,123.51851851851846,0)" xlink:href="#aN"/><use transform="matrix(0.06172839506172837,0,0,0.06172839506172837,141.97530864197523,0)" xlink:href="#an"/></g><path fill="#3a414a" d="M63-220v92h138v28H63V0H30v-248h175v28H63" id="aP"/><g id="o"><use transform="matrix(0.06172839506172837,0,0,0.06172839506172837,0,0)" xlink:href="#aP"/><use transform="matrix(0.06172839506172837,0,0,0.06172839506172837,13.518518518518514,0)" xlink:href="#aq"/></g><g id="p"><use transform="matrix(0.06172839506172837,0,0,0.06172839506172837,0,0)" xlink:href="#aJ"/><use transform="matrix(0.06172839506172837,0,0,0.06172839506172837,15.987654320987648,0)" xlink:href="#ax"/><use transform="matrix(0.06172839506172837,0,0,0.06172839506172837,28.33333333333332,0)" xlink:href="#ao"/><use transform="matrix(0.06172839506172837,0,0,0.06172839506172837,39.44444444444443,0)" xlink:href="#av"/><use transform="matrix(0.06172839506172837,0,0,0.06172839506172837,45.617283950617264,0)" xlink:href="#ay"/><use transform="matrix(0.06172839506172837,0,0,0.06172839506172837,57.96296296296293,0)" xlink:href="#aN"/><use transform="matrix(0.06172839506172837,0,0,0.06172839506172837,76.41975308641972,0)" xlink:href="#an"/><use transform="matrix(0.06172839506172837,0,0,0.06172839506172837,88.76543209876539,0)" xlink:href="#am"/><use transform="matrix(0.06172839506172837,0,0,0.06172839506172837,96.11111111111106,0)" xlink:href="#aK"/><use transform="matrix(0.06172839506172837,0,0,0.06172839506172837,108.45679012345673,0)" xlink:href="#ar"/><use transform="matrix(0.06172839506172837,0,0,0.06172839506172837,114.62962962962956,0)" xlink:href="#as"/></g><g id="q"><use transform="matrix(0.06172839506172837,0,0,0.06172839506172837,0,0)" xlink:href="#as"/><use transform="matrix(0.06172839506172837,0,0,0.06172839506172837,15.987654320987648,0)" xlink:href="#am"/><use transform="matrix(0.06172839506172837,0,0,0.06172839506172837,23.333333333333325,0)" xlink:href="#aw"/><use transform="matrix(0.06172839506172837,0,0,0.06172839506172837,28.209876543209866,0)" xlink:href="#aO"/><use transform="matrix(0.06172839506172837,0,0,0.06172839506172837,39.32098765432097,0)" xlink:href="#an"/><use transform="matrix(0.06172839506172837,0,0,0.06172839506172837,51.66666666666664,0)" xlink:href="#am"/><use transform="matrix(0.06172839506172837,0,0,0.06172839506172837,59.01234567901232,0)" xlink:href="#aK"/><use transform="matrix(0.06172839506172837,0,0,0.06172839506172837,71.358024691358,0)" xlink:href="#ar"/><use transform="matrix(0.06172839506172837,0,0,0.06172839506172837,77.53086419753083,0)" xlink:href="#as"/></g><g id="r"><use transform="matrix(0.06172839506172837,0,0,0.06172839506172837,0,0)" xlink:href="#ak"/><use transform="matrix(0.06172839506172837,0,0,0.06172839506172837,14.81481481481481,0)" xlink:href="#al"/><use transform="matrix(0.06172839506172837,0,0,0.06172839506172837,27.160493827160483,0)" xlink:href="#al"/><use transform="matrix(0.06172839506172837,0,0,0.06172839506172837,39.506172839506156,0)" xlink:href="#am"/><use transform="matrix(0.06172839506172837,0,0,0.06172839506172837,46.85185185185183,0)" xlink:href="#an"/><use transform="matrix(0.06172839506172837,0,0,0.06172839506172837,59.1975308641975,0)" xlink:href="#ao"/><use transform="matrix(0.06172839506172837,0,0,0.06172839506172837,70.3086419753086,0)" xlink:href="#ao"/><use transform="matrix(0.06172839506172837,0,0,0.06172839506172837,81.41975308641972,0)" xlink:href="#aK"/><use transform="matrix(0.06172839506172837,0,0,0.06172839506172837,93.76543209876539,0)" xlink:href="#ar"/><use transform="matrix(0.06172839506172837,0,0,0.06172839506172837,99.93827160493822,0)" xlink:href="#as"/></g><g id="s"><use transform="matrix(0.04999999999999998,0,0,0.04999999999999998,0,0)" xlink:href="#aA"/><use transform="matrix(0.04999999999999998,0,0,0.04999999999999998,10.949999999999996,0)" xlink:href="#aB"/></g><path d="M233-177c-1 41-23 64-60 70L243 0h-38l-65-103H63V0H30v-248c88 3 205-21 203 71zM63-129c60-2 137 13 137-47 0-61-80-42-137-45v92" id="aQ"/><path d="M135-143c-3-34-86-38-87 0 15 53 115 12 119 90S17 21 10-45l28-5c4 36 97 45 98 0-10-56-113-15-118-90-4-57 82-63 122-42 12 7 21 19 24 35" id="aR"/><path d="M59-47c-2 24 18 29 38 22v24C64 9 27 4 27-40v-127H5v-23h24l9-43h21v43h35v23H59v120" id="aS"/><path d="M141-36C126-15 110 5 73 4 37 3 15-17 15-53c-1-64 63-63 125-63 3-35-9-54-41-54-24 1-41 7-42 31l-33-3c5-37 33-52 76-52 45 0 72 20 72 64v82c-1 20 7 32 28 27v20c-31 9-61-2-59-35zM48-53c0 20 12 33 32 33 41-3 63-29 60-74-43 2-92-5-92 41" id="aT"/><path d="M84 4C-5 8 30-112 23-190h32v120c0 31 7 50 39 49 72-2 45-101 50-169h31l1 190h-30c-1-10 1-25-2-33-11 22-28 36-60 37" id="aU"/><path d="M-5 72V49h209v23H-5" id="aV"/><path d="M33 0v-248h34V0H33" id="aW"/><path d="M30-248c118-7 216 8 213 122C240-48 200 0 122 0H30v-248zM63-27c89 8 146-16 146-99s-60-101-146-95v194" id="aX"/><g id="t"><use transform="matrix(0.06234567901234565,0,0,0.06234567901234565,0,0)" xlink:href="#aQ"/><use transform="matrix(0.06234567901234565,0,0,0.06234567901234565,16.147530864197524,0)" xlink:href="#aE"/><use transform="matrix(0.06234567901234565,0,0,0.06234567901234565,28.616666666666653,0)" xlink:href="#aR"/><use transform="matrix(0.06234567901234565,0,0,0.06234567901234565,39.838888888888874,0)" xlink:href="#aS"/><use transform="matrix(0.06234567901234565,0,0,0.06234567901234565,46.07345679012344,0)" xlink:href="#aT"/><use transform="matrix(0.06234567901234565,0,0,0.06234567901234565,58.54259259259257,0)" xlink:href="#aU"/><use transform="matrix(0.06234567901234565,0,0,0.06234567901234565,71.0117283950617,0)" xlink:href="#aG"/><use transform="matrix(0.06234567901234565,0,0,0.06234567901234565,78.43086419753082,0)" xlink:href="#aT"/><use transform="matrix(0.06234567901234565,0,0,0.06234567901234565,90.89999999999995,0)" xlink:href="#aF"/><use transform="matrix(0.06234567901234565,0,0,0.06234567901234565,103.36913580246907,0)" xlink:href="#aS"/><use transform="matrix(0.06234567901234565,0,0,0.06234567901234565,109.60370370370364,0)" xlink:href="#aV"/><use transform="matrix(0.06234567901234565,0,0,0.06234567901234565,122.07283950617277,0)" xlink:href="#aW"/><use transform="matrix(0.06234567901234565,0,0,0.06234567901234565,128.30740740740734,0)" xlink:href="#aX"/></g><path fill="#3a414a" d="M233-177c-1 41-23 64-60 70L243 0h-38l-65-103H63V0H30v-248c88 3 205-21 203 71zM63-129c60-2 137 13 137-47 0-61-80-42-137-45v92" id="aY"/><path fill="#3a414a" d="M117-194c89-4 53 116 60 194h-32v-121c0-31-8-49-39-48C34-167 62-67 57 0H25l-1-190h30c1 10-1 24 2 32 11-22 29-35 61-36" id="aZ"/><g id="u"><use transform="matrix(0.061728395061728385,0,0,0.061728395061728385,0,0)" xlink:href="#aY"/><use transform="matrix(0.061728395061728385,0,0,0.061728395061728385,15.987654320987652,0)" xlink:href="#an"/><use transform="matrix(0.061728395061728385,0,0,0.061728395061728385,28.33333333333333,0)" xlink:href="#ao"/><use transform="matrix(0.061728395061728385,0,0,0.061728395061728385,39.444444444444436,0)" xlink:href="#av"/><use transform="matrix(0.061728395061728385,0,0,0.061728395061728385,45.61728395061728,0)" xlink:href="#au"/><use transform="matrix(0.061728395061728385,0,0,0.061728395061728385,57.962962962962955,0)" xlink:href="#ax"/><use transform="matrix(0.061728395061728385,0,0,0.061728395061728385,70.30864197530863,0)" xlink:href="#am"/><use transform="matrix(0.061728395061728385,0,0,0.061728395061728385,77.65432098765432,0)" xlink:href="#au"/><use transform="matrix(0.061728395061728385,0,0,0.061728395061728385,90,0)" xlink:href="#aZ"/><use transform="matrix(0.061728395061728385,0,0,0.061728395061728385,102.34567901234567,0)" xlink:href="#av"/><use transform="matrix(0.061728395061728385,0,0,0.061728395061728385,108.5185185185185,0)" xlink:href="#ao"/></g><path fill="#3a414a" d="M190 0L58-211 59 0H30v-248h39L202-35l-2-213h31V0h-41" id="ba"/><g id="v"><use transform="matrix(0.061728395061728385,0,0,0.061728395061728385,0,0)" xlink:href="#ba"/><use transform="matrix(0.061728395061728385,0,0,0.061728395061728385,15.987654320987652,0)" xlink:href="#au"/><use transform="matrix(0.061728395061728385,0,0,0.061728395061728385,28.33333333333333,0)" xlink:href="#aN"/><use transform="matrix(0.061728395061728385,0,0,0.061728395061728385,46.79012345679011,0)" xlink:href="#an"/></g><path fill="#3a414a" d="M96-169c-40 0-48 33-48 73s9 75 48 75c24 0 41-14 43-38l32 2c-6 37-31 61-74 61-59 0-76-41-82-99-10-93 101-131 147-64 4 7 5 14 7 22l-32 3c-4-21-16-35-41-35" id="bb"/><path fill="#3a414a" d="M115-194c55 1 70 41 70 98S169 2 115 4C84 4 66-9 55-30l1 105H24l-1-265h31l2 30c10-21 28-34 59-34zm-8 174c40 0 45-34 45-75s-6-73-45-74c-42 0-51 32-51 76 0 43 10 73 51 73" id="bc"/><g id="w"><use transform="matrix(0.061728395061728385,0,0,0.061728395061728385,0,0)" xlink:href="#as"/><use transform="matrix(0.061728395061728385,0,0,0.061728395061728385,15.987654320987652,0)" xlink:href="#an"/><use transform="matrix(0.061728395061728385,0,0,0.061728395061728385,28.33333333333333,0)" xlink:href="#ao"/><use transform="matrix(0.061728395061728385,0,0,0.061728395061728385,39.444444444444436,0)" xlink:href="#bb"/><use transform="matrix(0.061728395061728385,0,0,0.061728395061728385,50.55555555555554,0)" xlink:href="#am"/><use transform="matrix(0.061728395061728385,0,0,0.061728395061728385,57.90123456790122,0)" xlink:href="#aw"/><use transform="matrix(0.061728395061728385,0,0,0.061728395061728385,62.777777777777764,0)" xlink:href="#bc"/><use transform="matrix(0.061728395061728385,0,0,0.061728395061728385,75.12345679012344,0)" xlink:href="#av"/><use transform="matrix(0.061728395061728385,0,0,0.061728395061728385,81.29629629629628,0)" xlink:href="#aw"/><use transform="matrix(0.061728395061728385,0,0,0.061728395061728385,86.17283950617282,0)" xlink:href="#ay"/><use transform="matrix(0.061728395061728385,0,0,0.061728395061728385,98.5185185185185,0)" xlink:href="#aZ"/></g><g id="x"><use transform="matrix(0.061728395061728385,0,0,0.061728395061728385,0,0)" xlink:href="#ap"/><use transform="matrix(0.061728395061728385,0,0,0.061728395061728385,14.814814814814813,0)" xlink:href="#aw"/><use transform="matrix(0.061728395061728385,0,0,0.061728395061728385,19.691358024691354,0)" xlink:href="#bb"/><use transform="matrix(0.061728395061728385,0,0,0.061728395061728385,30.80246913580246,0)" xlink:href="#av"/><use transform="matrix(0.061728395061728385,0,0,0.061728395061728385,36.9753086419753,0)" xlink:href="#ax"/><use transform="matrix(0.061728395061728385,0,0,0.061728395061728385,49.32098765432098,0)" xlink:href="#am"/><use transform="matrix(0.061728395061728385,0,0,0.061728395061728385,56.66666666666666,0)" xlink:href="#an"/><use transform="matrix(0.061728395061728385,0,0,0.061728395061728385,69.01234567901233,0)" xlink:href="#ao"/></g><g id="y"><use transform="matrix(0.061728395061728385,0,0,0.061728395061728385,0,0)" xlink:href="#av"/><use transform="matrix(0.061728395061728385,0,0,0.061728395061728385,6.1728395061728385,0)" xlink:href="#aw"/><use transform="matrix(0.061728395061728385,0,0,0.061728395061728385,11.049382716049381,0)" xlink:href="#aN"/><use transform="matrix(0.061728395061728385,0,0,0.061728395061728385,29.50617283950617,0)" xlink:href="#aw"/><use transform="matrix(0.061728395061728385,0,0,0.061728395061728385,34.382716049382715,0)" xlink:href="#aZ"/><use transform="matrix(0.061728395061728385,0,0,0.061728395061728385,46.72839506172839,0)" xlink:href="#az"/><use transform="matrix(0.061728395061728385,0,0,0.061728395061728385,59.07407407407407,0)" xlink:href="#ao"/></g><g id="z"><use transform="matrix(0.061728395061728385,0,0,0.061728395061728385,0,0)" xlink:href="#aw"/><use transform="matrix(0.061728395061728385,0,0,0.061728395061728385,4.876543209876543,0)" xlink:href="#ao"/><use transform="matrix(0.061728395061728385,0,0,0.061728395061728385,15.987654320987652,0)" xlink:href="#aK"/><use transform="matrix(0.061728395061728385,0,0,0.061728395061728385,28.33333333333333,0)" xlink:href="#aH"/><use transform="matrix(0.061728395061728385,0,0,0.061728395061728385,45.61728395061728,0)" xlink:href="#bc"/><use transform="matrix(0.061728395061728385,0,0,0.061728395061728385,57.962962962962955,0)" xlink:href="#an"/><use transform="matrix(0.061728395061728385,0,0,0.061728395061728385,70.30864197530863,0)" xlink:href="#aZ"/></g><path d="M205 0l-28-72H64L36 0H1l101-248h38L239 0h-34zm-38-99l-47-123c-12 45-31 82-46 123h93" id="bd"/><path d="M85-194c31 0 48 13 60 33l-1-100h32l1 261h-30c-2-10 0-23-3-31C134-8 116 4 85 4 32 4 16-35 15-94c0-66 23-100 70-100zm9 24c-40 0-46 34-46 75 0 40 6 74 45 74 42 0 51-32 51-76 0-42-9-74-50-73" id="be"/><g id="A"><use transform="matrix(0.06234567901234567,0,0,0.06234567901234567,0,0)" xlink:href="#bd"/><use transform="matrix(0.06234567901234567,0,0,0.06234567901234567,14.96296296296296,0)" xlink:href="#be"/><use transform="matrix(0.06234567901234567,0,0,0.06234567901234567,27.432098765432094,0)" xlink:href="#be"/><use transform="matrix(0.06234567901234567,0,0,0.06234567901234567,39.90123456790123,0)" xlink:href="#aG"/><use transform="matrix(0.06234567901234567,0,0,0.06234567901234567,47.32037037037036,0)" xlink:href="#aE"/><use transform="matrix(0.06234567901234567,0,0,0.06234567901234567,59.789506172839495,0)" xlink:href="#aR"/><use transform="matrix(0.06234567901234567,0,0,0.06234567901234567,71.01172839506171,0)" xlink:href="#aR"/><use transform="matrix(0.06234567901234567,0,0,0.06234567901234567,82.23395061728392,0)" xlink:href="#aV"/><use transform="matrix(0.06234567901234567,0,0,0.06234567901234567,94.70308641975305,0)" xlink:href="#aW"/><use transform="matrix(0.06234567901234567,0,0,0.06234567901234567,100.93765432098762,0)" xlink:href="#aX"/></g><g id="B"><use transform="matrix(0.06234567901234567,0,0,0.06234567901234567,0,0)" xlink:href="#aC"/><use transform="matrix(0.06234567901234567,0,0,0.06234567901234567,17.456790123456788,0)" xlink:href="#aD"/><use transform="matrix(0.06234567901234567,0,0,0.06234567901234567,33.60432098765432,0)" xlink:href="#aE"/><use transform="matrix(0.06234567901234567,0,0,0.06234567901234567,46.07345679012345,0)" xlink:href="#aF"/><use transform="matrix(0.06234567901234567,0,0,0.06234567901234567,58.542592592592584,0)" xlink:href="#aE"/><use transform="matrix(0.06234567901234567,0,0,0.06234567901234567,71.01172839506171,0)" xlink:href="#aG"/><use transform="matrix(0.06234567901234567,0,0,0.06234567901234567,78.43086419753084,0)" xlink:href="#aV"/><use transform="matrix(0.06234567901234567,0,0,0.06234567901234567,90.89999999999998,0)" xlink:href="#aW"/><use transform="matrix(0.06234567901234567,0,0,0.06234567901234567,97.13456790123455,0)" xlink:href="#aX"/></g><g id="C"><use transform="matrix(0.061728395061728385,0,0,0.061728395061728385,0,0)" xlink:href="#ar"/><use transform="matrix(0.061728395061728385,0,0,0.061728395061728385,6.1728395061728385,0)" xlink:href="#av"/><use transform="matrix(0.061728395061728385,0,0,0.061728395061728385,12.345679012345677,0)" xlink:href="#an"/><use transform="matrix(0.061728395061728385,0,0,0.061728395061728385,24.691358024691354,0)" xlink:href="#aN"/><use transform="matrix(0.061728395061728385,0,0,0.061728395061728385,43.14814814814814,0)" xlink:href="#ao"/></g><path fill="#3a414a" d="M137 0h-34L2-248h35l83 218 83-218h36" id="bf"/><g id="D"><use transform="matrix(0.061728395061728385,0,0,0.061728395061728385,0,0)" xlink:href="#bf"/><use transform="matrix(0.061728395061728385,0,0,0.061728395061728385,13.580246913580245,0)" xlink:href="#an"/><use transform="matrix(0.061728395061728385,0,0,0.061728395061728385,25.925925925925924,0)" xlink:href="#az"/><use transform="matrix(0.061728395061728385,0,0,0.061728395061728385,38.2716049382716,0)" xlink:href="#aw"/><use transform="matrix(0.061728395061728385,0,0,0.061728395061728385,43.148148148148145,0)" xlink:href="#av"/><use transform="matrix(0.061728395061728385,0,0,0.061728395061728385,49.32098765432099,0)" xlink:href="#au"/><use transform="matrix(0.061728395061728385,0,0,0.061728395061728385,61.666666666666664,0)" xlink:href="#am"/><use transform="matrix(0.061728395061728385,0,0,0.061728395061728385,69.01234567901234,0)" xlink:href="#aw"/><use transform="matrix(0.061728395061728385,0,0,0.061728395061728385,73.88888888888889,0)" xlink:href="#au"/><use transform="matrix(0.061728395061728385,0,0,0.061728395061728385,86.23456790123456,0)" xlink:href="#aZ"/></g><g id="E"><use transform="matrix(0.061728395061728385,0,0,0.061728395061728385,0,0)" xlink:href="#ap"/><use transform="matrix(0.061728395061728385,0,0,0.061728395061728385,14.814814814814813,0)" xlink:href="#am"/><use transform="matrix(0.061728395061728385,0,0,0.061728395061728385,22.16049382716049,0)" xlink:href="#aw"/><use transform="matrix(0.061728395061728385,0,0,0.061728395061728385,27.03703703703703,0)" xlink:href="#bb"/><use transform="matrix(0.061728395061728385,0,0,0.061728395061728385,38.14814814814814,0)" xlink:href="#an"/></g><g id="F"><use transform="matrix(0.061728395061728385,0,0,0.061728395061728385,0,0)" xlink:href="#aP"/><use transform="matrix(0.061728395061728385,0,0,0.061728395061728385,13.518518518518515,0)" xlink:href="#aq"/></g><g id="G"><use transform="matrix(0.061728395061728385,0,0,0.061728395061728385,0,0)" xlink:href="#aY"/><use transform="matrix(0.061728395061728385,0,0,0.061728395061728385,15.987654320987652,0)" xlink:href="#an"/><use transform="matrix(0.061728395061728385,0,0,0.061728395061728385,28.33333333333333,0)" xlink:href="#ao"/><use transform="matrix(0.061728395061728385,0,0,0.061728395061728385,39.444444444444436,0)" xlink:href="#av"/><use transform="matrix(0.061728395061728385,0,0,0.061728395061728385,45.61728395061728,0)" xlink:href="#au"/><use transform="matrix(0.061728395061728385,0,0,0.061728395061728385,57.962962962962955,0)" xlink:href="#ax"/><use transform="matrix(0.061728395061728385,0,0,0.061728395061728385,70.30864197530863,0)" xlink:href="#am"/><use transform="matrix(0.061728395061728385,0,0,0.061728395061728385,77.65432098765432,0)" xlink:href="#au"/><use transform="matrix(0.061728395061728385,0,0,0.061728395061728385,90,0)" xlink:href="#aZ"/><use transform="matrix(0.061728395061728385,0,0,0.061728395061728385,102.34567901234567,0)" xlink:href="#av"/><use transform="matrix(0.061728395061728385,0,0,0.061728395061728385,108.5185185185185,0)" xlink:href="#aK"/><use transform="matrix(0.061728395061728385,0,0,0.061728395061728385,120.86419753086417,0)" xlink:href="#ar"/><use transform="matrix(0.061728395061728385,0,0,0.061728395061728385,127.03703703703701,0)" xlink:href="#as"/></g><g id="H"><use transform="matrix(0.061728395061728385,0,0,0.061728395061728385,0,0)" xlink:href="#as"/><use transform="matrix(0.061728395061728385,0,0,0.061728395061728385,15.987654320987652,0)" xlink:href="#am"/><use transform="matrix(0.061728395061728385,0,0,0.061728395061728385,23.33333333333333,0)" xlink:href="#aw"/><use transform="matrix(0.061728395061728385,0,0,0.061728395061728385,28.209876543209873,0)" xlink:href="#aO"/><use transform="matrix(0.061728395061728385,0,0,0.061728395061728385,39.32098765432098,0)" xlink:href="#an"/><use transform="matrix(0.061728395061728385,0,0,0.061728395061728385,51.66666666666666,0)" xlink:href="#am"/><use transform="matrix(0.061728395061728385,0,0,0.061728395061728385,59.012345679012334,0)" xlink:href="#ao"/></g><path fill="#3a414a" d="M68-38c1 34 0 65-14 84H32c9-13 17-26 17-46H33v-38h35" id="bg"/><g id="I"><use transform="matrix(0.061728395061728385,0,0,0.061728395061728385,0,0)" xlink:href="#ap"/><use transform="matrix(0.061728395061728385,0,0,0.061728395061728385,14.814814814814813,0)" xlink:href="#aq"/><use transform="matrix(0.061728395061728385,0,0,0.061728395061728385,29.629629629629626,0)" xlink:href="#bg"/><use transform="matrix(0.061728395061728385,0,0,0.061728395061728385,35.80246913580247,0)" xlink:href="#aP"/><use transform="matrix(0.061728395061728385,0,0,0.061728395061728385,49.32098765432099,0)" xlink:href="#aq"/></g><g id="J"><use transform="matrix(0.061728395061728385,0,0,0.061728395061728385,0,0)" xlink:href="#ar"/><use transform="matrix(0.061728395061728385,0,0,0.061728395061728385,6.1728395061728385,0)" xlink:href="#as"/></g><path fill="#3a414a" d="M115-194c53 0 69 39 70 98 0 66-23 100-70 100C84 3 66-7 56-30L54 0H23l1-261h32v101c10-23 28-34 59-34zm-8 174c40 0 45-34 45-75 0-40-5-75-45-74-42 0-51 32-51 76 0 43 10 73 51 73" id="bh"/><g id="K"><use transform="matrix(0.061728395061728385,0,0,0.061728395061728385,0,0)" xlink:href="#aw"/><use transform="matrix(0.061728395061728385,0,0,0.061728395061728385,4.876543209876543,0)" xlink:href="#ao"/><use transform="matrix(0.061728395061728385,0,0,0.061728395061728385,15.987654320987652,0)" xlink:href="#ak"/><use transform="matrix(0.061728395061728385,0,0,0.061728395061728385,30.370370370370367,0)" xlink:href="#aO"/><use transform="matrix(0.061728395061728385,0,0,0.061728395061728385,41.481481481481474,0)" xlink:href="#au"/><use transform="matrix(0.061728395061728385,0,0,0.061728395061728385,53.82716049382715,0)" xlink:href="#aw"/><use transform="matrix(0.061728395061728385,0,0,0.061728395061728385,58.703703703703695,0)" xlink:href="#aM"/><use transform="matrix(0.061728395061728385,0,0,0.061728395061728385,63.58024691358024,0)" xlink:href="#au"/><use transform="matrix(0.061728395061728385,0,0,0.061728395061728385,75.92592592592592,0)" xlink:href="#bh"/><use transform="matrix(0.061728395061728385,0,0,0.061728395061728385,88.2716049382716,0)" xlink:href="#aM"/><use transform="matrix(0.061728395061728385,0,0,0.061728395061728385,93.14814814814814,0)" xlink:href="#an"/></g><g id="L"><use transform="matrix(0.061728395061728385,0,0,0.061728395061728385,0,0)" xlink:href="#aH"/><use transform="matrix(0.061728395061728385,0,0,0.061728395061728385,17.28395061728395,0)" xlink:href="#am"/><use transform="matrix(0.061728395061728385,0,0,0.061728395061728385,24.629629629629626,0)" xlink:href="#al"/><use transform="matrix(0.061728395061728385,0,0,0.061728395061728385,36.9753086419753,0)" xlink:href="#an"/><use transform="matrix(0.061728395061728385,0,0,0.061728395061728385,49.32098765432098,0)" xlink:href="#am"/><use transform="matrix(0.061728395061728385,0,0,0.061728395061728385,56.66666666666666,0)" xlink:href="#an"/><use transform="matrix(0.061728395061728385,0,0,0.061728395061728385,69.01234567901233,0)" xlink:href="#al"/><use transform="matrix(0.061728395061728385,0,0,0.061728395061728385,81.358024691358,0)" xlink:href="#aK"/><use transform="matrix(0.061728395061728385,0,0,0.061728395061728385,93.70370370370367,0)" xlink:href="#ar"/><use transform="matrix(0.061728395061728385,0,0,0.061728395061728385,99.8765432098765,0)" xlink:href="#av"/><use transform="matrix(0.061728395061728385,0,0,0.061728395061728385,106.04938271604934,0)" xlink:href="#an"/><use transform="matrix(0.061728395061728385,0,0,0.061728395061728385,118.395061728395,0)" xlink:href="#aN"/><use transform="matrix(0.061728395061728385,0,0,0.061728395061728385,136.8518518518518,0)" xlink:href="#ao"/></g><g id="M"><use transform="matrix(0.061728395061728385,0,0,0.061728395061728385,0,0)" xlink:href="#ap"/><use transform="matrix(0.061728395061728385,0,0,0.061728395061728385,14.814814814814813,0)" xlink:href="#aq"/><use transform="matrix(0.061728395061728385,0,0,0.061728395061728385,29.629629629629626,0)" xlink:href="#bg"/><use transform="matrix(0.061728395061728385,0,0,0.061728395061728385,35.80246913580247,0)" xlink:href="#aP"/><use transform="matrix(0.061728395061728385,0,0,0.061728395061728385,49.32098765432099,0)" xlink:href="#aq"/></g><g id="N"><use transform="matrix(0.061728395061728385,0,0,0.061728395061728385,0,0)" xlink:href="#aH"/><use transform="matrix(0.061728395061728385,0,0,0.061728395061728385,17.28395061728395,0)" xlink:href="#am"/><use transform="matrix(0.061728395061728385,0,0,0.061728395061728385,24.629629629629626,0)" xlink:href="#al"/><use transform="matrix(0.061728395061728385,0,0,0.061728395061728385,36.9753086419753,0)" xlink:href="#an"/><use transform="matrix(0.061728395061728385,0,0,0.061728395061728385,49.32098765432098,0)" xlink:href="#am"/><use transform="matrix(0.061728395061728385,0,0,0.061728395061728385,56.66666666666666,0)" xlink:href="#aK"/><use transform="matrix(0.061728395061728385,0,0,0.061728395061728385,69.01234567901233,0)" xlink:href="#ar"/><use transform="matrix(0.061728395061728385,0,0,0.061728395061728385,75.18518518518516,0)" xlink:href="#as"/></g><g id="O"><use transform="matrix(0.061728395061728385,0,0,0.061728395061728385,0,0)" xlink:href="#ar"/><use transform="matrix(0.061728395061728385,0,0,0.061728395061728385,6.1728395061728385,0)" xlink:href="#av"/><use transform="matrix(0.061728395061728385,0,0,0.061728395061728385,12.345679012345677,0)" xlink:href="#an"/><use transform="matrix(0.061728395061728385,0,0,0.061728395061728385,24.691358024691354,0)" xlink:href="#aN"/><use transform="matrix(0.061728395061728385,0,0,0.061728395061728385,43.14814814814814,0)" xlink:href="#aK"/><use transform="matrix(0.061728395061728385,0,0,0.061728395061728385,55.493827160493815,0)" xlink:href="#ar"/><use transform="matrix(0.061728395061728385,0,0,0.061728395061728385,61.66666666666666,0)" xlink:href="#as"/></g><path fill="#3a414a" d="M140-251c81 0 123 46 123 126C263-53 228-8 163 1c7 30 30 48 69 40v23c-55 16-95-15-103-61C56-3 17-48 17-125c0-80 42-126 123-126zm0 227c63 0 89-41 89-101s-29-99-89-99c-61 0-89 39-89 99S79-25 140-24" id="bi"/><path fill="#3a414a" d="M179-190L93 31C79 59 56 82 12 73V49c39 6 53-20 64-50L1-190h34L92-34l54-156h33" id="bj"/><g id="P"><use transform="matrix(0.061728395061728385,0,0,0.061728395061728385,0,0)" xlink:href="#bi"/><use transform="matrix(0.061728395061728385,0,0,0.061728395061728385,17.28395061728395,0)" xlink:href="#ax"/><use transform="matrix(0.061728395061728385,0,0,0.061728395061728385,29.629629629629626,0)" xlink:href="#au"/><use transform="matrix(0.061728395061728385,0,0,0.061728395061728385,41.9753086419753,0)" xlink:href="#aZ"/><use transform="matrix(0.061728395061728385,0,0,0.061728395061728385,54.32098765432098,0)" xlink:href="#av"/><use transform="matrix(0.061728395061728385,0,0,0.061728395061728385,60.49382716049382,0)" xlink:href="#aw"/><use transform="matrix(0.061728395061728385,0,0,0.061728395061728385,65.37037037037037,0)" xlink:href="#av"/><use transform="matrix(0.061728395061728385,0,0,0.061728395061728385,71.5432098765432,0)" xlink:href="#bj"/></g><path fill="#3a414a" d="M232-93c-1 65-40 97-104 97C67 4 28-28 28-90v-158h33c8 89-33 224 67 224 102 0 64-133 71-224h33v155" id="bk"/><g id="Q"><use transform="matrix(0.06172839506172839,0,0,0.06172839506172839,0,0)" xlink:href="#bk"/><use transform="matrix(0.06172839506172839,0,0,0.06172839506172839,15.987654320987653,0)" xlink:href="#ao"/><use transform="matrix(0.06172839506172839,0,0,0.06172839506172839,27.098765432098766,0)" xlink:href="#an"/><use transform="matrix(0.06172839506172839,0,0,0.06172839506172839,39.44444444444444,0)" xlink:href="#am"/><use transform="matrix(0.06172839506172839,0,0,0.06172839506172839,46.79012345679012,0)" xlink:href="#ao"/></g><g id="R"><use transform="matrix(0.06172839506172839,0,0,0.06172839506172839,0,0)" xlink:href="#ap"/><use transform="matrix(0.06172839506172839,0,0,0.06172839506172839,14.814814814814813,0)" xlink:href="#aq"/></g><g id="S"><use transform="matrix(0.06172839506172839,0,0,0.06172839506172839,0,0)" xlink:href="#ar"/><use transform="matrix(0.06172839506172839,0,0,0.06172839506172839,6.172839506172839,0)" xlink:href="#as"/></g><path fill="#3a414a" d="M206 0h-36l-40-164L89 0H53L-1-190h32L70-26l43-164h34l41 164 42-164h31" id="bl"/><g id="T"><use transform="matrix(0.06172839506172839,0,0,0.06172839506172839,0,0)" xlink:href="#ap"/><use transform="matrix(0.06172839506172839,0,0,0.06172839506172839,14.814814814814813,0)" xlink:href="#au"/><use transform="matrix(0.06172839506172839,0,0,0.06172839506172839,27.160493827160494,0)" xlink:href="#ao"/><use transform="matrix(0.06172839506172839,0,0,0.06172839506172839,38.27160493827161,0)" xlink:href="#ao"/><use transform="matrix(0.06172839506172839,0,0,0.06172839506172839,49.38271604938272,0)" xlink:href="#bl"/><use transform="matrix(0.06172839506172839,0,0,0.06172839506172839,65.37037037037038,0)" xlink:href="#ay"/><use transform="matrix(0.06172839506172839,0,0,0.06172839506172839,77.71604938271606,0)" xlink:href="#am"/><use transform="matrix(0.06172839506172839,0,0,0.06172839506172839,85.06172839506175,0)" xlink:href="#al"/></g><g id="U"><use transform="matrix(0.06172839506172839,0,0,0.06172839506172839,0,0)" xlink:href="#ba"/><use transform="matrix(0.06172839506172839,0,0,0.06172839506172839,15.987654320987653,0)" xlink:href="#au"/><use transform="matrix(0.06172839506172839,0,0,0.06172839506172839,28.333333333333332,0)" xlink:href="#aN"/><use transform="matrix(0.06172839506172839,0,0,0.06172839506172839,46.79012345679012,0)" xlink:href="#an"/></g><path fill="#3a414a" d="M106-169C34-169 62-67 57 0H25v-261h32l-1 103c12-21 28-36 61-36 89 0 53 116 60 194h-32v-121c2-32-8-49-39-48" id="bm"/><g id="V"><use transform="matrix(0.06172839506172839,0,0,0.06172839506172839,0,0)" xlink:href="#ap"/><use transform="matrix(0.06172839506172839,0,0,0.06172839506172839,14.814814814814813,0)" xlink:href="#bm"/><use transform="matrix(0.06172839506172839,0,0,0.06172839506172839,27.160493827160494,0)" xlink:href="#ay"/><use transform="matrix(0.06172839506172839,0,0,0.06172839506172839,39.50617283950617,0)" xlink:href="#aZ"/><use transform="matrix(0.06172839506172839,0,0,0.06172839506172839,51.85185185185185,0)" xlink:href="#an"/></g><path fill="#3a414a" d="M30 0v-248h187v28H63v79h144v27H63v87h162V0H30" id="bn"/><g id="W"><use transform="matrix(0.06172839506172839,0,0,0.06172839506172839,0,0)" xlink:href="#bn"/><use transform="matrix(0.06172839506172839,0,0,0.06172839506172839,14.814814814814813,0)" xlink:href="#aN"/><use transform="matrix(0.06172839506172839,0,0,0.06172839506172839,33.2716049382716,0)" xlink:href="#au"/><use transform="matrix(0.06172839506172839,0,0,0.06172839506172839,45.61728395061728,0)" xlink:href="#aw"/><use transform="matrix(0.06172839506172839,0,0,0.06172839506172839,50.49382716049382,0)" xlink:href="#aM"/></g><g id="X"><use transform="matrix(0.06172839506172839,0,0,0.06172839506172839,0,0)" xlink:href="#aI"/><use transform="matrix(0.06172839506172839,0,0,0.06172839506172839,14.814814814814813,0)" xlink:href="#an"/><use transform="matrix(0.06172839506172839,0,0,0.06172839506172839,27.160493827160494,0)" xlink:href="#ao"/><use transform="matrix(0.06172839506172839,0,0,0.06172839506172839,38.27160493827161,0)" xlink:href="#ao"/><use transform="matrix(0.06172839506172839,0,0,0.06172839506172839,49.38271604938272,0)" xlink:href="#aw"/><use transform="matrix(0.06172839506172839,0,0,0.06172839506172839,54.25925925925927,0)" xlink:href="#ay"/><use transform="matrix(0.06172839506172839,0,0,0.06172839506172839,66.60493827160495,0)" xlink:href="#aZ"/><use transform="matrix(0.06172839506172839,0,0,0.06172839506172839,78.95061728395063,0)" xlink:href="#ao"/></g><g id="Y"><use transform="matrix(0.06172839506172839,0,0,0.06172839506172839,0,0)" xlink:href="#aP"/><use transform="matrix(0.06172839506172839,0,0,0.06172839506172839,13.518518518518517,0)" xlink:href="#aq"/></g><g id="Z"><use transform="matrix(0.06172839506172839,0,0,0.06172839506172839,0,0)" xlink:href="#bk"/><use transform="matrix(0.06172839506172839,0,0,0.06172839506172839,15.987654320987653,0)" xlink:href="#ao"/><use transform="matrix(0.06172839506172839,0,0,0.06172839506172839,27.098765432098766,0)" xlink:href="#an"/><use transform="matrix(0.06172839506172839,0,0,0.06172839506172839,39.44444444444444,0)" xlink:href="#am"/><use transform="matrix(0.06172839506172839,0,0,0.06172839506172839,46.79012345679012,0)" xlink:href="#aK"/><use transform="matrix(0.06172839506172839,0,0,0.06172839506172839,59.1358024691358,0)" xlink:href="#ar"/><use transform="matrix(0.06172839506172839,0,0,0.06172839506172839,65.30864197530863,0)" xlink:href="#as"/></g><g id="aa"><use transform="matrix(0.061728395061728385,0,0,0.061728395061728385,0,0)" xlink:href="#aY"/><use transform="matrix(0.061728395061728385,0,0,0.061728395061728385,15.987654320987652,0)" xlink:href="#au"/><use transform="matrix(0.061728395061728385,0,0,0.061728395061728385,28.33333333333333,0)" xlink:href="#av"/><use transform="matrix(0.061728395061728385,0,0,0.061728395061728385,34.50617283950616,0)" xlink:href="#aw"/><use transform="matrix(0.061728395061728385,0,0,0.061728395061728385,39.38271604938271,0)" xlink:href="#aZ"/><use transform="matrix(0.061728395061728385,0,0,0.061728395061728385,51.728395061728385,0)" xlink:href="#az"/><use transform="matrix(0.061728395061728385,0,0,0.061728395061728385,64.07407407407406,0)" xlink:href="#ao"/></g><g id="ab"><use transform="matrix(0.061728395061728385,0,0,0.061728395061728385,0,0)" xlink:href="#aY"/><use transform="matrix(0.061728395061728385,0,0,0.061728395061728385,15.987654320987652,0)" xlink:href="#au"/><use transform="matrix(0.061728395061728385,0,0,0.061728395061728385,28.33333333333333,0)" xlink:href="#av"/><use transform="matrix(0.061728395061728385,0,0,0.061728395061728385,34.50617283950616,0)" xlink:href="#aw"/><use transform="matrix(0.061728395061728385,0,0,0.061728395061728385,39.38271604938271,0)" xlink:href="#aZ"/><use transform="matrix(0.061728395061728385,0,0,0.061728395061728385,51.728395061728385,0)" xlink:href="#az"/></g><g id="ac"><use transform="matrix(0.061728395061728385,0,0,0.061728395061728385,0,0)" xlink:href="#aY"/><use transform="matrix(0.061728395061728385,0,0,0.061728395061728385,15.987654320987652,0)" xlink:href="#an"/><use transform="matrix(0.061728395061728385,0,0,0.061728395061728385,28.33333333333333,0)" xlink:href="#aO"/><use transform="matrix(0.061728395061728385,0,0,0.061728395061728385,39.444444444444436,0)" xlink:href="#aw"/><use transform="matrix(0.061728395061728385,0,0,0.061728395061728385,44.32098765432098,0)" xlink:href="#an"/><use transform="matrix(0.061728395061728385,0,0,0.061728395061728385,56.66666666666666,0)" xlink:href="#bl"/></g><g id="ad"><use transform="matrix(0.06172839506172839,0,0,0.06172839506172839,0,0)" xlink:href="#bk"/><use transform="matrix(0.06172839506172839,0,0,0.06172839506172839,15.987654320987653,0)" xlink:href="#ao"/><use transform="matrix(0.06172839506172839,0,0,0.06172839506172839,27.098765432098766,0)" xlink:href="#an"/><use transform="matrix(0.06172839506172839,0,0,0.06172839506172839,39.44444444444444,0)" xlink:href="#am"/><use transform="matrix(0.06172839506172839,0,0,0.06172839506172839,46.79012345679012,0)" xlink:href="#aK"/><use transform="matrix(0.06172839506172839,0,0,0.06172839506172839,59.1358024691358,0)" xlink:href="#ak"/><use transform="matrix(0.06172839506172839,0,0,0.06172839506172839,73.9506172839506,0)" xlink:href="#al"/><use transform="matrix(0.06172839506172839,0,0,0.06172839506172839,86.29629629629629,0)" xlink:href="#al"/><use transform="matrix(0.06172839506172839,0,0,0.06172839506172839,98.64197530864197,0)" xlink:href="#am"/><use transform="matrix(0.06172839506172839,0,0,0.06172839506172839,105.98765432098766,0)" xlink:href="#an"/><use transform="matrix(0.06172839506172839,0,0,0.06172839506172839,118.33333333333334,0)" xlink:href="#ao"/><use transform="matrix(0.06172839506172839,0,0,0.06172839506172839,129.44444444444446,0)" xlink:href="#ao"/><use transform="matrix(0.06172839506172839,0,0,0.06172839506172839,140.55555555555557,0)" xlink:href="#an"/><use transform="matrix(0.06172839506172839,0,0,0.06172839506172839,152.90123456790124,0)" xlink:href="#ao"/></g><g id="ae"><use transform="matrix(0.06172839506172839,0,0,0.06172839506172839,0,0)" xlink:href="#ap"/><use transform="matrix(0.06172839506172839,0,0,0.06172839506172839,14.814814814814813,0)" xlink:href="#aq"/><use transform="matrix(0.06172839506172839,0,0,0.06172839506172839,29.629629629629626,0)" xlink:href="#bg"/><use transform="matrix(0.06172839506172839,0,0,0.06172839506172839,35.80246913580247,0)" xlink:href="#aP"/><use transform="matrix(0.06172839506172839,0,0,0.06172839506172839,49.32098765432099,0)" xlink:href="#aq"/></g><g id="af"><use transform="matrix(0.06172839506172839,0,0,0.06172839506172839,0,0)" xlink:href="#ak"/><use transform="matrix(0.06172839506172839,0,0,0.06172839506172839,14.814814814814813,0)" xlink:href="#al"/><use transform="matrix(0.06172839506172839,0,0,0.06172839506172839,27.160493827160494,0)" xlink:href="#al"/><use transform="matrix(0.06172839506172839,0,0,0.06172839506172839,39.50617283950617,0)" xlink:href="#am"/><use transform="matrix(0.06172839506172839,0,0,0.06172839506172839,46.85185185185185,0)" xlink:href="#an"/><use transform="matrix(0.06172839506172839,0,0,0.06172839506172839,59.197530864197525,0)" xlink:href="#ao"/><use transform="matrix(0.06172839506172839,0,0,0.06172839506172839,70.30864197530863,0)" xlink:href="#ao"/><use transform="matrix(0.06172839506172839,0,0,0.06172839506172839,81.41975308641975,0)" xlink:href="#aK"/><use transform="matrix(0.06172839506172839,0,0,0.06172839506172839,93.76543209876543,0)" xlink:href="#ar"/><use transform="matrix(0.06172839506172839,0,0,0.06172839506172839,99.93827160493827,0)" xlink:href="#as"/></g><g id="ag"><use transform="matrix(0.06172839506172839,0,0,0.06172839506172839,0,0)" xlink:href="#aL"/><use transform="matrix(0.06172839506172839,0,0,0.06172839506172839,12.28395061728395,0)" xlink:href="#bj"/><use transform="matrix(0.06172839506172839,0,0,0.06172839506172839,23.39506172839506,0)" xlink:href="#bc"/><use transform="matrix(0.06172839506172839,0,0,0.06172839506172839,35.74074074074074,0)" xlink:href="#an"/></g><g id="ah"><use transform="matrix(0.06172839506172839,0,0,0.06172839506172839,0,0)" xlink:href="#aJ"/><use transform="matrix(0.06172839506172839,0,0,0.06172839506172839,15.987654320987653,0)" xlink:href="#au"/><use transform="matrix(0.06172839506172839,0,0,0.06172839506172839,28.333333333333332,0)" xlink:href="#am"/><use transform="matrix(0.06172839506172839,0,0,0.06172839506172839,35.67901234567901,0)" xlink:href="#av"/><use transform="matrix(0.06172839506172839,0,0,0.06172839506172839,41.851851851851855,0)" xlink:href="#aK"/><use transform="matrix(0.06172839506172839,0,0,0.06172839506172839,54.19753086419753,0)" xlink:href="#ar"/><use transform="matrix(0.06172839506172839,0,0,0.06172839506172839,60.370370370370374,0)" xlink:href="#av"/><use transform="matrix(0.06172839506172839,0,0,0.06172839506172839,66.54320987654322,0)" xlink:href="#an"/><use transform="matrix(0.06172839506172839,0,0,0.06172839506172839,78.8888888888889,0)" xlink:href="#aN"/><use transform="matrix(0.06172839506172839,0,0,0.06172839506172839,97.34567901234568,0)" xlink:href="#ao"/></g><g id="ai"><use transform="matrix(0.06172839506172839,0,0,0.06172839506172839,0,0)" xlink:href="#ar"/><use transform="matrix(0.06172839506172839,0,0,0.06172839506172839,6.172839506172839,0)" xlink:href="#av"/><use transform="matrix(0.06172839506172839,0,0,0.06172839506172839,12.345679012345679,0)" xlink:href="#an"/><use transform="matrix(0.06172839506172839,0,0,0.06172839506172839,24.691358024691358,0)" xlink:href="#aN"/><use transform="matrix(0.06172839506172839,0,0,0.06172839506172839,43.148148148148145,0)" xlink:href="#aK"/><use transform="matrix(0.06172839506172839,0,0,0.06172839506172839,55.49382716049382,0)" xlink:href="#ar"/><use transform="matrix(0.06172839506172839,0,0,0.06172839506172839,61.666666666666664,0)" xlink:href="#as"/></g><g id="aj"><use transform="matrix(0.06172839506172839,0,0,0.06172839506172839,0,0)" xlink:href="#bi"/><use transform="matrix(0.06172839506172839,0,0,0.06172839506172839,17.28395061728395,0)" xlink:href="#ax"/><use transform="matrix(0.06172839506172839,0,0,0.06172839506172839,29.629629629629626,0)" xlink:href="#au"/><use transform="matrix(0.06172839506172839,0,0,0.06172839506172839,41.9753086419753,0)" xlink:href="#aZ"/><use transform="matrix(0.06172839506172839,0,0,0.06172839506172839,54.32098765432098,0)" xlink:href="#av"/><use transform="matrix(0.06172839506172839,0,0,0.06172839506172839,60.49382716049382,0)" xlink:href="#aw"/><use transform="matrix(0.06172839506172839,0,0,0.06172839506172839,65.37037037037037,0)" xlink:href="#av"/><use transform="matrix(0.06172839506172839,0,0,0.06172839506172839,71.5432098765432,0)" xlink:href="#bj"/></g></defs></g></svg>