<svg xmlns="http://www.w3.org/2000/svg" xmlns:xlink="http://www.w3.org/1999/xlink"
    xmlns:lucid="lucid" width="1640" height="927">
    <g transform="translate(4480 260)" lucid:page-tab-id="0_0">
        <path d="M-4500-500h2000v1500h-2000z" fill="#fff" />
        <path d="M-3740-77a6 6 0 0 1 6-6h188a6 6 0 0 1 6 6v213a6 6 0 0 1-6 6h-188a6 6 0 0 1-6-6z"
            fill="#fff" />
        <path
            d="M-3740-77a6 6 0 0 1 6-6h188a6 6 0 0 1 6 6v213a6 6 0 0 1-6 6h-188a6 6 0 0 1-6-6zM-3740-43h200M-3680-43v185"
            stroke="#3a414a" stroke-width="2" fill="none" />
        <use xlink:href="#a"
            transform="matrix(1,0,0,1,-3730,-83) translate(49.29012345679013 24.444444444444443)" />
        <use xlink:href="#b"
            transform="matrix(1,0,0,1,-3735,-40.5) translate(10.185185185185187 20.444444444444443)" />
        <use xlink:href="#c" transform="matrix(1,0,0,1,-3675,-40.5) translate(0 20.444444444444443)" />
        <use xlink:href="#a" transform="matrix(1,0,0,1,-3675,-3.5) translate(0 20.444444444444443)" />
        <use xlink:href="#d" transform="matrix(1,0,0,1,-3675,33.5) translate(0 20.444444444444443)" />
        <use xlink:href="#e" transform="matrix(1,0,0,1,-3675,70.5) translate(0 20.444444444444443)" />
        <use xlink:href="#f"
            transform="matrix(1,0,0,1,-3735,107.5) translate(10.833333333333336 20.444444444444443)" />
        <use xlink:href="#g" transform="matrix(1,0,0,1,-3675,107.5) translate(0 20.444444444444443)" />
        <path d="M-3440 26a6 6 0 0 1 6-6h228a6 6 0 0 1 6 6v324a6 6 0 0 1-6 6h-228a6 6 0 0 1-6-6z"
            fill="#fff" />
        <path
            d="M-3440 26a6 6 0 0 1 6-6h228a6 6 0 0 1 6 6v324a6 6 0 0 1-6 6h-228a6 6 0 0 1-6-6zM-3440 60h240M-3380 60v296"
            stroke="#3a414a" stroke-width="2" fill="none" />
        <use xlink:href="#h"
            transform="matrix(1,0,0,1,-3430,20) translate(76.11111111111111 24.444444444444443)" />
        <use xlink:href="#b"
            transform="matrix(1,0,0,1,-3435,62.5) translate(10.185185185185187 20.444444444444443)" />
        <use xlink:href="#c" transform="matrix(1,0,0,1,-3375,62.5) translate(0 20.444444444444443)" />
        <use xlink:href="#i" transform="matrix(1,0,0,1,-3375,99.5) translate(0 20.444444444444443)" />
        <use xlink:href="#j" transform="matrix(1,0,0,1,-3375,136.5) translate(0 20.444444444444443)" />
        <use xlink:href="#k" transform="matrix(1,0,0,1,-3375,173.5) translate(0 20.444444444444443)" />
        <use xlink:href="#l" transform="matrix(1,0,0,1,-3375,210.5) translate(0 20.444444444444443)" />
        <use xlink:href="#f"
            transform="matrix(1,0,0,1,-3435,247.5) translate(10.833333333333336 20.444444444444443)" />
        <use xlink:href="#g" transform="matrix(1,0,0,1,-3375,247.5) translate(0 20.444444444444443)" />
        <use xlink:href="#f"
            transform="matrix(1,0,0,1,-3435,284.5) translate(10.833333333333336 20.444444444444443)" />
        <use xlink:href="#m" transform="matrix(1,0,0,1,-3375,284.5) translate(0 20.444444444444443)" />
        <use xlink:href="#f"
            transform="matrix(1,0,0,1,-3435,321.5) translate(10.833333333333336 20.444444444444443)" />
        <use xlink:href="#n" transform="matrix(1,0,0,1,-3375,321.5) translate(0 20.444444444444443)" />
        <path
            d="M-3780 362.27a6 6 0 0 1 6-6h208a6 6 0 0 1 6 6v250a6 6 0 0 1-6 6h-208a6 6 0 0 1-6-6z"
            fill="#fff" />
        <path
            d="M-3780 362.27a6 6 0 0 1 6-6h208a6 6 0 0 1 6 6v250a6 6 0 0 1-6 6h-208a6 6 0 0 1-6-6zM-3780 396.27h220M-3697 396.27v222"
            stroke="#3a414a" stroke-width="2" fill="none" />
        <use xlink:href="#o"
            transform="matrix(1,0,0,1,-3770,356.26995633138426) translate(40.18518518518519 24.444444444444443)" />
        <use xlink:href="#b"
            transform="matrix(1,0,0,1,-3775,398.76995633138426) translate(21.685185185185187 20.444444444444443)" />
        <use xlink:href="#c"
            transform="matrix(1,0,0,1,-3692,398.76995633138426) translate(0 20.444444444444443)" />
        <use xlink:href="#p"
            transform="matrix(1,0,0,1,-3692,435.76995633138426) translate(0 20.444444444444443)" />
        <use xlink:href="#q"
            transform="matrix(1,0,0,1,-3692,472.76995633138426) translate(0 20.444444444444443)" />
        <use xlink:href="#r"
            transform="matrix(1,0,0,1,-3692,509.76995633138426) translate(0 20.444444444444443)" />
        <use xlink:href="#f"
            transform="matrix(1,0,0,1,-3775,546.7699563313843) translate(22.333333333333336 20.444444444444443)" />
        <use xlink:href="#s"
            transform="matrix(1,0,0,1,-3692,546.7699563313843) translate(0 20.444444444444443)" />
        <use xlink:href="#f"
            transform="matrix(1,0,0,1,-3775,583.7699563313843) translate(22.333333333333336 20.444444444444443)" />
        <use xlink:href="#t"
            transform="matrix(1,0,0,1,-3692,583.7699563313843) translate(0 20.444444444444443)" />
        <path d="M-3440 391a6 6 0 0 1 6-6h208a6 6 0 0 1 6 6v250a6 6 0 0 1-6 6h-208a6 6 0 0 1-6-6z"
            fill="#fff" />
        <path
            d="M-3440 391a6 6 0 0 1 6-6h208a6 6 0 0 1 6 6v250a6 6 0 0 1-6 6h-208a6 6 0 0 1-6-6zM-3440 425h220M-3380 425v222"
            stroke="#3a414a" stroke-width="2" fill="none" />
        <use xlink:href="#u"
            transform="matrix(1,0,0,1,-3430,385) translate(72.87037037037038 24.444444444444443)" />
        <use xlink:href="#b"
            transform="matrix(1,0,0,1,-3435,427.5) translate(10.185185185185187 20.444444444444443)" />
        <use xlink:href="#c" transform="matrix(1,0,0,1,-3375,427.5) translate(0 20.444444444444443)" />
        <use xlink:href="#v" transform="matrix(1,0,0,1,-3375,464.5) translate(0 20.444444444444443)" />
        <use xlink:href="#w" transform="matrix(1,0,0,1,-3375,501.5) translate(0 20.444444444444443)" />
        <use xlink:href="#p" transform="matrix(1,0,0,1,-3375,538.5) translate(0 20.444444444444443)" />
        <use xlink:href="#x" transform="matrix(1,0,0,1,-3375,575.5) translate(0 20.444444444444443)" />
        <use xlink:href="#f"
            transform="matrix(1,0,0,1,-3435,612.5) translate(10.833333333333336 20.444444444444443)" />
        <use xlink:href="#y" transform="matrix(1,0,0,1,-3375,612.5) translate(0 20.444444444444443)" />
        <path d="M-3539 414.77h33a6 6 0 0 1 6 6V622.5a6 6 0 0 0 6 6h34.18" stroke="#3a414a"
            stroke-width="2" fill="none" />
        <path d="M-3539 424.77v-20M-3559 414.77h20" stroke="#3a414a" stroke-width="2" fill="#fff" />
        <path d="M-3441.45 638.5l-20-10 20-10" stroke="#3a414a" stroke-width="2" fill="#fff"
            fill-opacity="0" />
        <path d="M-3441.45 628.5h-20" stroke="#3a414a" stroke-width="2" fill="#fff" />
        <path d="M-4140-114a6 6 0 0 1 6-6h288a6 6 0 0 1 6 6v102a6 6 0 0 1-6 6h-288a6 6 0 0 1-6-6z"
            fill="#fff" />
        <path
            d="M-4140-114a6 6 0 0 1 6-6h288a6 6 0 0 1 6 6v102a6 6 0 0 1-6 6h-288a6 6 0 0 1-6-6zM-4140-80h300M-4056-80v74"
            stroke="#3a414a" stroke-width="2" fill="none" />
        <use xlink:href="#z"
            transform="matrix(1,0,0,1,-4130,-120) translate(104.93827160493828 24.444444444444443)" />
        <use xlink:href="#A"
            transform="matrix(1,0,0,1,-4135,-77.5) translate(4.932098765432102 20.444444444444443)" />
        <use xlink:href="#B"
            transform="matrix(1,0,0,1,-4051.000076234568,-77.5) translate(0 20.444444444444443)" />
        <use xlink:href="#C"
            transform="matrix(1,0,0,1,-4051.000076234568,-40.5) translate(0 20.444444444444443)" />
        <path
            d="M-3179 337.5h14a6 6 0 0 0 6-6V-154a6 6 0 0 0-6-6h-1010a6 6 0 0 0-6 6v91.5a1 1 0 0 0 1 1"
            stroke="#3a414a" stroke-width="2" fill="none" />
        <path
            d="M-3179 347.5v-20M-3199 337.5h20M-4151-71.5v20M-4141-61.5h-20M-4161-61.5c0 5.52-4.48 10-10 10s-10-4.48-10-10 4.48-10 10-10 10 4.48 10 10"
            stroke="#3a414a" stroke-width="2" fill="#fff" />
        <path d="M-3060 240a6 6 0 0 1 6-6h188a6 6 0 0 1 6 6v139a6 6 0 0 1-6 6h-188a6 6 0 0 1-6-6z"
            fill="#fff" />
        <path
            d="M-3060 240a6 6 0 0 1 6-6h188a6 6 0 0 1 6 6v139a6 6 0 0 1-6 6h-188a6 6 0 0 1-6-6zM-3060 274h200M-2985.1 274v111"
            stroke="#3a414a" stroke-width="2" fill="none" />
        <use xlink:href="#D"
            transform="matrix(1,0,0,1,-3050,234) translate(16.018518518518547 24.444444444444443)" />
        <use xlink:href="#E"
            transform="matrix(1,0,0,1,-3055,276.5) translate(0.4320987654321016 20.444444444444443)" />
        <use xlink:href="#F"
            transform="matrix(1,0,0,1,-2980.0962480006338,276.5) translate(0 20.444444444444443)" />
        <use xlink:href="#E"
            transform="matrix(1,0,0,1,-3055,313.5) translate(0.4320987654321016 20.444444444444443)" />
        <use xlink:href="#G"
            transform="matrix(1,0,0,1,-2980.0962480006338,313.5) translate(0 20.444444444444443)" />
        <use xlink:href="#H"
            transform="matrix(1,0,0,1,-2980.0962480006338,350.5) translate(0 20.444444444444443)" />
        <path d="M-3180.18 78.5h44.18a6 6 0 0 1 6 6v202a6 6 0 0 0 6 6h44.18" stroke="#3a414a"
            stroke-width="2" fill="none" />
        <path d="M-3198.55 68.5l20 10-20 10" stroke="#3a414a" stroke-width="2" fill="#fff"
            fill-opacity="0" />
        <path d="M-3198.55 78.5h20" stroke="#3a414a" stroke-width="2" fill="#fff" />
        <path d="M-3061.45 302.5l-20-10 20-10" stroke="#3a414a" stroke-width="2" fill="#fff"
            fill-opacity="0" />
        <path d="M-3061.45 292.5h-20" stroke="#3a414a" stroke-width="2" fill="#fff" />
        <path d="M-3200.18 443.5h54.18a6 6 0 0 0 6-6v-102a6 6 0 0 1 6-6h54.18" stroke="#3a414a"
            stroke-width="2" fill="none" />
        <path d="M-3218.55 433.5l20 10-20 10" stroke="#3a414a" stroke-width="2" fill="#fff"
            fill-opacity="0" />
        <path d="M-3218.55 443.5h20" stroke="#3a414a" stroke-width="2" fill="#fff" />
        <path d="M-3061.45 339.5l-20-10 20-10" stroke="#3a414a" stroke-width="2" fill="#fff"
            fill-opacity="0" />
        <path d="M-3061.45 329.5h-20" stroke="#3a414a" stroke-width="2" fill="#fff" />
        <path d="M-3519-24.5h193a6 6 0 0 1 6 6V-1" stroke="#3a414a" stroke-width="2" fill="none" />
        <path d="M-3519-14.5v-20M-3539-24.5h20M-3310-1h-20M-3320 19V-1" stroke="#3a414a"
            stroke-width="2" fill="#fff" />
        <path
            d="M-4160 137.27a6 6 0 0 1 6-6h188a6 6 0 0 1 6 6v213a6 6 0 0 1-6 6h-188a6 6 0 0 1-6-6z"
            fill="#fff" />
        <path
            d="M-4160 137.27a6 6 0 0 1 6-6h188a6 6 0 0 1 6 6v213a6 6 0 0 1-6 6h-188a6 6 0 0 1-6-6zM-4160 171.27h200M-4100 171.27v185"
            stroke="#3a414a" stroke-width="2" fill="none" />
        <use xlink:href="#I"
            transform="matrix(1,0,0,1,-4150,131.2699563313843) translate(61.04938271604939 24.444444444444443)" />
        <use xlink:href="#J"
            transform="matrix(1,0,0,1,-4155,173.7699563313843) translate(10.185185185185187 20.444444444444443)" />
        <use xlink:href="#K"
            transform="matrix(1,0,0,1,-4095,173.7699563313843) translate(0 20.444444444444443)" />
        <use xlink:href="#L"
            transform="matrix(1,0,0,1,-4095,210.7699563313843) translate(0 20.444444444444443)" />
        <use xlink:href="#M"
            transform="matrix(1,0,0,1,-4095,247.7699563313843) translate(0 20.444444444444443)" />
        <use xlink:href="#N"
            transform="matrix(1,0,0,1,-4095,284.76995633138426) translate(0 20.444444444444443)" />
        <use xlink:href="#O"
            transform="matrix(1,0,0,1,-4095,321.76995633138426) translate(0 20.444444444444443)" />
        <path d="M-4460 186a6 6 0 0 1 6-6h188a6 6 0 0 1 6 6v102a6 6 0 0 1-6 6h-188a6 6 0 0 1-6-6z"
            fill="#fff" />
        <path
            d="M-4460 186a6 6 0 0 1 6-6h188a6 6 0 0 1 6 6v102a6 6 0 0 1-6 6h-188a6 6 0 0 1-6-6zM-4460 220h200M-4400 220v74"
            stroke="#3a414a" stroke-width="2" fill="none" />
        <use xlink:href="#P"
            transform="matrix(1,0,0,1,-4450,180) translate(44.969135802469125 24.444444444444443)" />
        <use xlink:href="#J"
            transform="matrix(1,0,0,1,-4455,222.5) translate(10.185185185185187 20.444444444444443)" />
        <use xlink:href="#K" transform="matrix(1,0,0,1,-4395,222.5) translate(0 20.444444444444443)" />
        <use xlink:href="#Q"
            transform="matrix(1,0,0,1,-4455,259.5) translate(10.833333333333336 20.444444444444443)" />
        <use xlink:href="#R" transform="matrix(1,0,0,1,-4395,259.5) translate(0 20.444444444444443)" />
        <path d="M-4220 275.7h4a6 6 0 0 0 6-6v-74.2a6 6 0 0 1 6-6h23" stroke="#3a414a"
            stroke-width="2" fill="none" />
        <path d="M-4258.55 265.7l20 10-20 10" stroke="#3a414a" stroke-width="2" fill="#fff"
            fill-opacity="0" />
        <path
            d="M-4258.55 275.7h20M-4218.55 275.7c0 5.5-4.48 10-10 10-5.53 0-10-4.5-10-10 0-5.53 4.47-10 10-10 5.52 0 10 4.47 10 10M-4181 179.5v20M-4161 189.5h-20"
            stroke="#3a414a" stroke-width="2" fill="#fff" />
        <path d="M-3939 189.23h233a6 6 0 0 1 6 6v99.27a6 6 0 0 0 6 6h233" stroke="#3a414a"
            stroke-width="2" fill="none" />
        <path d="M-3939 199.23v-20M-3959 189.23h20M-3461 290.5v20M-3441 300.5h-20" stroke="#3a414a"
            stroke-width="2" fill="#fff" />
        <path d="M-3759.82 123.5H-3844a6 6 0 0 0-6 6v53.73a6 6 0 0 1-6 6h-83" stroke="#3a414a"
            stroke-width="2" fill="none" />
        <path d="M-3741.45 133.5l-20-10 20-10" stroke="#3a414a" stroke-width="2" fill="#fff"
            fill-opacity="0" />
        <path d="M-3741.45 123.5h-20M-3939 199.23v-20M-3959 189.23h20" stroke="#3a414a"
            stroke-width="2" fill="#fff" />
        <path
            d="M-4181 189.23h-14a6 6 0 0 1-6-6V68.63a6 6 0 0 1 6-6h390a6 6 0 0 0 6-6V-60.5a1 1 0 0 0-1-1"
            stroke="#3a414a" stroke-width="2" fill="none" />
        <path
            d="M-4181 179.23v20M-4161 189.23h-20M-3829-51.5v-20M-3839-61.5h20M-3799-61.5c0 5.52-4.48 10-10 10s-10-4.48-10-10 4.48-10 10-10 10 4.48 10 10"
            stroke="#3a414a" stroke-width="2" fill="#fff" />
        <path d="M-3120-234a6 6 0 0 1 6-6h208a6 6 0 0 1 6 6v176a6 6 0 0 1-6 6h-208a6 6 0 0 1-6-6z"
            fill="#fff" />
        <path
            d="M-3120-234a6 6 0 0 1 6-6h208a6 6 0 0 1 6 6v176a6 6 0 0 1-6 6h-208a6 6 0 0 1-6-6zM-3120-200h220M-3060-200v148"
            stroke="#3a414a" fill="none" />
        <use xlink:href="#S"
            transform="matrix(1,0,0,1,-3110,-240) translate(62.40740740740741 24.444444444444443)" />
        <use xlink:href="#b"
            transform="matrix(1,0,0,1,-3115,-197.5) translate(10.185185185185187 20.444444444444443)" />
        <use xlink:href="#c"
            transform="matrix(1,0,0,1,-3055,-197.5) translate(0 20.444444444444443)" />
        <use xlink:href="#T"
            transform="matrix(1,0,0,1,-3055,-160.5) translate(0 20.444444444444443)" />
        <use xlink:href="#U"
            transform="matrix(1,0,0,1,-3055,-123.5) translate(0 20.444444444444443)" />
        <use xlink:href="#f"
            transform="matrix(1,0,0,1,-3115,-86.5) translate(10.833333333333336 20.444444444444443)" />
        <use xlink:href="#F" transform="matrix(1,0,0,1,-3055,-86.5) translate(0 20.444444444444443)" />
        <path d="M-3670 336.45V195.23a6 6 0 0 0-6-6h-263" stroke="#3a414a" stroke-width="2"
            fill="none" />
        <path d="M-3680 354.82l10-20 10 20" stroke="#3a414a" stroke-width="2" fill="#fff"
            fill-opacity="0" />
        <path d="M-3670 354.82v-20M-3939 199.23v-20M-3959 189.23h20" stroke="#3a414a"
            stroke-width="2" fill="#fff" />
        <path d="M-3461 77.6h-14a6 6 0 0 1-6-6v-128a6 6 0 0 1 6-6h335.1" stroke="#3a414a"
            fill="none" />
        <path d="M-3461 67.6v20M-3441 77.6h-20" stroke="#3a414a" fill="#fff" />
        <path d="M-3120.72-52.4l-20-10 20-10" stroke="#3a414a" fill="#fff" fill-opacity="0" />
        <path d="M-3120.72-62.4h-20" stroke="#3a414a" fill="#fff" />
        <path d="M-3801 599.77h-14a6 6 0 0 1-6-6v-612.8a6 6 0 0 1 6-6h54" stroke="#3a414a"
            stroke-width="2" fill="none" />
        <path d="M-3801 589.77v20M-3781 599.77h-20M-3761-35.04v20M-3741-25.04h-20" stroke="#3a414a"
            stroke-width="2" fill="#fff" />
        <defs>
            <path fill="#3a414a"
                d="M205 0l-28-72H64L36 0H1l101-248h38L239 0h-34zm-38-99l-47-123c-12 45-31 82-46 123h93"
                id="V" />
            <path fill="#3a414a"
                d="M85-194c31 0 48 13 60 33l-1-100h32l1 261h-30c-2-10 0-23-3-31C134-8 116 4 85 4 32 4 16-35 15-94c0-66 23-100 70-100zm9 24c-40 0-46 34-46 75 0 40 6 74 45 74 42 0 51-32 51-76 0-42-9-74-50-73"
                id="W" />
            <path fill="#3a414a"
                d="M114-163C36-179 61-72 57 0H25l-1-190h30c1 12-1 29 2 39 6-27 23-49 58-41v29"
                id="X" />
            <path fill="#3a414a"
                d="M100-194c63 0 86 42 84 106H49c0 40 14 67 53 68 26 1 43-12 49-29l28 8c-11 28-37 45-77 45C44 4 14-33 15-96c1-61 26-98 85-98zm52 81c6-60-76-77-97-28-3 7-6 17-6 28h103"
                id="Y" />
            <path fill="#3a414a"
                d="M135-143c-3-34-86-38-87 0 15 53 115 12 119 90S17 21 10-45l28-5c4 36 97 45 98 0-10-56-113-15-118-90-4-57 82-63 122-42 12 7 21 19 24 35"
                id="Z" />
            <g id="a">
                <use transform="matrix(0.061728395061728385,0,0,0.061728395061728385,0,0)"
                    xlink:href="#V" />
                <use
                    transform="matrix(0.061728395061728385,0,0,0.061728395061728385,14.814814814814813,0)"
                    xlink:href="#W" />
                <use
                    transform="matrix(0.061728395061728385,0,0,0.061728395061728385,27.16049382716049,0)"
                    xlink:href="#W" />
                <use
                    transform="matrix(0.061728395061728385,0,0,0.061728395061728385,39.50617283950616,0)"
                    xlink:href="#X" />
                <use
                    transform="matrix(0.061728395061728385,0,0,0.061728395061728385,46.85185185185184,0)"
                    xlink:href="#Y" />
                <use
                    transform="matrix(0.061728395061728385,0,0,0.061728395061728385,59.19753086419752,0)"
                    xlink:href="#Z" />
                <use
                    transform="matrix(0.061728395061728385,0,0,0.061728395061728385,70.30864197530863,0)"
                    xlink:href="#Z" />
            </g>
            <path fill="#3a414a"
                d="M30-248c87 1 191-15 191 75 0 78-77 80-158 76V0H30v-248zm33 125c57 0 124 11 124-50 0-59-68-47-124-48v98"
                id="aa" />
            <path fill="#3a414a"
                d="M194 0L95-120 63-95V0H30v-248h33v124l119-124h40L117-140 236 0h-42" id="ab" />
            <g id="b">
                <use transform="matrix(0.061728395061728385,0,0,0.061728395061728385,0,0)"
                    xlink:href="#aa" />
                <use
                    transform="matrix(0.061728395061728385,0,0,0.061728395061728385,14.814814814814813,0)"
                    xlink:href="#ab" />
            </g>
            <path fill="#3a414a" d="M33 0v-248h34V0H33" id="ac" />
            <path fill="#3a414a"
                d="M30-248c118-7 216 8 213 122C240-48 200 0 122 0H30v-248zM63-27c89 8 146-16 146-99s-60-101-146-95v194"
                id="ad" />
            <g id="c">
                <use transform="matrix(0.061728395061728385,0,0,0.061728395061728385,0,0)"
                    xlink:href="#ac" />
                <use
                    transform="matrix(0.061728395061728385,0,0,0.061728395061728385,6.1728395061728385,0)"
                    xlink:href="#ad" />
            </g>
            <path fill="#3a414a" d="M30 0v-248h33v221h125V0H30" id="ae" />
            <path fill="#3a414a"
                d="M141-36C126-15 110 5 73 4 37 3 15-17 15-53c-1-64 63-63 125-63 3-35-9-54-41-54-24 1-41 7-42 31l-33-3c5-37 33-52 76-52 45 0 72 20 72 64v82c-1 20 7 32 28 27v20c-31 9-61-2-59-35zM48-53c0 20 12 33 32 33 41-3 63-29 60-74-43 2-92-5-92 41"
                id="af" />
            <path fill="#3a414a"
                d="M59-47c-2 24 18 29 38 22v24C64 9 27 4 27-40v-127H5v-23h24l9-43h21v43h35v23H59v120"
                id="ag" />
            <path fill="#3a414a" d="M24-231v-30h32v30H24zM24 0v-190h32V0H24" id="ah" />
            <path fill="#3a414a"
                d="M84 4C-5 8 30-112 23-190h32v120c0 31 7 50 39 49 72-2 45-101 50-169h31l1 190h-30c-1-10 1-25-2-33-11 22-28 36-60 37"
                id="ai" />
            <g id="d">
                <use transform="matrix(0.061728395061728385,0,0,0.061728395061728385,0,0)"
                    xlink:href="#ae" />
                <use
                    transform="matrix(0.061728395061728385,0,0,0.061728395061728385,12.345679012345677,0)"
                    xlink:href="#af" />
                <use
                    transform="matrix(0.061728395061728385,0,0,0.061728395061728385,24.691358024691354,0)"
                    xlink:href="#ag" />
                <use
                    transform="matrix(0.061728395061728385,0,0,0.061728395061728385,30.864197530864192,0)"
                    xlink:href="#ah" />
                <use
                    transform="matrix(0.061728395061728385,0,0,0.061728395061728385,35.74074074074073,0)"
                    xlink:href="#ag" />
                <use
                    transform="matrix(0.061728395061728385,0,0,0.061728395061728385,41.91358024691357,0)"
                    xlink:href="#ai" />
                <use
                    transform="matrix(0.061728395061728385,0,0,0.061728395061728385,54.259259259259245,0)"
                    xlink:href="#W" />
                <use
                    transform="matrix(0.061728395061728385,0,0,0.061728395061728385,66.60493827160492,0)"
                    xlink:href="#Y" />
            </g>
            <path fill="#3a414a"
                d="M100-194c62-1 85 37 85 99 1 63-27 99-86 99S16-35 15-95c0-66 28-99 85-99zM99-20c44 1 53-31 53-75 0-43-8-75-51-75s-53 32-53 75 10 74 51 75"
                id="aj" />
            <path fill="#3a414a"
                d="M177-190C167-65 218 103 67 71c-23-6-38-20-44-43l32-5c15 47 100 32 89-28v-30C133-14 115 1 83 1 29 1 15-40 15-95c0-56 16-97 71-98 29-1 48 16 59 35 1-10 0-23 2-32h30zM94-22c36 0 50-32 50-73 0-42-14-75-50-75-39 0-46 34-46 75s6 73 46 73"
                id="ak" />
            <g id="e">
                <use transform="matrix(0.061728395061728385,0,0,0.061728395061728385,0,0)"
                    xlink:href="#ae" />
                <use
                    transform="matrix(0.061728395061728385,0,0,0.061728395061728385,12.345679012345677,0)"
                    xlink:href="#aj" />
                <use
                    transform="matrix(0.061728395061728385,0,0,0.061728395061728385,24.691358024691354,0)"
                    xlink:href="#ak" />
                <use
                    transform="matrix(0.061728395061728385,0,0,0.061728395061728385,37.03703703703703,0)"
                    xlink:href="#ah" />
                <use
                    transform="matrix(0.061728395061728385,0,0,0.061728395061728385,41.913580246913575,0)"
                    xlink:href="#ag" />
                <use
                    transform="matrix(0.061728395061728385,0,0,0.061728395061728385,48.08641975308642,0)"
                    xlink:href="#ai" />
                <use
                    transform="matrix(0.061728395061728385,0,0,0.061728395061728385,60.432098765432094,0)"
                    xlink:href="#W" />
                <use
                    transform="matrix(0.061728395061728385,0,0,0.061728395061728385,72.77777777777777,0)"
                    xlink:href="#Y" />
            </g>
            <path fill="#3a414a" d="M63-220v92h138v28H63V0H30v-248h175v28H63" id="al" />
            <g id="f">
                <use transform="matrix(0.061728395061728385,0,0,0.061728395061728385,0,0)"
                    xlink:href="#al" />
                <use
                    transform="matrix(0.061728395061728385,0,0,0.061728395061728385,13.518518518518515,0)"
                    xlink:href="#ab" />
            </g>
            <path fill="#3a414a"
                d="M212-179c-10-28-35-45-73-45-59 0-87 40-87 99 0 60 29 101 89 101 43 0 62-24 78-52l27 14C228-24 195 4 139 4 59 4 22-46 18-125c-6-104 99-153 187-111 19 9 31 26 39 46"
                id="am" />
            <path fill="#3a414a"
                d="M210-169c-67 3-38 105-44 169h-31v-121c0-29-5-50-35-48C34-165 62-65 56 0H25l-1-190h30c1 10-1 24 2 32 10-44 99-50 107 0 11-21 27-35 58-36 85-2 47 119 55 194h-31v-121c0-29-5-49-35-48"
                id="an" />
            <path fill="#3a414a" d="M-5 72V49h209v23H-5" id="ao" />
            <g id="g">
                <use transform="matrix(0.061728395061728385,0,0,0.061728395061728385,0,0)"
                    xlink:href="#am" />
                <use
                    transform="matrix(0.061728395061728385,0,0,0.061728395061728385,15.987654320987652,0)"
                    xlink:href="#ai" />
                <use
                    transform="matrix(0.061728395061728385,0,0,0.061728395061728385,28.33333333333333,0)"
                    xlink:href="#Z" />
                <use
                    transform="matrix(0.061728395061728385,0,0,0.061728395061728385,39.444444444444436,0)"
                    xlink:href="#ag" />
                <use
                    transform="matrix(0.061728395061728385,0,0,0.061728395061728385,45.61728395061728,0)"
                    xlink:href="#aj" />
                <use
                    transform="matrix(0.061728395061728385,0,0,0.061728395061728385,57.962962962962955,0)"
                    xlink:href="#an" />
                <use
                    transform="matrix(0.061728395061728385,0,0,0.061728395061728385,76.41975308641975,0)"
                    xlink:href="#Y" />
                <use
                    transform="matrix(0.061728395061728385,0,0,0.061728395061728385,88.76543209876542,0)"
                    xlink:href="#X" />
                <use
                    transform="matrix(0.061728395061728385,0,0,0.061728395061728385,96.1111111111111,0)"
                    xlink:href="#ao" />
                <use
                    transform="matrix(0.061728395061728385,0,0,0.061728395061728385,108.45679012345678,0)"
                    xlink:href="#ac" />
                <use
                    transform="matrix(0.061728395061728385,0,0,0.061728395061728385,114.62962962962962,0)"
                    xlink:href="#ad" />
            </g>
            <path fill="#3a414a"
                d="M140-251c81 0 123 46 123 126C263-46 219 4 140 4 59 4 17-45 17-125s42-126 123-126zm0 227c63 0 89-41 89-101s-29-99-89-99c-61 0-89 39-89 99S79-25 140-24"
                id="ap" />
            <g id="h">
                <use transform="matrix(0.061728395061728385,0,0,0.061728395061728385,0,0)"
                    xlink:href="#ap" />
                <use
                    transform="matrix(0.061728395061728385,0,0,0.061728395061728385,17.28395061728395,0)"
                    xlink:href="#X" />
                <use
                    transform="matrix(0.061728395061728385,0,0,0.061728395061728385,24.629629629629626,0)"
                    xlink:href="#W" />
                <use
                    transform="matrix(0.061728395061728385,0,0,0.061728395061728385,36.9753086419753,0)"
                    xlink:href="#Y" />
                <use
                    transform="matrix(0.061728395061728385,0,0,0.061728395061728385,49.32098765432098,0)"
                    xlink:href="#X" />
                <use
                    transform="matrix(0.061728395061728385,0,0,0.061728395061728385,56.66666666666666,0)"
                    xlink:href="#Z" />
            </g>
            <path fill="#3a414a"
                d="M185-189c-5-48-123-54-124 2 14 75 158 14 163 119 3 78-121 87-175 55-17-10-28-26-33-46l33-7c5 56 141 63 141-1 0-78-155-14-162-118-5-82 145-84 179-34 5 7 8 16 11 25"
                id="aq" />
            <g id="i">
                <use transform="matrix(0.061728395061728385,0,0,0.061728395061728385,0,0)"
                    xlink:href="#aq" />
                <use
                    transform="matrix(0.061728395061728385,0,0,0.061728395061728385,14.814814814814813,0)"
                    xlink:href="#ag" />
                <use
                    transform="matrix(0.061728395061728385,0,0,0.061728395061728385,20.98765432098765,0)"
                    xlink:href="#af" />
                <use
                    transform="matrix(0.061728395061728385,0,0,0.061728395061728385,33.33333333333333,0)"
                    xlink:href="#ag" />
                <use
                    transform="matrix(0.061728395061728385,0,0,0.061728395061728385,39.50617283950616,0)"
                    xlink:href="#ai" />
                <use
                    transform="matrix(0.061728395061728385,0,0,0.061728395061728385,51.85185185185184,0)"
                    xlink:href="#Z" />
            </g>
            <g id="j">
                <use transform="matrix(0.061728395061728385,0,0,0.061728395061728385,0,0)"
                    xlink:href="#am" />
                <use
                    transform="matrix(0.061728395061728385,0,0,0.061728395061728385,15.987654320987652,0)"
                    xlink:href="#X" />
                <use
                    transform="matrix(0.061728395061728385,0,0,0.061728395061728385,23.33333333333333,0)"
                    xlink:href="#Y" />
                <use
                    transform="matrix(0.061728395061728385,0,0,0.061728395061728385,35.679012345679006,0)"
                    xlink:href="#af" />
                <use
                    transform="matrix(0.061728395061728385,0,0,0.061728395061728385,48.02469135802468,0)"
                    xlink:href="#ag" />
                <use
                    transform="matrix(0.061728395061728385,0,0,0.061728395061728385,54.19753086419752,0)"
                    xlink:href="#Y" />
                <use
                    transform="matrix(0.061728395061728385,0,0,0.061728395061728385,66.54320987654319,0)"
                    xlink:href="#W" />
                <use
                    transform="matrix(0.061728395061728385,0,0,0.061728395061728385,78.88888888888886,0)"
                    xlink:href="#ao" />
                <use
                    transform="matrix(0.061728395061728385,0,0,0.061728395061728385,91.23456790123453,0)"
                    xlink:href="#af" />
                <use
                    transform="matrix(0.061728395061728385,0,0,0.061728395061728385,103.5802469135802,0)"
                    xlink:href="#ag" />
            </g>
            <path fill="#3a414a" d="M127-220V0H93v-220H8v-28h204v28h-85" id="ar" />
            <path fill="#3a414a" d="M24 0v-261h32V0H24" id="as" />
            <g id="k">
                <use transform="matrix(0.061728395061728385,0,0,0.061728395061728385,0,0)"
                    xlink:href="#ar" />
                <use
                    transform="matrix(0.061728395061728385,0,0,0.061728395061728385,11.04938271604938,0)"
                    xlink:href="#aj" />
                <use
                    transform="matrix(0.061728395061728385,0,0,0.061728395061728385,23.395061728395056,0)"
                    xlink:href="#ag" />
                <use
                    transform="matrix(0.061728395061728385,0,0,0.061728395061728385,29.567901234567895,0)"
                    xlink:href="#af" />
                <use
                    transform="matrix(0.061728395061728385,0,0,0.061728395061728385,41.91358024691357,0)"
                    xlink:href="#as" />
                <use
                    transform="matrix(0.061728395061728385,0,0,0.061728395061728385,46.79012345679011,0)"
                    xlink:href="#ao" />
                <use
                    transform="matrix(0.061728395061728385,0,0,0.061728395061728385,59.13580246913579,0)"
                    xlink:href="#af" />
                <use
                    transform="matrix(0.061728395061728385,0,0,0.061728395061728385,71.48148148148147,0)"
                    xlink:href="#an" />
                <use
                    transform="matrix(0.061728395061728385,0,0,0.061728395061728385,89.93827160493825,0)"
                    xlink:href="#ag" />
            </g>
            <path fill="#3a414a" d="M108 0H70L1-190h34L89-25l56-165h34" id="at" />
            <g id="l">
                <use transform="matrix(0.061728395061728385,0,0,0.061728395061728385,0,0)"
                    xlink:href="#ad" />
                <use
                    transform="matrix(0.061728395061728385,0,0,0.061728395061728385,15.987654320987652,0)"
                    xlink:href="#Y" />
                <use
                    transform="matrix(0.061728395061728385,0,0,0.061728395061728385,28.33333333333333,0)"
                    xlink:href="#as" />
                <use
                    transform="matrix(0.061728395061728385,0,0,0.061728395061728385,33.20987654320987,0)"
                    xlink:href="#ah" />
                <use
                    transform="matrix(0.061728395061728385,0,0,0.061728395061728385,38.08641975308642,0)"
                    xlink:href="#at" />
                <use
                    transform="matrix(0.061728395061728385,0,0,0.061728395061728385,49.197530864197525,0)"
                    xlink:href="#Y" />
                <use
                    transform="matrix(0.061728395061728385,0,0,0.061728395061728385,61.5432098765432,0)"
                    xlink:href="#X" />
                <use
                    transform="matrix(0.061728395061728385,0,0,0.061728395061728385,68.88888888888889,0)"
                    xlink:href="#Y" />
                <use
                    transform="matrix(0.061728395061728385,0,0,0.061728395061728385,81.23456790123456,0)"
                    xlink:href="#W" />
                <use
                    transform="matrix(0.061728395061728385,0,0,0.061728395061728385,93.58024691358023,0)"
                    xlink:href="#ao" />
                <use
                    transform="matrix(0.061728395061728385,0,0,0.061728395061728385,105.9259259259259,0)"
                    xlink:href="#ar" />
                <use
                    transform="matrix(0.061728395061728385,0,0,0.061728395061728385,118.64197530864195,0)"
                    xlink:href="#ah" />
                <use
                    transform="matrix(0.061728395061728385,0,0,0.061728395061728385,123.51851851851849,0)"
                    xlink:href="#an" />
                <use
                    transform="matrix(0.061728395061728385,0,0,0.061728395061728385,141.9753086419753,0)"
                    xlink:href="#Y" />
            </g>
            <g id="m">
                <use transform="matrix(0.061728395061728385,0,0,0.061728395061728385,0,0)"
                    xlink:href="#ad" />
                <use
                    transform="matrix(0.061728395061728385,0,0,0.061728395061728385,15.987654320987652,0)"
                    xlink:href="#X" />
                <use
                    transform="matrix(0.061728395061728385,0,0,0.061728395061728385,23.33333333333333,0)"
                    xlink:href="#ah" />
                <use
                    transform="matrix(0.061728395061728385,0,0,0.061728395061728385,28.209876543209873,0)"
                    xlink:href="#at" />
                <use
                    transform="matrix(0.061728395061728385,0,0,0.061728395061728385,39.32098765432098,0)"
                    xlink:href="#Y" />
                <use
                    transform="matrix(0.061728395061728385,0,0,0.061728395061728385,51.66666666666666,0)"
                    xlink:href="#X" />
                <use
                    transform="matrix(0.061728395061728385,0,0,0.061728395061728385,59.012345679012334,0)"
                    xlink:href="#ao" />
                <use
                    transform="matrix(0.061728395061728385,0,0,0.061728395061728385,71.35802469135801,0)"
                    xlink:href="#ac" />
                <use
                    transform="matrix(0.061728395061728385,0,0,0.061728395061728385,77.53086419753085,0)"
                    xlink:href="#ad" />
            </g>
            <g id="n">
                <use transform="matrix(0.061728395061728385,0,0,0.061728395061728385,0,0)"
                    xlink:href="#V" />
                <use
                    transform="matrix(0.061728395061728385,0,0,0.061728395061728385,14.814814814814813,0)"
                    xlink:href="#W" />
                <use
                    transform="matrix(0.061728395061728385,0,0,0.061728395061728385,27.16049382716049,0)"
                    xlink:href="#W" />
                <use
                    transform="matrix(0.061728395061728385,0,0,0.061728395061728385,39.50617283950616,0)"
                    xlink:href="#X" />
                <use
                    transform="matrix(0.061728395061728385,0,0,0.061728395061728385,46.85185185185184,0)"
                    xlink:href="#Y" />
                <use
                    transform="matrix(0.061728395061728385,0,0,0.061728395061728385,59.19753086419752,0)"
                    xlink:href="#Z" />
                <use
                    transform="matrix(0.061728395061728385,0,0,0.061728395061728385,70.30864197530863,0)"
                    xlink:href="#Z" />
                <use
                    transform="matrix(0.061728395061728385,0,0,0.061728395061728385,81.41975308641975,0)"
                    xlink:href="#ao" />
                <use
                    transform="matrix(0.061728395061728385,0,0,0.061728395061728385,93.76543209876542,0)"
                    xlink:href="#ac" />
                <use
                    transform="matrix(0.061728395061728385,0,0,0.061728395061728385,99.93827160493825,0)"
                    xlink:href="#ad" />
            </g>
            <path fill="#3a414a"
                d="M233-177c-1 41-23 64-60 70L243 0h-38l-65-103H63V0H30v-248c88 3 205-21 203 71zM63-129c60-2 137 13 137-47 0-61-80-42-137-45v92"
                id="au" />
            <path fill="#3a414a"
                d="M117-194c89-4 53 116 60 194h-32v-121c0-31-8-49-39-48C34-167 62-67 57 0H25l-1-190h30c1 10-1 24 2 32 11-22 29-35 61-36"
                id="av" />
            <g id="o">
                <use transform="matrix(0.061728395061728385,0,0,0.061728395061728385,0,0)"
                    xlink:href="#au" />
                <use
                    transform="matrix(0.061728395061728385,0,0,0.061728395061728385,15.987654320987652,0)"
                    xlink:href="#Y" />
                <use
                    transform="matrix(0.061728395061728385,0,0,0.061728395061728385,28.33333333333333,0)"
                    xlink:href="#Z" />
                <use
                    transform="matrix(0.061728395061728385,0,0,0.061728395061728385,39.444444444444436,0)"
                    xlink:href="#ag" />
                <use
                    transform="matrix(0.061728395061728385,0,0,0.061728395061728385,45.61728395061728,0)"
                    xlink:href="#af" />
                <use
                    transform="matrix(0.061728395061728385,0,0,0.061728395061728385,57.962962962962955,0)"
                    xlink:href="#ai" />
                <use
                    transform="matrix(0.061728395061728385,0,0,0.061728395061728385,70.30864197530863,0)"
                    xlink:href="#X" />
                <use
                    transform="matrix(0.061728395061728385,0,0,0.061728395061728385,77.65432098765432,0)"
                    xlink:href="#af" />
                <use transform="matrix(0.061728395061728385,0,0,0.061728395061728385,90,0)"
                    xlink:href="#av" />
                <use
                    transform="matrix(0.061728395061728385,0,0,0.061728395061728385,102.34567901234567,0)"
                    xlink:href="#ag" />
                <use
                    transform="matrix(0.061728395061728385,0,0,0.061728395061728385,108.5185185185185,0)"
                    xlink:href="#Z" />
            </g>
            <path fill="#3a414a"
                d="M96-169c-40 0-48 33-48 73s9 75 48 75c24 0 41-14 43-38l32 2c-6 37-31 61-74 61-59 0-76-41-82-99-10-93 101-131 147-64 4 7 5 14 7 22l-32 3c-4-21-16-35-41-35"
                id="aw" />
            <path fill="#3a414a"
                d="M115-194c55 1 70 41 70 98S169 2 115 4C84 4 66-9 55-30l1 105H24l-1-265h31l2 30c10-21 28-34 59-34zm-8 174c40 0 45-34 45-75s-6-73-45-74c-42 0-51 32-51 76 0 43 10 73 51 73"
                id="ax" />
            <g id="p">
                <use transform="matrix(0.061728395061728385,0,0,0.061728395061728385,0,0)"
                    xlink:href="#ad" />
                <use
                    transform="matrix(0.061728395061728385,0,0,0.061728395061728385,15.987654320987652,0)"
                    xlink:href="#Y" />
                <use
                    transform="matrix(0.061728395061728385,0,0,0.061728395061728385,28.33333333333333,0)"
                    xlink:href="#Z" />
                <use
                    transform="matrix(0.061728395061728385,0,0,0.061728395061728385,39.444444444444436,0)"
                    xlink:href="#aw" />
                <use
                    transform="matrix(0.061728395061728385,0,0,0.061728395061728385,50.55555555555554,0)"
                    xlink:href="#X" />
                <use
                    transform="matrix(0.061728395061728385,0,0,0.061728395061728385,57.90123456790122,0)"
                    xlink:href="#ah" />
                <use
                    transform="matrix(0.061728395061728385,0,0,0.061728395061728385,62.777777777777764,0)"
                    xlink:href="#ax" />
                <use
                    transform="matrix(0.061728395061728385,0,0,0.061728395061728385,75.12345679012344,0)"
                    xlink:href="#ag" />
                <use
                    transform="matrix(0.061728395061728385,0,0,0.061728395061728385,81.29629629629628,0)"
                    xlink:href="#ah" />
                <use
                    transform="matrix(0.061728395061728385,0,0,0.061728395061728385,86.17283950617282,0)"
                    xlink:href="#aj" />
                <use
                    transform="matrix(0.061728395061728385,0,0,0.061728395061728385,98.5185185185185,0)"
                    xlink:href="#av" />
            </g>
            <g id="q">
                <use transform="matrix(0.061728395061728385,0,0,0.061728395061728385,0,0)"
                    xlink:href="#aa" />
                <use
                    transform="matrix(0.061728395061728385,0,0,0.061728395061728385,14.814814814814813,0)"
                    xlink:href="#ah" />
                <use
                    transform="matrix(0.061728395061728385,0,0,0.061728395061728385,19.691358024691354,0)"
                    xlink:href="#aw" />
                <use
                    transform="matrix(0.061728395061728385,0,0,0.061728395061728385,30.80246913580246,0)"
                    xlink:href="#ag" />
                <use
                    transform="matrix(0.061728395061728385,0,0,0.061728395061728385,36.9753086419753,0)"
                    xlink:href="#ai" />
                <use
                    transform="matrix(0.061728395061728385,0,0,0.061728395061728385,49.32098765432098,0)"
                    xlink:href="#X" />
                <use
                    transform="matrix(0.061728395061728385,0,0,0.061728395061728385,56.66666666666666,0)"
                    xlink:href="#Y" />
                <use
                    transform="matrix(0.061728395061728385,0,0,0.061728395061728385,69.01234567901233,0)"
                    xlink:href="#Z" />
            </g>
            <g id="r">
                <use transform="matrix(0.061728395061728385,0,0,0.061728395061728385,0,0)"
                    xlink:href="#ag" />
                <use
                    transform="matrix(0.061728395061728385,0,0,0.061728395061728385,6.1728395061728385,0)"
                    xlink:href="#ah" />
                <use
                    transform="matrix(0.061728395061728385,0,0,0.061728395061728385,11.049382716049381,0)"
                    xlink:href="#an" />
                <use
                    transform="matrix(0.061728395061728385,0,0,0.061728395061728385,29.50617283950617,0)"
                    xlink:href="#ah" />
                <use
                    transform="matrix(0.061728395061728385,0,0,0.061728395061728385,34.382716049382715,0)"
                    xlink:href="#av" />
                <use
                    transform="matrix(0.061728395061728385,0,0,0.061728395061728385,46.72839506172839,0)"
                    xlink:href="#ak" />
                <use
                    transform="matrix(0.061728395061728385,0,0,0.061728395061728385,59.07407407407407,0)"
                    xlink:href="#Z" />
            </g>
            <g id="s">
                <use transform="matrix(0.061728395061728385,0,0,0.061728395061728385,0,0)"
                    xlink:href="#am" />
                <use
                    transform="matrix(0.061728395061728385,0,0,0.061728395061728385,15.987654320987652,0)"
                    xlink:href="#as" />
                <use
                    transform="matrix(0.061728395061728385,0,0,0.061728395061728385,20.864197530864196,0)"
                    xlink:href="#aj" />
                <use
                    transform="matrix(0.061728395061728385,0,0,0.061728395061728385,33.20987654320987,0)"
                    xlink:href="#Z" />
                <use
                    transform="matrix(0.061728395061728385,0,0,0.061728395061728385,44.32098765432098,0)"
                    xlink:href="#Y" />
                <use
                    transform="matrix(0.061728395061728385,0,0,0.061728395061728385,56.66666666666666,0)"
                    xlink:href="#ao" />
                <use
                    transform="matrix(0.061728395061728385,0,0,0.061728395061728385,69.01234567901233,0)"
                    xlink:href="#ar" />
                <use
                    transform="matrix(0.061728395061728385,0,0,0.061728395061728385,81.72839506172838,0)"
                    xlink:href="#ah" />
                <use
                    transform="matrix(0.061728395061728385,0,0,0.061728395061728385,86.60493827160492,0)"
                    xlink:href="#an" />
                <use
                    transform="matrix(0.061728395061728385,0,0,0.061728395061728385,105.0617283950617,0)"
                    xlink:href="#Y" />
            </g>
            <path fill="#3a414a"
                d="M206 0h-36l-40-164L89 0H53L-1-190h32L70-26l43-164h34l41 164 42-164h31" id="ay" />
            <g id="t">
                <use transform="matrix(0.061728395061728385,0,0,0.061728395061728385,0,0)"
                    xlink:href="#ap" />
                <use
                    transform="matrix(0.061728395061728385,0,0,0.061728395061728385,17.28395061728395,0)"
                    xlink:href="#ay" />
                <use
                    transform="matrix(0.061728395061728385,0,0,0.061728395061728385,33.2716049382716,0)"
                    xlink:href="#Y" />
                <use
                    transform="matrix(0.061728395061728385,0,0,0.061728395061728385,45.61728395061728,0)"
                    xlink:href="#av" />
                <use
                    transform="matrix(0.061728395061728385,0,0,0.061728395061728385,57.962962962962955,0)"
                    xlink:href="#Y" />
                <use
                    transform="matrix(0.061728395061728385,0,0,0.061728395061728385,70.30864197530863,0)"
                    xlink:href="#X" />
                <use
                    transform="matrix(0.061728395061728385,0,0,0.061728395061728385,77.65432098765432,0)"
                    xlink:href="#ao" />
                <use transform="matrix(0.061728395061728385,0,0,0.061728395061728385,90,0)"
                    xlink:href="#ac" />
                <use
                    transform="matrix(0.061728395061728385,0,0,0.061728395061728385,96.17283950617283,0)"
                    xlink:href="#ad" />
            </g>
            <g id="u">
                <use transform="matrix(0.061728395061728385,0,0,0.061728395061728385,0,0)"
                    xlink:href="#ac" />
                <use
                    transform="matrix(0.061728395061728385,0,0,0.061728395061728385,6.1728395061728385,0)"
                    xlink:href="#ag" />
                <use
                    transform="matrix(0.061728395061728385,0,0,0.061728395061728385,12.345679012345677,0)"
                    xlink:href="#Y" />
                <use
                    transform="matrix(0.061728395061728385,0,0,0.061728395061728385,24.691358024691354,0)"
                    xlink:href="#an" />
                <use
                    transform="matrix(0.061728395061728385,0,0,0.061728395061728385,43.14814814814814,0)"
                    xlink:href="#Z" />
            </g>
            <path fill="#3a414a" d="M190 0L58-211 59 0H30v-248h39L202-35l-2-213h31V0h-41" id="az" />
            <g id="v">
                <use transform="matrix(0.061728395061728385,0,0,0.061728395061728385,0,0)"
                    xlink:href="#az" />
                <use
                    transform="matrix(0.061728395061728385,0,0,0.061728395061728385,15.987654320987652,0)"
                    xlink:href="#af" />
                <use
                    transform="matrix(0.061728395061728385,0,0,0.061728395061728385,28.33333333333333,0)"
                    xlink:href="#an" />
                <use
                    transform="matrix(0.061728395061728385,0,0,0.061728395061728385,46.79012345679011,0)"
                    xlink:href="#Y" />
            </g>
            <path fill="#3a414a" d="M137 0h-34L2-248h35l83 218 83-218h36" id="aA" />
            <g id="w">
                <use transform="matrix(0.061728395061728385,0,0,0.061728395061728385,0,0)"
                    xlink:href="#aA" />
                <use
                    transform="matrix(0.061728395061728385,0,0,0.061728395061728385,13.580246913580245,0)"
                    xlink:href="#Y" />
                <use
                    transform="matrix(0.061728395061728385,0,0,0.061728395061728385,25.925925925925924,0)"
                    xlink:href="#ak" />
                <use
                    transform="matrix(0.061728395061728385,0,0,0.061728395061728385,38.2716049382716,0)"
                    xlink:href="#ah" />
                <use
                    transform="matrix(0.061728395061728385,0,0,0.061728395061728385,43.148148148148145,0)"
                    xlink:href="#ag" />
                <use
                    transform="matrix(0.061728395061728385,0,0,0.061728395061728385,49.32098765432099,0)"
                    xlink:href="#af" />
                <use
                    transform="matrix(0.061728395061728385,0,0,0.061728395061728385,61.666666666666664,0)"
                    xlink:href="#X" />
                <use
                    transform="matrix(0.061728395061728385,0,0,0.061728395061728385,69.01234567901234,0)"
                    xlink:href="#ah" />
                <use
                    transform="matrix(0.061728395061728385,0,0,0.061728395061728385,73.88888888888889,0)"
                    xlink:href="#af" />
                <use
                    transform="matrix(0.061728395061728385,0,0,0.061728395061728385,86.23456790123456,0)"
                    xlink:href="#av" />
            </g>
            <g id="x">
                <use transform="matrix(0.061728395061728385,0,0,0.061728395061728385,0,0)"
                    xlink:href="#aa" />
                <use
                    transform="matrix(0.061728395061728385,0,0,0.061728395061728385,14.814814814814813,0)"
                    xlink:href="#X" />
                <use
                    transform="matrix(0.061728395061728385,0,0,0.061728395061728385,22.16049382716049,0)"
                    xlink:href="#ah" />
                <use
                    transform="matrix(0.061728395061728385,0,0,0.061728395061728385,27.03703703703703,0)"
                    xlink:href="#aw" />
                <use
                    transform="matrix(0.061728395061728385,0,0,0.061728395061728385,38.14814814814814,0)"
                    xlink:href="#Y" />
            </g>
            <g id="y">
                <use transform="matrix(0.061728395061728385,0,0,0.061728395061728385,0,0)"
                    xlink:href="#au" />
                <use
                    transform="matrix(0.061728395061728385,0,0,0.061728395061728385,15.987654320987652,0)"
                    xlink:href="#Y" />
                <use
                    transform="matrix(0.061728395061728385,0,0,0.061728395061728385,28.33333333333333,0)"
                    xlink:href="#Z" />
                <use
                    transform="matrix(0.061728395061728385,0,0,0.061728395061728385,39.444444444444436,0)"
                    xlink:href="#ag" />
                <use
                    transform="matrix(0.061728395061728385,0,0,0.061728395061728385,45.61728395061728,0)"
                    xlink:href="#af" />
                <use
                    transform="matrix(0.061728395061728385,0,0,0.061728395061728385,57.962962962962955,0)"
                    xlink:href="#ai" />
                <use
                    transform="matrix(0.061728395061728385,0,0,0.061728395061728385,70.30864197530863,0)"
                    xlink:href="#X" />
                <use
                    transform="matrix(0.061728395061728385,0,0,0.061728395061728385,77.65432098765432,0)"
                    xlink:href="#af" />
                <use transform="matrix(0.061728395061728385,0,0,0.061728395061728385,90,0)"
                    xlink:href="#av" />
                <use
                    transform="matrix(0.061728395061728385,0,0,0.061728395061728385,102.34567901234567,0)"
                    xlink:href="#ag" />
                <use
                    transform="matrix(0.061728395061728385,0,0,0.061728395061728385,108.5185185185185,0)"
                    xlink:href="#ao" />
                <use
                    transform="matrix(0.061728395061728385,0,0,0.061728395061728385,120.86419753086417,0)"
                    xlink:href="#ac" />
                <use
                    transform="matrix(0.061728395061728385,0,0,0.061728395061728385,127.03703703703701,0)"
                    xlink:href="#ad" />
            </g>
            <g id="z">
                <use transform="matrix(0.061728395061728385,0,0,0.061728395061728385,0,0)"
                    xlink:href="#ad" />
                <use
                    transform="matrix(0.061728395061728385,0,0,0.061728395061728385,15.987654320987652,0)"
                    xlink:href="#X" />
                <use
                    transform="matrix(0.061728395061728385,0,0,0.061728395061728385,23.33333333333333,0)"
                    xlink:href="#ah" />
                <use
                    transform="matrix(0.061728395061728385,0,0,0.061728395061728385,28.209876543209873,0)"
                    xlink:href="#at" />
                <use
                    transform="matrix(0.061728395061728385,0,0,0.061728395061728385,39.32098765432098,0)"
                    xlink:href="#Y" />
                <use
                    transform="matrix(0.061728395061728385,0,0,0.061728395061728385,51.66666666666666,0)"
                    xlink:href="#X" />
                <use
                    transform="matrix(0.061728395061728385,0,0,0.061728395061728385,59.012345679012334,0)"
                    xlink:href="#Z" />
            </g>
            <path fill="#3a414a" d="M68-38c1 34 0 65-14 84H32c9-13 17-26 17-46H33v-38h35" id="aB" />
            <g id="A">
                <use transform="matrix(0.061728395061728385,0,0,0.061728395061728385,0,0)"
                    xlink:href="#aa" />
                <use
                    transform="matrix(0.061728395061728385,0,0,0.061728395061728385,14.814814814814813,0)"
                    xlink:href="#ab" />
                <use
                    transform="matrix(0.061728395061728385,0,0,0.061728395061728385,29.629629629629626,0)"
                    xlink:href="#aB" />
                <use
                    transform="matrix(0.061728395061728385,0,0,0.061728395061728385,35.80246913580247,0)"
                    xlink:href="#al" />
                <use
                    transform="matrix(0.061728395061728385,0,0,0.061728395061728385,49.32098765432099,0)"
                    xlink:href="#ab" />
            </g>
            <g id="B">
                <use transform="matrix(0.061728395061728385,0,0,0.061728395061728385,0,0)"
                    xlink:href="#ac" />
                <use
                    transform="matrix(0.061728395061728385,0,0,0.061728395061728385,6.1728395061728385,0)"
                    xlink:href="#ad" />
            </g>
            <path fill="#3a414a"
                d="M115-194c53 0 69 39 70 98 0 66-23 100-70 100C84 3 66-7 56-30L54 0H23l1-261h32v101c10-23 28-34 59-34zm-8 174c40 0 45-34 45-75 0-40-5-75-45-74-42 0-51 32-51 76 0 43 10 73 51 73"
                id="aC" />
            <g id="C">
                <use transform="matrix(0.061728395061728385,0,0,0.061728395061728385,0,0)"
                    xlink:href="#ah" />
                <use
                    transform="matrix(0.061728395061728385,0,0,0.061728395061728385,4.876543209876543,0)"
                    xlink:href="#Z" />
                <use
                    transform="matrix(0.061728395061728385,0,0,0.061728395061728385,15.987654320987652,0)"
                    xlink:href="#V" />
                <use
                    transform="matrix(0.061728395061728385,0,0,0.061728395061728385,30.370370370370367,0)"
                    xlink:href="#at" />
                <use
                    transform="matrix(0.061728395061728385,0,0,0.061728395061728385,41.481481481481474,0)"
                    xlink:href="#af" />
                <use
                    transform="matrix(0.061728395061728385,0,0,0.061728395061728385,53.82716049382715,0)"
                    xlink:href="#ah" />
                <use
                    transform="matrix(0.061728395061728385,0,0,0.061728395061728385,58.703703703703695,0)"
                    xlink:href="#as" />
                <use
                    transform="matrix(0.061728395061728385,0,0,0.061728395061728385,63.58024691358024,0)"
                    xlink:href="#af" />
                <use
                    transform="matrix(0.061728395061728385,0,0,0.061728395061728385,75.92592592592592,0)"
                    xlink:href="#aC" />
                <use
                    transform="matrix(0.061728395061728385,0,0,0.061728395061728385,88.2716049382716,0)"
                    xlink:href="#as" />
                <use
                    transform="matrix(0.061728395061728385,0,0,0.061728395061728385,93.14814814814814,0)"
                    xlink:href="#Y" />
            </g>
            <g id="D">
                <use transform="matrix(0.061728395061728385,0,0,0.061728395061728385,0,0)"
                    xlink:href="#ap" />
                <use
                    transform="matrix(0.061728395061728385,0,0,0.061728395061728385,17.28395061728395,0)"
                    xlink:href="#X" />
                <use
                    transform="matrix(0.061728395061728385,0,0,0.061728395061728385,24.629629629629626,0)"
                    xlink:href="#W" />
                <use
                    transform="matrix(0.061728395061728385,0,0,0.061728395061728385,36.9753086419753,0)"
                    xlink:href="#Y" />
                <use
                    transform="matrix(0.061728395061728385,0,0,0.061728395061728385,49.32098765432098,0)"
                    xlink:href="#X" />
                <use
                    transform="matrix(0.061728395061728385,0,0,0.061728395061728385,56.66666666666666,0)"
                    xlink:href="#Y" />
                <use
                    transform="matrix(0.061728395061728385,0,0,0.061728395061728385,69.01234567901233,0)"
                    xlink:href="#W" />
                <use
                    transform="matrix(0.061728395061728385,0,0,0.061728395061728385,81.358024691358,0)"
                    xlink:href="#ao" />
                <use
                    transform="matrix(0.061728395061728385,0,0,0.061728395061728385,93.70370370370367,0)"
                    xlink:href="#ac" />
                <use
                    transform="matrix(0.061728395061728385,0,0,0.061728395061728385,99.8765432098765,0)"
                    xlink:href="#ag" />
                <use
                    transform="matrix(0.061728395061728385,0,0,0.061728395061728385,106.04938271604934,0)"
                    xlink:href="#Y" />
                <use
                    transform="matrix(0.061728395061728385,0,0,0.061728395061728385,118.395061728395,0)"
                    xlink:href="#an" />
                <use
                    transform="matrix(0.061728395061728385,0,0,0.061728395061728385,136.8518518518518,0)"
                    xlink:href="#Z" />
            </g>
            <g id="E">
                <use transform="matrix(0.061728395061728385,0,0,0.061728395061728385,0,0)"
                    xlink:href="#aa" />
                <use
                    transform="matrix(0.061728395061728385,0,0,0.061728395061728385,14.814814814814813,0)"
                    xlink:href="#ab" />
                <use
                    transform="matrix(0.061728395061728385,0,0,0.061728395061728385,29.629629629629626,0)"
                    xlink:href="#aB" />
                <use
                    transform="matrix(0.061728395061728385,0,0,0.061728395061728385,35.80246913580247,0)"
                    xlink:href="#al" />
                <use
                    transform="matrix(0.061728395061728385,0,0,0.061728395061728385,49.32098765432099,0)"
                    xlink:href="#ab" />
            </g>
            <g id="F">
                <use transform="matrix(0.061728395061728385,0,0,0.061728395061728385,0,0)"
                    xlink:href="#ap" />
                <use
                    transform="matrix(0.061728395061728385,0,0,0.061728395061728385,17.28395061728395,0)"
                    xlink:href="#X" />
                <use
                    transform="matrix(0.061728395061728385,0,0,0.061728395061728385,24.629629629629626,0)"
                    xlink:href="#W" />
                <use
                    transform="matrix(0.061728395061728385,0,0,0.061728395061728385,36.9753086419753,0)"
                    xlink:href="#Y" />
                <use
                    transform="matrix(0.061728395061728385,0,0,0.061728395061728385,49.32098765432098,0)"
                    xlink:href="#X" />
                <use
                    transform="matrix(0.061728395061728385,0,0,0.061728395061728385,56.66666666666666,0)"
                    xlink:href="#ao" />
                <use
                    transform="matrix(0.061728395061728385,0,0,0.061728395061728385,69.01234567901233,0)"
                    xlink:href="#ac" />
                <use
                    transform="matrix(0.061728395061728385,0,0,0.061728395061728385,75.18518518518516,0)"
                    xlink:href="#ad" />
            </g>
            <g id="G">
                <use transform="matrix(0.061728395061728385,0,0,0.061728395061728385,0,0)"
                    xlink:href="#ac" />
                <use
                    transform="matrix(0.061728395061728385,0,0,0.061728395061728385,6.1728395061728385,0)"
                    xlink:href="#ag" />
                <use
                    transform="matrix(0.061728395061728385,0,0,0.061728395061728385,12.345679012345677,0)"
                    xlink:href="#Y" />
                <use
                    transform="matrix(0.061728395061728385,0,0,0.061728395061728385,24.691358024691354,0)"
                    xlink:href="#an" />
                <use
                    transform="matrix(0.061728395061728385,0,0,0.061728395061728385,43.14814814814814,0)"
                    xlink:href="#ao" />
                <use
                    transform="matrix(0.061728395061728385,0,0,0.061728395061728385,55.493827160493815,0)"
                    xlink:href="#ac" />
                <use
                    transform="matrix(0.061728395061728385,0,0,0.061728395061728385,61.66666666666666,0)"
                    xlink:href="#ad" />
            </g>
            <path fill="#3a414a"
                d="M140-251c81 0 123 46 123 126C263-53 228-8 163 1c7 30 30 48 69 40v23c-55 16-95-15-103-61C56-3 17-48 17-125c0-80 42-126 123-126zm0 227c63 0 89-41 89-101s-29-99-89-99c-61 0-89 39-89 99S79-25 140-24"
                id="aD" />
            <path fill="#3a414a"
                d="M179-190L93 31C79 59 56 82 12 73V49c39 6 53-20 64-50L1-190h34L92-34l54-156h33"
                id="aE" />
            <g id="H">
                <use transform="matrix(0.061728395061728385,0,0,0.061728395061728385,0,0)"
                    xlink:href="#aD" />
                <use
                    transform="matrix(0.061728395061728385,0,0,0.061728395061728385,17.28395061728395,0)"
                    xlink:href="#ai" />
                <use
                    transform="matrix(0.061728395061728385,0,0,0.061728395061728385,29.629629629629626,0)"
                    xlink:href="#af" />
                <use
                    transform="matrix(0.061728395061728385,0,0,0.061728395061728385,41.9753086419753,0)"
                    xlink:href="#av" />
                <use
                    transform="matrix(0.061728395061728385,0,0,0.061728395061728385,54.32098765432098,0)"
                    xlink:href="#ag" />
                <use
                    transform="matrix(0.061728395061728385,0,0,0.061728395061728385,60.49382716049382,0)"
                    xlink:href="#ah" />
                <use
                    transform="matrix(0.061728395061728385,0,0,0.061728395061728385,65.37037037037037,0)"
                    xlink:href="#ag" />
                <use
                    transform="matrix(0.061728395061728385,0,0,0.061728395061728385,71.5432098765432,0)"
                    xlink:href="#aE" />
            </g>
            <path fill="#3a414a"
                d="M232-93c-1 65-40 97-104 97C67 4 28-28 28-90v-158h33c8 89-33 224 67 224 102 0 64-133 71-224h33v155"
                id="aF" />
            <g id="I">
                <use transform="matrix(0.06172839506172839,0,0,0.06172839506172839,0,0)"
                    xlink:href="#aF" />
                <use
                    transform="matrix(0.06172839506172839,0,0,0.06172839506172839,15.987654320987653,0)"
                    xlink:href="#Z" />
                <use
                    transform="matrix(0.06172839506172839,0,0,0.06172839506172839,27.098765432098766,0)"
                    xlink:href="#Y" />
                <use
                    transform="matrix(0.06172839506172839,0,0,0.06172839506172839,39.44444444444444,0)"
                    xlink:href="#X" />
                <use
                    transform="matrix(0.06172839506172839,0,0,0.06172839506172839,46.79012345679012,0)"
                    xlink:href="#Z" />
            </g>
            <g id="J">
                <use transform="matrix(0.06172839506172839,0,0,0.06172839506172839,0,0)"
                    xlink:href="#aa" />
                <use
                    transform="matrix(0.06172839506172839,0,0,0.06172839506172839,14.814814814814813,0)"
                    xlink:href="#ab" />
            </g>
            <g id="K">
                <use transform="matrix(0.06172839506172839,0,0,0.06172839506172839,0,0)"
                    xlink:href="#ac" />
                <use
                    transform="matrix(0.06172839506172839,0,0,0.06172839506172839,6.172839506172839,0)"
                    xlink:href="#ad" />
            </g>
            <g id="L">
                <use transform="matrix(0.06172839506172839,0,0,0.06172839506172839,0,0)"
                    xlink:href="#aa" />
                <use
                    transform="matrix(0.06172839506172839,0,0,0.06172839506172839,14.814814814814813,0)"
                    xlink:href="#af" />
                <use
                    transform="matrix(0.06172839506172839,0,0,0.06172839506172839,27.160493827160494,0)"
                    xlink:href="#Z" />
                <use
                    transform="matrix(0.06172839506172839,0,0,0.06172839506172839,38.27160493827161,0)"
                    xlink:href="#Z" />
                <use
                    transform="matrix(0.06172839506172839,0,0,0.06172839506172839,49.38271604938272,0)"
                    xlink:href="#ay" />
                <use
                    transform="matrix(0.06172839506172839,0,0,0.06172839506172839,65.37037037037038,0)"
                    xlink:href="#aj" />
                <use
                    transform="matrix(0.06172839506172839,0,0,0.06172839506172839,77.71604938271606,0)"
                    xlink:href="#X" />
                <use
                    transform="matrix(0.06172839506172839,0,0,0.06172839506172839,85.06172839506175,0)"
                    xlink:href="#W" />
            </g>
            <g id="M">
                <use transform="matrix(0.06172839506172839,0,0,0.06172839506172839,0,0)"
                    xlink:href="#az" />
                <use
                    transform="matrix(0.06172839506172839,0,0,0.06172839506172839,15.987654320987653,0)"
                    xlink:href="#af" />
                <use
                    transform="matrix(0.06172839506172839,0,0,0.06172839506172839,28.333333333333332,0)"
                    xlink:href="#an" />
                <use
                    transform="matrix(0.06172839506172839,0,0,0.06172839506172839,46.79012345679012,0)"
                    xlink:href="#Y" />
            </g>
            <path fill="#3a414a"
                d="M106-169C34-169 62-67 57 0H25v-261h32l-1 103c12-21 28-36 61-36 89 0 53 116 60 194h-32v-121c2-32-8-49-39-48"
                id="aG" />
            <g id="N">
                <use transform="matrix(0.06172839506172839,0,0,0.06172839506172839,0,0)"
                    xlink:href="#aa" />
                <use
                    transform="matrix(0.06172839506172839,0,0,0.06172839506172839,14.814814814814813,0)"
                    xlink:href="#aG" />
                <use
                    transform="matrix(0.06172839506172839,0,0,0.06172839506172839,27.160493827160494,0)"
                    xlink:href="#aj" />
                <use
                    transform="matrix(0.06172839506172839,0,0,0.06172839506172839,39.50617283950617,0)"
                    xlink:href="#av" />
                <use
                    transform="matrix(0.06172839506172839,0,0,0.06172839506172839,51.85185185185185,0)"
                    xlink:href="#Y" />
            </g>
            <path fill="#3a414a" d="M30 0v-248h187v28H63v79h144v27H63v87h162V0H30" id="aH" />
            <g id="O">
                <use transform="matrix(0.06172839506172839,0,0,0.06172839506172839,0,0)"
                    xlink:href="#aH" />
                <use
                    transform="matrix(0.06172839506172839,0,0,0.06172839506172839,14.814814814814813,0)"
                    xlink:href="#an" />
                <use
                    transform="matrix(0.06172839506172839,0,0,0.06172839506172839,33.2716049382716,0)"
                    xlink:href="#af" />
                <use
                    transform="matrix(0.06172839506172839,0,0,0.06172839506172839,45.61728395061728,0)"
                    xlink:href="#ah" />
                <use
                    transform="matrix(0.06172839506172839,0,0,0.06172839506172839,50.49382716049382,0)"
                    xlink:href="#as" />
            </g>
            <g id="P">
                <use transform="matrix(0.06172839506172839,0,0,0.06172839506172839,0,0)"
                    xlink:href="#aq" />
                <use
                    transform="matrix(0.06172839506172839,0,0,0.06172839506172839,14.814814814814813,0)"
                    xlink:href="#Y" />
                <use
                    transform="matrix(0.06172839506172839,0,0,0.06172839506172839,27.160493827160494,0)"
                    xlink:href="#Z" />
                <use
                    transform="matrix(0.06172839506172839,0,0,0.06172839506172839,38.27160493827161,0)"
                    xlink:href="#Z" />
                <use
                    transform="matrix(0.06172839506172839,0,0,0.06172839506172839,49.38271604938272,0)"
                    xlink:href="#ah" />
                <use
                    transform="matrix(0.06172839506172839,0,0,0.06172839506172839,54.25925925925927,0)"
                    xlink:href="#aj" />
                <use
                    transform="matrix(0.06172839506172839,0,0,0.06172839506172839,66.60493827160495,0)"
                    xlink:href="#av" />
                <use
                    transform="matrix(0.06172839506172839,0,0,0.06172839506172839,78.95061728395063,0)"
                    xlink:href="#Z" />
            </g>
            <g id="Q">
                <use transform="matrix(0.06172839506172839,0,0,0.06172839506172839,0,0)"
                    xlink:href="#al" />
                <use
                    transform="matrix(0.06172839506172839,0,0,0.06172839506172839,13.518518518518517,0)"
                    xlink:href="#ab" />
            </g>
            <g id="R">
                <use transform="matrix(0.06172839506172839,0,0,0.06172839506172839,0,0)"
                    xlink:href="#aF" />
                <use
                    transform="matrix(0.06172839506172839,0,0,0.06172839506172839,15.987654320987653,0)"
                    xlink:href="#Z" />
                <use
                    transform="matrix(0.06172839506172839,0,0,0.06172839506172839,27.098765432098766,0)"
                    xlink:href="#Y" />
                <use
                    transform="matrix(0.06172839506172839,0,0,0.06172839506172839,39.44444444444444,0)"
                    xlink:href="#X" />
                <use
                    transform="matrix(0.06172839506172839,0,0,0.06172839506172839,46.79012345679012,0)"
                    xlink:href="#ao" />
                <use
                    transform="matrix(0.06172839506172839,0,0,0.06172839506172839,59.1358024691358,0)"
                    xlink:href="#ac" />
                <use
                    transform="matrix(0.06172839506172839,0,0,0.06172839506172839,65.30864197530863,0)"
                    xlink:href="#ad" />
            </g>
            <g id="S">
                <use transform="matrix(0.061728395061728385,0,0,0.061728395061728385,0,0)"
                    xlink:href="#au" />
                <use
                    transform="matrix(0.061728395061728385,0,0,0.061728395061728385,15.987654320987652,0)"
                    xlink:href="#af" />
                <use
                    transform="matrix(0.061728395061728385,0,0,0.061728395061728385,28.33333333333333,0)"
                    xlink:href="#ag" />
                <use
                    transform="matrix(0.061728395061728385,0,0,0.061728395061728385,34.50617283950616,0)"
                    xlink:href="#ah" />
                <use
                    transform="matrix(0.061728395061728385,0,0,0.061728395061728385,39.38271604938271,0)"
                    xlink:href="#av" />
                <use
                    transform="matrix(0.061728395061728385,0,0,0.061728395061728385,51.728395061728385,0)"
                    xlink:href="#ak" />
                <use
                    transform="matrix(0.061728395061728385,0,0,0.061728395061728385,64.07407407407406,0)"
                    xlink:href="#Z" />
            </g>
            <g id="T">
                <use transform="matrix(0.061728395061728385,0,0,0.061728395061728385,0,0)"
                    xlink:href="#au" />
                <use
                    transform="matrix(0.061728395061728385,0,0,0.061728395061728385,15.987654320987652,0)"
                    xlink:href="#af" />
                <use
                    transform="matrix(0.061728395061728385,0,0,0.061728395061728385,28.33333333333333,0)"
                    xlink:href="#ag" />
                <use
                    transform="matrix(0.061728395061728385,0,0,0.061728395061728385,34.50617283950616,0)"
                    xlink:href="#ah" />
                <use
                    transform="matrix(0.061728395061728385,0,0,0.061728395061728385,39.38271604938271,0)"
                    xlink:href="#av" />
                <use
                    transform="matrix(0.061728395061728385,0,0,0.061728395061728385,51.728395061728385,0)"
                    xlink:href="#ak" />
            </g>
            <g id="U">
                <use transform="matrix(0.061728395061728385,0,0,0.061728395061728385,0,0)"
                    xlink:href="#au" />
                <use
                    transform="matrix(0.061728395061728385,0,0,0.061728395061728385,15.987654320987652,0)"
                    xlink:href="#Y" />
                <use
                    transform="matrix(0.061728395061728385,0,0,0.061728395061728385,28.33333333333333,0)"
                    xlink:href="#at" />
                <use
                    transform="matrix(0.061728395061728385,0,0,0.061728395061728385,39.444444444444436,0)"
                    xlink:href="#ah" />
                <use
                    transform="matrix(0.061728395061728385,0,0,0.061728395061728385,44.32098765432098,0)"
                    xlink:href="#Y" />
                <use
                    transform="matrix(0.061728395061728385,0,0,0.061728395061728385,56.66666666666666,0)"
                    xlink:href="#ay" />
            </g>
        </defs>
    </g>
</svg>